<?xml version="1.0" encoding="UTF-8" standalone="no"?>
<!DOCTYPE svg PUBLIC "-//W3C//DTD SVG 1.1//EN" "http://www.w3.org/Graphics/SVG/1.1/DTD/svg11.dtd">
<svg width="100%" height="100%" viewBox="0 0 132 68" version="1.1" xmlns="http://www.w3.org/2000/svg" xmlns:xlink="http://www.w3.org/1999/xlink" xml:space="preserve" xmlns:serif="http://www.serif.com/" style="fill-rule:evenodd;clip-rule:evenodd;stroke-linecap:round;stroke-linejoin:round;stroke-miterlimit:1.5;">
    <rect id="_2px-border" serif:id="2px border" x="0" y="0" width="132" height="68"/>
    <g id="Grid" opacity="0.82">
        <path d="M3,2L3,66" style="fill:none;stroke:black;stroke-width:0.04px;"/>
        <path d="M39,2L39,66" style="fill:none;stroke:black;stroke-width:0.04px;"/>
        <path d="M75,2L75,66" style="fill:none;stroke:black;stroke-width:0.04px;"/>
        <path d="M12,2L12,66" style="fill:none;stroke:black;stroke-width:0.04px;"/>
        <path d="M48,2L48,66" style="fill:none;stroke:black;stroke-width:0.04px;"/>
        <path d="M84,2L84,66" style="fill:none;stroke:black;stroke-width:0.04px;"/>
        <path d="M21,2L21,66" style="fill:none;stroke:black;stroke-width:0.04px;"/>
        <path d="M57,2L57,66" style="fill:none;stroke:black;stroke-width:0.04px;"/>
        <path d="M93,2L93,66" style="fill:none;stroke:black;stroke-width:0.04px;"/>
        <path d="M30,2L30,66" style="fill:none;stroke:black;stroke-width:0.04px;"/>
        <path d="M66,2L66,66" style="fill:none;stroke:black;stroke-width:0.04px;"/>
        <path d="M102,2L102,66" style="fill:none;stroke:black;stroke-width:0.04px;"/>
        <path d="M113,2L113,66" style="fill:none;stroke:black;stroke-width:0.04px;"/>
        <path d="M123,2L123,66" style="fill:none;stroke:black;stroke-width:0.04px;"/>
        <path d="M6,2L6,66" style="fill:none;stroke:black;stroke-width:0.04px;"/>
        <path d="M42,2L42,66" style="fill:none;stroke:black;stroke-width:0.04px;"/>
        <path d="M78,2L78,66" style="fill:none;stroke:black;stroke-width:0.04px;"/>
        <path d="M15,2L15,66" style="fill:none;stroke:black;stroke-width:0.04px;"/>
        <path d="M51,2L51,66" style="fill:none;stroke:black;stroke-width:0.04px;"/>
        <path d="M87,2L87,66" style="fill:none;stroke:black;stroke-width:0.04px;"/>
        <path d="M24,2L24,66" style="fill:none;stroke:black;stroke-width:0.04px;"/>
        <path d="M60,2L60,66" style="fill:none;stroke:black;stroke-width:0.04px;"/>
        <path d="M96,2L96,66" style="fill:none;stroke:black;stroke-width:0.04px;"/>
        <path d="M33,2L33,66" style="fill:none;stroke:black;stroke-width:0.04px;"/>
        <path d="M69,2L69,66" style="fill:none;stroke:black;stroke-width:0.04px;"/>
        <path d="M105,2L105,66" style="fill:none;stroke:black;stroke-width:0.04px;"/>
        <path d="M116,2L116,66" style="fill:none;stroke:black;stroke-width:0.04px;"/>
        <path d="M126,2L126,66" style="fill:none;stroke:black;stroke-width:0.04px;"/>
        <path d="M9,2L9,66" style="fill:none;stroke:black;stroke-width:0.04px;"/>
        <path d="M45,2L45,66" style="fill:none;stroke:black;stroke-width:0.04px;"/>
        <path d="M81,2L81,66" style="fill:none;stroke:black;stroke-width:0.04px;"/>
        <path d="M18,2L18,66" style="fill:none;stroke:black;stroke-width:0.04px;"/>
        <path d="M54,2L54,66" style="fill:none;stroke:black;stroke-width:0.04px;"/>
        <path d="M90,2L90,66" style="fill:none;stroke:black;stroke-width:0.04px;"/>
        <path d="M27,2L27,66" style="fill:none;stroke:black;stroke-width:0.04px;"/>
        <path d="M63,2L63,66" style="fill:none;stroke:black;stroke-width:0.04px;"/>
        <path d="M99,2L99,66" style="fill:none;stroke:black;stroke-width:0.04px;"/>
        <path d="M36,2L36,66" style="fill:none;stroke:black;stroke-width:0.04px;"/>
        <path d="M72,2L72,66" style="fill:none;stroke:black;stroke-width:0.04px;"/>
        <path d="M108,2L108,66" style="fill:none;stroke:black;stroke-width:0.04px;"/>
        <path d="M119,2L119,66" style="fill:none;stroke:black;stroke-width:0.04px;"/>
        <path d="M129,2L129,66" style="fill:none;stroke:black;stroke-width:0.04px;"/>
        <path d="M4,2L4,66" style="fill:none;stroke:black;stroke-width:0.04px;"/>
        <path d="M40,2L40,66" style="fill:none;stroke:black;stroke-width:0.04px;"/>
        <path d="M76,2L76,66" style="fill:none;stroke:black;stroke-width:0.04px;"/>
        <path d="M13,2L13,66" style="fill:none;stroke:black;stroke-width:0.04px;"/>
        <path d="M49,2L49,66" style="fill:none;stroke:black;stroke-width:0.04px;"/>
        <path d="M85,2L85,66" style="fill:none;stroke:black;stroke-width:0.04px;"/>
        <path d="M22,2L22,66" style="fill:none;stroke:black;stroke-width:0.04px;"/>
        <path d="M58,2L58,66" style="fill:none;stroke:black;stroke-width:0.04px;"/>
        <path d="M94,2L94,66" style="fill:none;stroke:black;stroke-width:0.04px;"/>
        <path d="M31,2L31,66" style="fill:none;stroke:black;stroke-width:0.04px;"/>
        <path d="M67,2L67,66" style="fill:none;stroke:black;stroke-width:0.04px;"/>
        <path d="M103,2L103,66" style="fill:none;stroke:black;stroke-width:0.04px;"/>
        <path d="M114,2L114,66" style="fill:none;stroke:black;stroke-width:0.04px;"/>
        <path d="M124,2L124,66" style="fill:none;stroke:black;stroke-width:0.04px;"/>
        <path d="M7,2L7,66" style="fill:none;stroke:black;stroke-width:0.04px;"/>
        <path d="M43,2L43,66" style="fill:none;stroke:black;stroke-width:0.04px;"/>
        <path d="M79,2L79,66" style="fill:none;stroke:black;stroke-width:0.04px;"/>
        <path d="M16,2L16,66" style="fill:none;stroke:black;stroke-width:0.04px;"/>
        <path d="M52,2L52,66" style="fill:none;stroke:black;stroke-width:0.04px;"/>
        <path d="M88,2L88,66" style="fill:none;stroke:black;stroke-width:0.04px;"/>
        <path d="M25,2L25,66" style="fill:none;stroke:black;stroke-width:0.04px;"/>
        <path d="M61,2L61,66" style="fill:none;stroke:black;stroke-width:0.04px;"/>
        <path d="M97,2L97,66" style="fill:none;stroke:black;stroke-width:0.04px;"/>
        <path d="M34,2L34,66" style="fill:none;stroke:black;stroke-width:0.04px;"/>
        <path d="M70,2L70,66" style="fill:none;stroke:black;stroke-width:0.04px;"/>
        <path d="M106,2L106,66" style="fill:none;stroke:black;stroke-width:0.04px;"/>
        <path d="M117,2L117,66" style="fill:none;stroke:black;stroke-width:0.04px;"/>
        <path d="M127,2L127,66" style="fill:none;stroke:black;stroke-width:0.04px;"/>
        <path d="M10,2L10,66" style="fill:none;stroke:black;stroke-width:0.04px;"/>
        <path d="M46,2L46,66" style="fill:none;stroke:black;stroke-width:0.04px;"/>
        <path d="M82,2L82,66" style="fill:none;stroke:black;stroke-width:0.04px;"/>
        <path d="M19,2L19,66" style="fill:none;stroke:black;stroke-width:0.04px;"/>
        <path d="M55,2L55,66" style="fill:none;stroke:black;stroke-width:0.04px;"/>
        <path d="M91,2L91,66" style="fill:none;stroke:black;stroke-width:0.04px;"/>
        <path d="M28,2L28,66" style="fill:none;stroke:black;stroke-width:0.04px;"/>
        <path d="M64,2L64,66" style="fill:none;stroke:black;stroke-width:0.04px;"/>
        <path d="M100,2L100,66" style="fill:none;stroke:black;stroke-width:0.04px;"/>
        <path d="M111,2L111,66" style="fill:none;stroke:black;stroke-width:0.04px;"/>
        <path d="M121,2L121,66" style="fill:none;stroke:black;stroke-width:0.04px;"/>
        <path d="M37,2L37,66" style="fill:none;stroke:black;stroke-width:0.04px;"/>
        <path d="M73,2L73,66" style="fill:none;stroke:black;stroke-width:0.04px;"/>
        <path d="M109,2L109,66" style="fill:none;stroke:black;stroke-width:0.04px;"/>
        <path d="M120,2L120,66" style="fill:none;stroke:black;stroke-width:0.04px;"/>
        <path d="M5,2L5,66" style="fill:none;stroke:black;stroke-width:0.04px;"/>
        <path d="M41,2L41,66" style="fill:none;stroke:black;stroke-width:0.04px;"/>
        <path d="M77,2L77,66" style="fill:none;stroke:black;stroke-width:0.04px;"/>
        <path d="M14,2L14,66" style="fill:none;stroke:black;stroke-width:0.04px;"/>
        <path d="M50,2L50,66" style="fill:none;stroke:black;stroke-width:0.04px;"/>
        <path d="M86,2L86,66" style="fill:none;stroke:black;stroke-width:0.04px;"/>
        <path d="M23,2L23,66" style="fill:none;stroke:black;stroke-width:0.04px;"/>
        <path d="M59,2L59,66" style="fill:none;stroke:black;stroke-width:0.04px;"/>
        <path d="M95,2L95,66" style="fill:none;stroke:black;stroke-width:0.04px;"/>
        <path d="M32,2L32,66" style="fill:none;stroke:black;stroke-width:0.04px;"/>
        <path d="M68,2L68,66" style="fill:none;stroke:black;stroke-width:0.04px;"/>
        <path d="M104,2L104,66" style="fill:none;stroke:black;stroke-width:0.04px;"/>
        <path d="M115,2L115,66" style="fill:none;stroke:black;stroke-width:0.04px;"/>
        <path d="M125,2L125,66" style="fill:none;stroke:black;stroke-width:0.04px;"/>
        <path d="M8,2L8,66" style="fill:none;stroke:black;stroke-width:0.04px;"/>
        <path d="M44,2L44,66" style="fill:none;stroke:black;stroke-width:0.04px;"/>
        <path d="M80,2L80,66" style="fill:none;stroke:black;stroke-width:0.04px;"/>
        <path d="M17,2L17,66" style="fill:none;stroke:black;stroke-width:0.04px;"/>
        <path d="M53,2L53,66" style="fill:none;stroke:black;stroke-width:0.04px;"/>
        <path d="M89,2L89,66" style="fill:none;stroke:black;stroke-width:0.04px;"/>
        <path d="M26,2L26,66" style="fill:none;stroke:black;stroke-width:0.04px;"/>
        <path d="M62,2L62,66" style="fill:none;stroke:black;stroke-width:0.04px;"/>
        <path d="M98,2L98,66" style="fill:none;stroke:black;stroke-width:0.04px;"/>
        <path d="M35,2L35,66" style="fill:none;stroke:black;stroke-width:0.04px;"/>
        <path d="M71,2L71,66" style="fill:none;stroke:black;stroke-width:0.04px;"/>
        <path d="M107,2L107,66" style="fill:none;stroke:black;stroke-width:0.04px;"/>
        <path d="M118,2L118,66" style="fill:none;stroke:black;stroke-width:0.04px;"/>
        <path d="M128,2L128,66" style="fill:none;stroke:black;stroke-width:0.04px;"/>
        <path d="M11,2L11,66" style="fill:none;stroke:black;stroke-width:0.04px;"/>
        <path d="M47,2L47,66" style="fill:none;stroke:black;stroke-width:0.04px;"/>
        <path d="M83,2L83,66" style="fill:none;stroke:black;stroke-width:0.04px;"/>
        <path d="M20,2L20,66" style="fill:none;stroke:black;stroke-width:0.04px;"/>
        <path d="M56,2L56,66" style="fill:none;stroke:black;stroke-width:0.04px;"/>
        <path d="M92,2L92,66" style="fill:none;stroke:black;stroke-width:0.04px;"/>
        <path d="M29,2L29,66" style="fill:none;stroke:black;stroke-width:0.04px;"/>
        <path d="M65,2L65,66" style="fill:none;stroke:black;stroke-width:0.04px;"/>
        <path d="M101,2L101,66" style="fill:none;stroke:black;stroke-width:0.04px;"/>
        <path d="M112,2L112,66" style="fill:none;stroke:black;stroke-width:0.04px;"/>
        <path d="M122,2L122,66" style="fill:none;stroke:black;stroke-width:0.04px;"/>
        <path d="M38,2L38,66" style="fill:none;stroke:black;stroke-width:0.04px;"/>
        <path d="M74,2L74,66" style="fill:none;stroke:black;stroke-width:0.04px;"/>
        <path d="M110,2L110,66" style="fill:none;stroke:black;stroke-width:0.04px;"/>
        <path d="M2,3L130,3" style="fill:none;stroke:black;stroke-width:0.04px;"/>
        <path d="M2,19L130,19" style="fill:none;stroke:black;stroke-width:0.04px;"/>
        <path d="M2,35L130,35" style="fill:none;stroke:black;stroke-width:0.04px;"/>
        <path d="M2,51L130,51" style="fill:none;stroke:black;stroke-width:0.04px;"/>
        <path d="M2,7L130,7" style="fill:none;stroke:black;stroke-width:0.04px;"/>
        <path d="M2,23L130,23" style="fill:none;stroke:black;stroke-width:0.04px;"/>
        <path d="M2,39L130,39" style="fill:none;stroke:black;stroke-width:0.04px;"/>
        <path d="M2,55L130,55" style="fill:none;stroke:black;stroke-width:0.04px;"/>
        <path d="M2,11L130,11" style="fill:none;stroke:black;stroke-width:0.04px;"/>
        <path d="M2,27L130,27" style="fill:none;stroke:black;stroke-width:0.04px;"/>
        <path d="M2,43L130,43" style="fill:none;stroke:black;stroke-width:0.04px;"/>
        <path d="M2,59L130,59" style="fill:none;stroke:black;stroke-width:0.04px;"/>
        <path d="M2,15L130,15" style="fill:none;stroke:black;stroke-width:0.04px;"/>
        <path d="M2,31L130,31" style="fill:none;stroke:black;stroke-width:0.04px;"/>
        <path d="M2,47L130,47" style="fill:none;stroke:black;stroke-width:0.04px;"/>
        <path d="M2,63L130,63" style="fill:none;stroke:black;stroke-width:0.04px;"/>
        <path d="M2,4L130,4" style="fill:none;stroke:black;stroke-width:0.04px;"/>
        <path d="M2,20L130,20" style="fill:none;stroke:black;stroke-width:0.04px;"/>
        <path d="M2,36L130,36" style="fill:none;stroke:black;stroke-width:0.04px;"/>
        <path d="M2,52L130,52" style="fill:none;stroke:black;stroke-width:0.04px;"/>
        <path d="M2,8L130,8" style="fill:none;stroke:black;stroke-width:0.04px;"/>
        <path d="M2,24L130,24" style="fill:none;stroke:black;stroke-width:0.04px;"/>
        <path d="M2,40L130,40" style="fill:none;stroke:black;stroke-width:0.04px;"/>
        <path d="M2,56L130,56" style="fill:none;stroke:black;stroke-width:0.04px;"/>
        <path d="M2,12L130,12" style="fill:none;stroke:black;stroke-width:0.04px;"/>
        <path d="M2,28L130,28" style="fill:none;stroke:black;stroke-width:0.04px;"/>
        <path d="M2,44L130,44" style="fill:none;stroke:black;stroke-width:0.04px;"/>
        <path d="M2,60L130,60" style="fill:none;stroke:black;stroke-width:0.04px;"/>
        <path d="M2,16L130,16" style="fill:none;stroke:black;stroke-width:0.04px;"/>
        <path d="M2,32L130,32" style="fill:none;stroke:black;stroke-width:0.04px;"/>
        <path d="M2,48L130,48" style="fill:none;stroke:black;stroke-width:0.04px;"/>
        <path d="M2,64L130,64" style="fill:none;stroke:black;stroke-width:0.04px;"/>
        <path d="M2,5L130,5" style="fill:none;stroke:black;stroke-width:0.04px;"/>
        <path d="M2,21L130,21" style="fill:none;stroke:black;stroke-width:0.04px;"/>
        <path d="M2,37L130,37" style="fill:none;stroke:black;stroke-width:0.04px;"/>
        <path d="M2,53L130,53" style="fill:none;stroke:black;stroke-width:0.04px;"/>
        <path d="M2,9L130,9" style="fill:none;stroke:black;stroke-width:0.04px;"/>
        <path d="M2,25L130,25" style="fill:none;stroke:black;stroke-width:0.04px;"/>
        <path d="M2,41L130,41" style="fill:none;stroke:black;stroke-width:0.04px;"/>
        <path d="M2,57L130,57" style="fill:none;stroke:black;stroke-width:0.04px;"/>
        <path d="M2,13L130,13" style="fill:none;stroke:black;stroke-width:0.04px;"/>
        <path d="M2,29L130,29" style="fill:none;stroke:black;stroke-width:0.04px;"/>
        <path d="M2,45L130,45" style="fill:none;stroke:black;stroke-width:0.04px;"/>
        <path d="M2,61L130,61" style="fill:none;stroke:black;stroke-width:0.04px;"/>
        <path d="M2,17L130,17" style="fill:none;stroke:black;stroke-width:0.04px;"/>
        <path d="M2,33L130,33" style="fill:none;stroke:black;stroke-width:0.04px;"/>
        <path d="M2,49L130,49" style="fill:none;stroke:black;stroke-width:0.04px;"/>
        <path d="M2,65L130,65" style="fill:none;stroke:black;stroke-width:0.04px;"/>
        <path d="M2,6L130,6" style="fill:none;stroke:black;stroke-width:0.04px;"/>
        <path d="M2,22L130,22" style="fill:none;stroke:black;stroke-width:0.04px;"/>
        <path d="M2,38L130,38" style="fill:none;stroke:black;stroke-width:0.04px;"/>
        <path d="M2,54L130,54" style="fill:none;stroke:black;stroke-width:0.04px;"/>
        <path d="M2,10L130,10" style="fill:none;stroke:black;stroke-width:0.04px;"/>
        <path d="M2,26L130,26" style="fill:none;stroke:black;stroke-width:0.04px;"/>
        <path d="M2,42L130,42" style="fill:none;stroke:black;stroke-width:0.04px;"/>
        <path d="M2,58L130,58" style="fill:none;stroke:black;stroke-width:0.04px;"/>
        <path d="M2,14L130,14" style="fill:none;stroke:black;stroke-width:0.04px;"/>
        <path d="M2,30L130,30" style="fill:none;stroke:black;stroke-width:0.04px;"/>
        <path d="M2,46L130,46" style="fill:none;stroke:black;stroke-width:0.04px;"/>
        <path d="M2,62L130,62" style="fill:none;stroke:black;stroke-width:0.04px;"/>
        <path d="M2,18L130,18" style="fill:none;stroke:black;stroke-width:0.04px;"/>
        <path d="M2,34L130,34" style="fill:none;stroke:black;stroke-width:0.04px;"/>
        <path d="M2,50L130,50" style="fill:none;stroke:black;stroke-width:0.04px;"/>
    </g>
    <g id="Dashboard-L" serif:id="Dashboard L">
        <g id="Countdown-under-M-2.1" serif:id="Countdown under M 2.1">
            <rect x="2" y="57" width="29" height="9" style="fill:rgb(205,205,205);"/>
            <path d="M5,63L6,63L6,60L5,60L5,63ZM6,64L8,64L8,63L6,63L6,64ZM6,60L8,60L8,59L6,59L6,60ZM8,63L9,63L9,60L8,60L8,63Z" style="fill-rule:nonzero;"/>
            <path d="M10,64L14,64L14,63L11,63L11,62L10,62L10,64ZM10,60L13,60L13,59L10,59L10,60ZM11,62L13,62L13,61L11,61L11,62ZM13,61L14,61L14,60L13,60L13,61Z" style="fill-rule:nonzero;"/>
            <path d="M15,63L16,63L16,62L15,62L15,63ZM15,61L16,61L16,60L15,60L15,61Z" style="fill-rule:nonzero;"/>
            <path d="M17,64L21,64L21,63L18,63L18,62L17,62L17,64ZM17,60L20,60L20,59L17,59L17,60ZM18,62L20,62L20,61L18,61L18,62ZM20,61L21,61L21,60L20,60L20,61Z" style="fill-rule:nonzero;"/>
            <path d="M22,60L25,60L25,61L26,61L26,59L22,59L22,60ZM23,64L24,64L24,62L23,62L23,64ZM24,62L25,62L25,61L24,61L24,62Z" style="fill-rule:nonzero;"/>
        </g>
        <g id="arranger-dash-M-2.3--inverted" serif:id="arranger dash M 2.3+ inverted">
            <rect x="2" y="32" width="29" height="24" style="fill:rgb(205,205,205);"/>
            <rect x="4" y="41" width="25" height="13"/>
            <path d="M5,35L6,35L6,39L7,39L7,34L5,34L5,35Z" style="fill-rule:nonzero;"/>
            <path id="Arranger-mode-glyph" serif:id="Arranger mode glyph" d="M23,37L24,37L24,35L23,35L23,37ZM24,39L27,39L27,38L24,38L24,39ZM24,35L27,35L27,34L24,34L24,35ZM27,38L28,38L28,36L27,36L27,38Z" style="fill:rgb(76,76,76);fill-rule:nonzero;"/>
            <path id="Arranger-mode-glyph1" serif:id="Arranger mode glyph" d="M23,37L24,37L24,35L23,35L23,37ZM24,39L27,39L27,38L24,38L24,39ZM24,35L27,35L27,34L24,34L24,35ZM27,38L28,38L28,36L27,36L27,38Z" style="fill-rule:nonzero;"/>
            <g id="chart-guts" serif:id="chart guts">
                <rect x="5" y="43" width="1" height="1" style="fill:rgb(76,76,76);"/>
                <rect x="5" y="45" width="1" height="1" style="fill:rgb(76,76,76);"/>
                <rect x="5" y="47" width="1" height="1" style="fill:rgb(76,76,76);"/>
                <rect x="5" y="49" width="1" height="1" style="fill:rgb(76,76,76);"/>
                <rect x="5" y="51" width="1" height="1" style="fill:rgb(76,76,76);"/>
                <rect x="7" y="51" width="8" height="1" style="fill:rgb(76,76,76);"/>
                <rect x="16" y="51" width="4" height="1" style="fill:rgb(76,76,76);"/>
                <rect x="21" y="51" width="4" height="1" style="fill:rgb(205,205,205);"/>
                <rect x="26" y="51" width="2" height="1" style="fill:rgb(76,76,76);"/>
                <rect x="16" y="51" width="1" height="1" style="fill:rgb(205,205,205);"/>
                <rect x="7" y="43" width="8" height="1" style="fill:rgb(205,205,205);"/>
                <rect x="16" y="45" width="4" height="1" style="fill:rgb(205,205,205);"/>
                <rect x="21" y="47" width="4" height="1" style="fill:rgb(205,205,205);"/>
                <rect x="26" y="49" width="2" height="1" style="fill:rgb(205,205,205);"/>
            </g>
        </g>
        <g id="Chord-pattern" serif:id="Chord pattern">
            <rect x="2" y="22" width="29" height="9" style="fill:rgb(205,205,205);"/>
            <path d="M5,29L6,29L6,28L8,28L8,29L9,29L9,25L8,25L8,27L6,27L6,25L5,25L5,29ZM6,25L8,25L8,24L6,24L6,25Z" style="fill-rule:nonzero;"/>
            <rect x="12" y="24" width="16" height="5" style="fill:rgb(128,128,128);"/>
            <rect x="11" y="24" width="18" height="5"/>
            <rect x="12" y="25" width="0" height="3" style="fill:rgb(205,205,205);"/>
            <rect x="12" y="25" width="8" height="3" style="fill:rgb(76,76,76);"/>
            <rect x="11" y="24" width="0" height="5" style="fill:rgb(128,128,128);"/>
        </g>
        <g id="Chord">
            <rect x="2" y="12" width="29" height="9" style="fill:rgb(205,205,205);"/>
            <path id="Chord1" serif:id="Chord" d="M10,18L11,18L11,15L10,15L10,18ZM11,19L13,19L13,18L11,18L11,19ZM11,15L13,15L13,14L11,14L11,15Z" style="fill-rule:nonzero;"/>
            <path d="M14,19L15,19L15,16L16,16L16,19L17,19L17,16L18,16L18,15L14,15L14,19ZM18,19L19,19L19,16L18,16L18,19Z" style="fill-rule:nonzero;"/>
            <path d="M20,15L23,15L23,16L24,16L24,14L20,14L20,15ZM21,19L22,19L22,17L21,17L21,19ZM22,17L23,17L23,16L22,16L22,17Z" style="fill-rule:nonzero;"/>
        </g>
        <g id="Transport">
            <rect x="2" y="2" width="29" height="9" style="fill:rgb(205,205,205);"/>
            <path id="Transport-metro" serif:id="Transport/metro" d="M15,9L17,9L17,8L18,8L18,7L19,7L19,6L18,6L18,5L17,5L17,4L15,4L15,9Z" style="fill-rule:nonzero;"/>
        </g>
    </g>
    <g id="Dash-names" serif:id="Dash names">
        <path id="Transport-metro1" serif:id="Transport/metro" d="M40.43,19L40.43,18.484L37.931,18.484L39.268,17.035C39.393,16.898 39.512,16.761 39.625,16.623C39.738,16.485 39.837,16.345 39.924,16.204C40.008,16.063 40.075,15.92 40.125,15.775C40.176,15.63 40.201,15.484 40.201,15.336C40.201,15.138 40.166,14.954 40.096,14.786C40.027,14.617 39.927,14.471 39.797,14.348C39.667,14.225 39.509,14.129 39.321,14.059C39.133,13.99 38.921,13.955 38.687,13.955C38.431,13.955 38.204,13.996 38.005,14.078C37.805,14.16 37.637,14.271 37.5,14.41C37.361,14.549 37.256,14.711 37.183,14.897C37.11,15.082 37.073,15.28 37.073,15.49L37.709,15.49C37.709,15.335 37.729,15.195 37.769,15.069C37.809,14.944 37.87,14.837 37.952,14.748C38.031,14.661 38.132,14.594 38.254,14.546C38.376,14.499 38.52,14.475 38.687,14.475C38.823,14.475 38.946,14.498 39.054,14.545C39.162,14.591 39.255,14.655 39.333,14.734C39.408,14.814 39.465,14.908 39.505,15.016C39.545,15.125 39.565,15.24 39.565,15.363C39.565,15.464 39.552,15.561 39.527,15.656C39.502,15.75 39.46,15.85 39.401,15.955C39.342,16.062 39.263,16.178 39.165,16.303C39.067,16.429 38.945,16.572 38.799,16.734L37.169,18.545L37.169,19L40.43,19Z" style="fill:white;fill-rule:nonzero;"/>
        <path d="M42.679,18.59C42.679,18.722 42.72,18.834 42.803,18.927C42.887,19.019 43.01,19.065 43.174,19.065C43.336,19.065 43.46,19.019 43.547,18.928C43.633,18.837 43.677,18.724 43.677,18.59C43.677,18.453 43.634,18.337 43.549,18.243C43.463,18.148 43.338,18.101 43.174,18.101C43.008,18.101 42.884,18.149 42.802,18.245C42.72,18.34 42.679,18.455 42.679,18.59Z" style="fill:white;fill-rule:nonzero;"/>
        <path d="M53.203,17.503L52.57,17.503C52.55,17.653 52.514,17.793 52.464,17.922C52.414,18.05 52.347,18.161 52.263,18.255C52.178,18.351 52.075,18.425 51.953,18.477C51.831,18.529 51.687,18.556 51.521,18.556C51.368,18.556 51.235,18.531 51.121,18.482C51.007,18.433 50.908,18.365 50.824,18.279C50.739,18.194 50.67,18.097 50.615,17.985C50.561,17.873 50.516,17.754 50.482,17.626C50.448,17.501 50.423,17.372 50.408,17.241C50.394,17.11 50.386,16.983 50.386,16.86L50.386,16.16C50.386,16.037 50.394,15.91 50.408,15.779C50.423,15.648 50.448,15.519 50.482,15.394C50.516,15.269 50.561,15.15 50.617,15.039C50.673,14.927 50.743,14.829 50.827,14.745C50.909,14.66 51.008,14.594 51.123,14.545C51.238,14.496 51.371,14.471 51.521,14.471C51.687,14.471 51.831,14.499 51.953,14.555C52.075,14.611 52.178,14.688 52.263,14.786C52.347,14.884 52.414,14.998 52.464,15.127C52.514,15.257 52.55,15.397 52.57,15.548L53.203,15.548C53.175,15.311 53.119,15.094 53.033,14.898C52.948,14.702 52.835,14.534 52.693,14.393C52.552,14.254 52.383,14.146 52.188,14.07C51.992,13.993 51.769,13.955 51.521,13.955C51.314,13.955 51.127,13.984 50.96,14.042C50.794,14.1 50.646,14.181 50.516,14.283C50.384,14.386 50.271,14.507 50.176,14.647C50.081,14.787 50.003,14.939 49.942,15.104C49.878,15.268 49.831,15.44 49.8,15.62C49.769,15.8 49.753,15.982 49.75,16.167L49.75,16.86C49.753,17.045 49.769,17.227 49.8,17.407C49.831,17.587 49.878,17.759 49.942,17.923C50.003,18.087 50.081,18.239 50.176,18.378C50.271,18.517 50.384,18.638 50.516,18.74C50.646,18.843 50.795,18.923 50.962,18.981C51.13,19.039 51.316,19.068 51.521,19.068C51.76,19.068 51.977,19.03 52.172,18.954C52.367,18.878 52.536,18.77 52.68,18.631C52.821,18.494 52.936,18.33 53.025,18.137C53.114,17.944 53.173,17.733 53.203,17.503Z" style="fill:white;fill-rule:nonzero;"/>
        <path d="M54.813,15.852L54.813,13.75L54.18,13.75L54.18,19L54.813,19L54.813,16.313C54.858,16.241 54.91,16.174 54.968,16.114C55.026,16.053 55.089,16 55.158,15.955C55.244,15.895 55.339,15.85 55.441,15.818C55.544,15.786 55.652,15.77 55.766,15.77C55.905,15.768 56.028,15.787 56.135,15.826C56.242,15.866 56.331,15.926 56.402,16.006C56.468,16.079 56.518,16.17 56.552,16.281C56.586,16.392 56.604,16.52 56.604,16.666L56.604,19L57.236,19L57.236,16.672C57.236,16.424 57.206,16.209 57.145,16.028C57.085,15.847 56.999,15.697 56.887,15.579C56.776,15.46 56.641,15.373 56.482,15.317C56.324,15.261 56.148,15.233 55.954,15.233C55.806,15.236 55.666,15.257 55.535,15.298C55.404,15.339 55.284,15.4 55.175,15.479C55.106,15.527 55.042,15.583 54.98,15.645C54.918,15.708 54.863,15.777 54.813,15.852Z" style="fill:white;fill-rule:nonzero;"/>
        <path d="M58.203,17.117L58.203,17.192C58.203,17.458 58.242,17.706 58.319,17.934C58.397,18.161 58.508,18.36 58.654,18.528C58.798,18.697 58.974,18.829 59.182,18.925C59.391,19.021 59.626,19.068 59.888,19.068C60.148,19.068 60.382,19.021 60.589,18.925C60.796,18.829 60.973,18.697 61.119,18.528C61.262,18.36 61.373,18.161 61.45,17.934C61.528,17.706 61.566,17.458 61.566,17.192L61.566,17.117C61.566,16.85 61.528,16.602 61.45,16.373C61.373,16.144 61.262,15.945 61.119,15.777C60.973,15.608 60.796,15.476 60.587,15.379C60.379,15.282 60.143,15.233 59.881,15.233C59.622,15.233 59.388,15.282 59.181,15.379C58.973,15.476 58.798,15.608 58.654,15.777C58.508,15.945 58.397,16.144 58.319,16.373C58.242,16.602 58.203,16.85 58.203,17.117ZM58.835,17.192L58.835,17.117C58.835,16.937 58.857,16.764 58.9,16.599C58.944,16.434 59.01,16.288 59.099,16.163C59.185,16.038 59.293,15.938 59.423,15.864C59.553,15.79 59.706,15.753 59.881,15.753C60.057,15.753 60.21,15.79 60.341,15.864C60.472,15.938 60.582,16.038 60.671,16.163C60.757,16.288 60.823,16.434 60.867,16.599C60.912,16.764 60.934,16.937 60.934,17.117L60.934,17.192C60.934,17.374 60.912,17.548 60.869,17.713C60.826,17.878 60.761,18.024 60.674,18.149C60.585,18.274 60.476,18.373 60.344,18.446C60.213,18.519 60.061,18.556 59.888,18.556C59.713,18.556 59.559,18.519 59.427,18.446C59.295,18.373 59.185,18.274 59.099,18.149C59.01,18.024 58.944,17.878 58.9,17.713C58.857,17.548 58.835,17.374 58.835,17.192Z" style="fill:white;fill-rule:nonzero;"/>
        <path d="M65.005,15.233C64.736,15.233 64.496,15.292 64.285,15.409C64.075,15.527 63.894,15.687 63.744,15.89L63.74,15.797L63.713,15.302L63.111,15.302L63.111,19L63.747,19L63.747,16.628C63.788,16.514 63.84,16.411 63.903,16.319C63.965,16.226 64.039,16.148 64.123,16.084C64.216,16.012 64.326,15.956 64.451,15.919C64.576,15.881 64.717,15.862 64.872,15.862C64.992,15.862 65.108,15.869 65.219,15.881C65.329,15.894 65.446,15.914 65.569,15.941L65.654,15.322C65.59,15.295 65.495,15.273 65.369,15.257C65.242,15.241 65.121,15.233 65.005,15.233Z" style="fill:white;fill-rule:nonzero;"/>
        <path d="M66.663,17.12L66.663,17.192C66.663,17.456 66.698,17.703 66.769,17.932C66.839,18.161 66.938,18.36 67.066,18.528C67.194,18.697 67.348,18.829 67.529,18.925C67.71,19.021 67.912,19.068 68.136,19.068C68.364,19.068 68.563,19.03 68.734,18.952C68.905,18.875 69.052,18.761 69.175,18.61L69.202,19L69.783,19L69.783,13.75L69.151,13.75L69.151,15.667C69.03,15.526 68.887,15.419 68.722,15.344C68.557,15.27 68.364,15.233 68.143,15.233C67.917,15.233 67.713,15.28 67.531,15.374C67.348,15.467 67.194,15.597 67.066,15.763C66.936,15.93 66.836,16.128 66.767,16.36C66.697,16.591 66.663,16.844 66.663,17.12ZM67.295,17.192L67.295,17.12C67.295,16.94 67.314,16.769 67.353,16.606C67.392,16.443 67.452,16.299 67.534,16.173C67.614,16.05 67.717,15.952 67.844,15.879C67.97,15.806 68.122,15.77 68.3,15.77C68.507,15.77 68.68,15.818 68.819,15.915C68.958,16.012 69.069,16.136 69.151,16.286L69.151,18.002C69.069,18.164 68.958,18.292 68.819,18.388C68.68,18.484 68.505,18.532 68.293,18.532C68.118,18.532 67.967,18.496 67.842,18.424C67.716,18.352 67.614,18.255 67.534,18.132C67.452,18.009 67.392,17.866 67.353,17.705C67.314,17.543 67.295,17.372 67.295,17.192Z" style="fill:white;fill-rule:nonzero;"/>
        <path d="M75.184,19L75.816,19L75.816,16.348C75.859,16.268 75.91,16.195 75.968,16.129C76.026,16.063 76.089,16.005 76.158,15.955C76.242,15.898 76.334,15.853 76.435,15.82C76.535,15.787 76.643,15.77 76.759,15.77C76.894,15.77 77.013,15.786 77.116,15.818C77.22,15.85 77.308,15.901 77.381,15.972C77.452,16.042 77.506,16.135 77.542,16.249C77.578,16.362 77.597,16.501 77.597,16.666L77.597,19L78.229,19L78.229,16.652C78.229,16.406 78.199,16.193 78.138,16.014C78.078,15.836 77.992,15.688 77.88,15.572C77.769,15.456 77.634,15.37 77.475,15.315C77.317,15.261 77.141,15.233 76.947,15.233C76.804,15.236 76.668,15.257 76.539,15.297C76.41,15.337 76.291,15.393 76.182,15.466C76.109,15.514 76.04,15.57 75.975,15.635C75.91,15.7 75.85,15.771 75.795,15.849L75.751,15.302L75.184,15.302L75.184,19Z" style="fill:white;fill-rule:nonzero;"/>
        <path d="M81.814,19L82.474,19L82.474,18.945C82.433,18.843 82.401,18.723 82.378,18.585C82.356,18.447 82.344,18.316 82.344,18.193L82.344,16.474C82.344,16.267 82.307,16.086 82.231,15.931C82.156,15.776 82.054,15.646 81.924,15.541C81.792,15.438 81.636,15.362 81.456,15.31C81.276,15.259 81.081,15.233 80.871,15.233C80.641,15.233 80.435,15.265 80.254,15.329C80.073,15.393 79.92,15.476 79.794,15.579C79.667,15.683 79.569,15.801 79.502,15.931C79.435,16.061 79.4,16.193 79.398,16.327L80.034,16.327C80.034,16.25 80.052,16.175 80.09,16.103C80.128,16.031 80.181,15.969 80.249,15.917C80.317,15.865 80.401,15.822 80.5,15.791C80.599,15.759 80.712,15.743 80.837,15.743C80.971,15.743 81.093,15.76 81.201,15.794C81.309,15.828 81.401,15.876 81.476,15.938C81.551,16.001 81.609,16.078 81.65,16.167C81.691,16.255 81.712,16.356 81.712,16.467L81.712,16.758L81.021,16.758C80.764,16.758 80.531,16.783 80.323,16.833C80.114,16.883 79.936,16.958 79.788,17.059C79.639,17.161 79.525,17.289 79.444,17.441C79.363,17.594 79.323,17.772 79.323,17.975C79.323,18.13 79.353,18.274 79.413,18.407C79.474,18.54 79.56,18.655 79.671,18.75C79.781,18.848 79.915,18.926 80.073,18.983C80.231,19.04 80.409,19.068 80.604,19.068C80.725,19.068 80.839,19.056 80.946,19.031C81.053,19.006 81.155,18.972 81.25,18.928C81.344,18.885 81.43,18.835 81.509,18.778C81.587,18.721 81.658,18.66 81.722,18.597C81.729,18.674 81.74,18.749 81.755,18.821C81.769,18.892 81.789,18.952 81.814,19ZM80.697,18.518C80.574,18.518 80.465,18.502 80.372,18.47C80.279,18.438 80.201,18.394 80.14,18.337C80.078,18.282 80.032,18.216 80.001,18.139C79.97,18.061 79.955,17.977 79.955,17.886C79.955,17.79 79.973,17.705 80.008,17.629C80.043,17.554 80.095,17.489 80.164,17.435C80.259,17.357 80.389,17.3 80.552,17.262C80.714,17.224 80.905,17.206 81.124,17.206L81.712,17.206L81.712,17.954C81.675,18.027 81.625,18.097 81.562,18.164C81.498,18.232 81.423,18.291 81.336,18.344C81.247,18.396 81.149,18.438 81.042,18.47C80.935,18.502 80.82,18.518 80.697,18.518Z" style="fill:white;fill-rule:nonzero;"/>
        <path d="M83.875,15.302L83.308,15.302L83.308,19L83.91,19L83.91,16.057C83.923,16.021 83.941,15.986 83.963,15.955C83.984,15.923 84.01,15.894 84.04,15.869C84.078,15.837 84.126,15.813 84.181,15.796C84.237,15.779 84.303,15.77 84.378,15.77C84.446,15.77 84.506,15.779 84.557,15.796C84.609,15.813 84.651,15.84 84.686,15.876C84.722,15.915 84.749,15.964 84.766,16.023C84.783,16.082 84.792,16.151 84.792,16.228L84.792,19L85.393,19L85.393,16.163C85.4,16.106 85.414,16.054 85.434,16.008C85.455,15.961 85.483,15.919 85.52,15.883C85.556,15.849 85.602,15.821 85.656,15.801C85.711,15.78 85.776,15.77 85.851,15.77C85.922,15.77 85.984,15.779 86.037,15.797C86.091,15.816 86.136,15.843 86.172,15.879C86.207,15.918 86.233,15.967 86.251,16.026C86.269,16.086 86.278,16.154 86.278,16.231L86.278,19L86.88,19L86.88,16.238C86.88,16.061 86.859,15.906 86.818,15.775C86.777,15.644 86.718,15.538 86.641,15.456C86.57,15.383 86.483,15.327 86.381,15.29C86.278,15.252 86.163,15.233 86.036,15.233C85.942,15.236 85.856,15.248 85.778,15.271C85.699,15.294 85.628,15.325 85.564,15.363C85.514,15.397 85.467,15.437 85.424,15.483C85.381,15.528 85.343,15.577 85.311,15.63C85.286,15.573 85.256,15.522 85.22,15.476C85.185,15.431 85.146,15.392 85.103,15.36C85.043,15.319 84.974,15.288 84.896,15.266C84.817,15.244 84.729,15.233 84.631,15.233C84.458,15.236 84.31,15.273 84.188,15.346C84.066,15.419 83.968,15.521 83.893,15.65L83.875,15.302Z" style="fill:white;fill-rule:nonzero;"/>
        <path d="M89.419,19.068C89.779,19.068 90.082,18.996 90.327,18.851C90.572,18.707 90.756,18.541 90.879,18.354L90.493,18.053C90.376,18.204 90.231,18.324 90.055,18.416C89.88,18.507 89.679,18.552 89.454,18.552C89.283,18.552 89.127,18.52 88.985,18.457C88.844,18.393 88.723,18.305 88.623,18.193C88.525,18.089 88.448,17.968 88.392,17.831C88.337,17.694 88.301,17.536 88.285,17.356L88.285,17.332L90.927,17.332L90.927,17.048C90.927,16.791 90.894,16.552 90.829,16.331C90.764,16.11 90.666,15.917 90.534,15.753C90.402,15.591 90.236,15.464 90.036,15.372C89.837,15.28 89.604,15.233 89.337,15.233C89.125,15.233 88.919,15.277 88.717,15.363C88.515,15.45 88.336,15.574 88.179,15.736C88.019,15.9 87.892,16.1 87.796,16.336C87.7,16.572 87.652,16.839 87.652,17.137L87.652,17.281C87.652,17.538 87.696,17.776 87.782,17.995C87.869,18.214 87.99,18.403 88.145,18.563C88.299,18.722 88.486,18.846 88.703,18.935C88.921,19.024 89.16,19.068 89.419,19.068ZM89.337,15.753C89.499,15.753 89.639,15.783 89.756,15.842C89.873,15.901 89.971,15.979 90.048,16.074C90.126,16.17 90.186,16.283 90.229,16.414C90.273,16.545 90.294,16.668 90.294,16.782L90.294,16.813L88.305,16.813C88.33,16.642 88.374,16.491 88.437,16.36C88.499,16.229 88.576,16.118 88.667,16.026C88.759,15.938 88.861,15.87 88.975,15.823C89.089,15.776 89.21,15.753 89.337,15.753Z" style="fill:white;fill-rule:nonzero;"/>
        <path id="Transport-metro2" serif:id="Transport/metro" d="M38.116,26.208L38.116,26.72L38.567,26.72C38.724,26.72 38.868,26.738 38.999,26.775C39.13,26.811 39.243,26.867 39.336,26.942C39.427,27.018 39.498,27.112 39.55,27.224C39.601,27.337 39.626,27.471 39.626,27.626C39.626,27.783 39.604,27.919 39.56,28.034C39.515,28.149 39.452,28.246 39.37,28.323C39.288,28.401 39.189,28.458 39.073,28.496C38.957,28.533 38.827,28.552 38.683,28.552C38.54,28.552 38.409,28.532 38.292,28.491C38.174,28.45 38.075,28.392 37.993,28.316C37.911,28.241 37.847,28.15 37.803,28.043C37.759,27.936 37.736,27.817 37.736,27.688L37.104,27.688C37.104,27.906 37.146,28.101 37.229,28.272C37.312,28.443 37.424,28.588 37.565,28.706C37.707,28.825 37.874,28.915 38.066,28.976C38.259,29.038 38.464,29.068 38.683,29.068C38.906,29.068 39.114,29.036 39.307,28.971C39.499,28.906 39.666,28.811 39.808,28.686C39.949,28.563 40.059,28.411 40.139,28.231C40.219,28.051 40.259,27.845 40.259,27.612C40.259,27.498 40.246,27.383 40.219,27.267C40.193,27.151 40.148,27.04 40.084,26.936C40.018,26.831 39.931,26.736 39.823,26.652C39.715,26.568 39.58,26.499 39.418,26.447C39.552,26.39 39.668,26.319 39.765,26.233C39.862,26.148 39.941,26.056 40.002,25.958C40.064,25.862 40.11,25.763 40.139,25.661C40.169,25.558 40.184,25.459 40.184,25.363C40.184,25.133 40.147,24.93 40.074,24.755C40.001,24.579 39.899,24.432 39.767,24.314C39.634,24.195 39.476,24.106 39.292,24.046C39.107,23.985 38.903,23.955 38.68,23.955C38.45,23.955 38.24,23.991 38.052,24.063C37.865,24.135 37.703,24.232 37.569,24.355C37.434,24.48 37.33,24.627 37.256,24.794C37.182,24.962 37.145,25.14 37.145,25.329L37.781,25.329C37.781,25.199 37.802,25.082 37.846,24.977C37.889,24.872 37.951,24.782 38.03,24.707C38.108,24.632 38.202,24.574 38.312,24.534C38.423,24.495 38.545,24.475 38.68,24.475C38.819,24.475 38.942,24.492 39.051,24.528C39.159,24.563 39.249,24.616 39.322,24.687C39.397,24.759 39.454,24.851 39.493,24.962C39.532,25.072 39.551,25.201 39.551,25.35C39.551,25.475 39.53,25.59 39.486,25.695C39.443,25.8 39.38,25.89 39.298,25.965C39.214,26.04 39.111,26.099 38.989,26.143C38.867,26.186 38.726,26.208 38.567,26.208L38.116,26.208Z" style="fill:white;fill-rule:nonzero;"/>
        <path d="M42.679,28.59C42.679,28.722 42.72,28.834 42.803,28.927C42.887,29.019 43.01,29.065 43.174,29.065C43.336,29.065 43.46,29.019 43.547,28.928C43.633,28.837 43.677,28.724 43.677,28.59C43.677,28.453 43.634,28.337 43.549,28.243C43.463,28.148 43.338,28.101 43.174,28.101C43.008,28.101 42.884,28.149 42.802,28.245C42.72,28.34 42.679,28.455 42.679,28.59Z" style="fill:white;fill-rule:nonzero;"/>
        <path d="M53.203,27.503L52.57,27.503C52.55,27.653 52.514,27.793 52.464,27.922C52.414,28.05 52.347,28.161 52.263,28.255C52.178,28.351 52.075,28.425 51.953,28.477C51.831,28.529 51.687,28.556 51.521,28.556C51.368,28.556 51.235,28.531 51.121,28.482C51.007,28.433 50.908,28.365 50.824,28.279C50.739,28.194 50.67,28.097 50.615,27.985C50.561,27.873 50.516,27.754 50.482,27.626C50.448,27.501 50.423,27.372 50.408,27.241C50.394,27.11 50.386,26.983 50.386,26.86L50.386,26.16C50.386,26.037 50.394,25.91 50.408,25.779C50.423,25.648 50.448,25.519 50.482,25.394C50.516,25.269 50.561,25.15 50.617,25.039C50.673,24.927 50.743,24.829 50.827,24.745C50.909,24.66 51.008,24.594 51.123,24.545C51.238,24.496 51.371,24.471 51.521,24.471C51.687,24.471 51.831,24.499 51.953,24.555C52.075,24.611 52.178,24.688 52.263,24.786C52.347,24.884 52.414,24.998 52.464,25.127C52.514,25.257 52.55,25.397 52.57,25.548L53.203,25.548C53.175,25.311 53.119,25.094 53.033,24.898C52.948,24.702 52.835,24.534 52.693,24.393C52.552,24.254 52.383,24.146 52.188,24.07C51.992,23.993 51.769,23.955 51.521,23.955C51.314,23.955 51.127,23.984 50.96,24.042C50.794,24.1 50.646,24.181 50.516,24.283C50.384,24.386 50.271,24.507 50.176,24.647C50.081,24.787 50.003,24.939 49.942,25.104C49.878,25.268 49.831,25.44 49.8,25.62C49.769,25.8 49.753,25.982 49.75,26.167L49.75,26.86C49.753,27.045 49.769,27.227 49.8,27.407C49.831,27.587 49.878,27.759 49.942,27.923C50.003,28.087 50.081,28.239 50.176,28.378C50.271,28.517 50.384,28.638 50.516,28.74C50.646,28.843 50.795,28.923 50.962,28.981C51.13,29.039 51.316,29.068 51.521,29.068C51.76,29.068 51.977,29.03 52.172,28.954C52.367,28.878 52.536,28.77 52.68,28.631C52.821,28.494 52.936,28.33 53.025,28.137C53.114,27.944 53.173,27.733 53.203,27.503Z" style="fill:white;fill-rule:nonzero;"/>
        <path d="M54.813,25.852L54.813,23.75L54.18,23.75L54.18,29L54.813,29L54.813,26.313C54.858,26.241 54.91,26.174 54.968,26.114C55.026,26.053 55.089,26 55.158,25.955C55.244,25.895 55.339,25.85 55.441,25.818C55.544,25.786 55.652,25.77 55.766,25.77C55.905,25.768 56.028,25.787 56.135,25.826C56.242,25.866 56.331,25.926 56.402,26.006C56.468,26.079 56.518,26.17 56.552,26.281C56.586,26.392 56.604,26.52 56.604,26.666L56.604,29L57.236,29L57.236,26.672C57.236,26.424 57.206,26.209 57.145,26.028C57.085,25.847 56.999,25.697 56.887,25.579C56.776,25.46 56.641,25.373 56.482,25.317C56.324,25.261 56.148,25.233 55.954,25.233C55.806,25.236 55.666,25.257 55.535,25.298C55.404,25.339 55.284,25.4 55.175,25.479C55.106,25.527 55.042,25.583 54.98,25.645C54.918,25.708 54.863,25.777 54.813,25.852Z" style="fill:white;fill-rule:nonzero;"/>
        <path d="M58.203,27.117L58.203,27.192C58.203,27.458 58.242,27.706 58.319,27.934C58.397,28.161 58.508,28.36 58.654,28.528C58.798,28.697 58.974,28.829 59.182,28.925C59.391,29.021 59.626,29.068 59.888,29.068C60.148,29.068 60.382,29.021 60.589,28.925C60.796,28.829 60.973,28.697 61.119,28.528C61.262,28.36 61.373,28.161 61.45,27.934C61.528,27.706 61.566,27.458 61.566,27.192L61.566,27.117C61.566,26.85 61.528,26.602 61.45,26.373C61.373,26.144 61.262,25.945 61.119,25.777C60.973,25.608 60.796,25.476 60.587,25.379C60.379,25.282 60.143,25.233 59.881,25.233C59.622,25.233 59.388,25.282 59.181,25.379C58.973,25.476 58.798,25.608 58.654,25.777C58.508,25.945 58.397,26.144 58.319,26.373C58.242,26.602 58.203,26.85 58.203,27.117ZM58.835,27.192L58.835,27.117C58.835,26.937 58.857,26.764 58.9,26.599C58.944,26.434 59.01,26.288 59.099,26.163C59.185,26.038 59.293,25.938 59.423,25.864C59.553,25.79 59.706,25.753 59.881,25.753C60.057,25.753 60.21,25.79 60.341,25.864C60.472,25.938 60.582,26.038 60.671,26.163C60.757,26.288 60.823,26.434 60.867,26.599C60.912,26.764 60.934,26.937 60.934,27.117L60.934,27.192C60.934,27.374 60.912,27.548 60.869,27.713C60.826,27.878 60.761,28.024 60.674,28.149C60.585,28.274 60.476,28.373 60.344,28.446C60.213,28.519 60.061,28.556 59.888,28.556C59.713,28.556 59.559,28.519 59.427,28.446C59.295,28.373 59.185,28.274 59.099,28.149C59.01,28.024 58.944,27.878 58.9,27.713C58.857,27.548 58.835,27.374 58.835,27.192Z" style="fill:white;fill-rule:nonzero;"/>
        <path d="M65.005,25.233C64.736,25.233 64.496,25.292 64.285,25.409C64.075,25.527 63.894,25.687 63.744,25.89L63.74,25.797L63.713,25.302L63.111,25.302L63.111,29L63.747,29L63.747,26.628C63.788,26.514 63.84,26.411 63.903,26.319C63.965,26.226 64.039,26.148 64.123,26.084C64.216,26.012 64.326,25.956 64.451,25.919C64.576,25.881 64.717,25.862 64.872,25.862C64.992,25.862 65.108,25.869 65.219,25.881C65.329,25.894 65.446,25.914 65.569,25.941L65.654,25.322C65.59,25.295 65.495,25.273 65.369,25.257C65.242,25.241 65.121,25.233 65.005,25.233Z" style="fill:white;fill-rule:nonzero;"/>
        <path d="M66.663,27.12L66.663,27.192C66.663,27.456 66.698,27.703 66.769,27.932C66.839,28.161 66.938,28.36 67.066,28.528C67.194,28.697 67.348,28.829 67.529,28.925C67.71,29.021 67.912,29.068 68.136,29.068C68.364,29.068 68.563,29.03 68.734,28.952C68.905,28.875 69.052,28.761 69.175,28.61L69.202,29L69.783,29L69.783,23.75L69.151,23.75L69.151,25.667C69.03,25.526 68.887,25.419 68.722,25.344C68.557,25.27 68.364,25.233 68.143,25.233C67.917,25.233 67.713,25.28 67.531,25.374C67.348,25.467 67.194,25.597 67.066,25.763C66.936,25.93 66.836,26.128 66.767,26.36C66.697,26.591 66.663,26.844 66.663,27.12ZM67.295,27.192L67.295,27.12C67.295,26.94 67.314,26.769 67.353,26.606C67.392,26.443 67.452,26.299 67.534,26.173C67.614,26.05 67.717,25.952 67.844,25.879C67.97,25.806 68.122,25.77 68.3,25.77C68.507,25.77 68.68,25.818 68.819,25.915C68.958,26.012 69.069,26.136 69.151,26.286L69.151,28.002C69.069,28.164 68.958,28.292 68.819,28.388C68.68,28.484 68.505,28.532 68.293,28.532C68.118,28.532 67.967,28.496 67.842,28.424C67.716,28.352 67.614,28.255 67.534,28.132C67.452,28.009 67.392,27.866 67.353,27.705C67.314,27.543 67.295,27.372 67.295,27.192Z" style="fill:white;fill-rule:nonzero;"/>
        <path d="M75.18,30.422L75.813,30.422L75.813,28.645C75.858,28.695 75.907,28.741 75.959,28.783C76.012,28.825 76.068,28.863 76.127,28.897C76.225,28.952 76.335,28.994 76.457,29.024C76.579,29.054 76.71,29.068 76.852,29.068C77.084,29.068 77.291,29.021 77.472,28.925C77.653,28.829 77.805,28.697 77.928,28.528C78.051,28.36 78.145,28.161 78.208,27.932C78.272,27.703 78.304,27.456 78.304,27.192L78.304,27.12C78.304,26.844 78.272,26.591 78.208,26.36C78.145,26.128 78.051,25.93 77.928,25.763C77.805,25.597 77.653,25.467 77.47,25.374C77.288,25.28 77.078,25.233 76.841,25.233C76.707,25.233 76.581,25.248 76.464,25.276C76.346,25.305 76.24,25.346 76.144,25.401C76.076,25.437 76.012,25.481 75.953,25.532C75.893,25.584 75.839,25.641 75.789,25.705L75.758,25.302L75.18,25.302L75.18,30.422ZM77.672,27.12L77.672,27.192C77.672,27.372 77.652,27.544 77.612,27.708C77.572,27.872 77.511,28.017 77.429,28.142C77.347,28.267 77.242,28.367 77.115,28.441C76.987,28.515 76.836,28.552 76.66,28.552C76.551,28.552 76.451,28.539 76.361,28.511C76.271,28.484 76.19,28.446 76.117,28.398C76.053,28.357 75.996,28.307 75.946,28.248C75.896,28.189 75.851,28.125 75.813,28.057L75.813,26.276C75.856,26.198 75.906,26.128 75.963,26.064C76.02,26 76.085,25.947 76.158,25.903C76.224,25.86 76.298,25.827 76.382,25.804C76.465,25.781 76.555,25.77 76.653,25.77C76.831,25.77 76.984,25.806 77.111,25.879C77.239,25.952 77.345,26.05 77.429,26.173C77.511,26.299 77.572,26.443 77.612,26.606C77.652,26.769 77.672,26.94 77.672,27.12Z" style="fill:white;fill-rule:nonzero;"/>
        <path d="M81.814,29L82.474,29L82.474,28.945C82.433,28.843 82.401,28.723 82.378,28.585C82.356,28.447 82.344,28.316 82.344,28.193L82.344,26.474C82.344,26.267 82.307,26.086 82.231,25.931C82.156,25.776 82.054,25.646 81.924,25.541C81.792,25.438 81.636,25.362 81.456,25.31C81.276,25.259 81.081,25.233 80.871,25.233C80.641,25.233 80.435,25.265 80.254,25.329C80.073,25.393 79.92,25.476 79.794,25.579C79.667,25.683 79.569,25.801 79.502,25.931C79.435,26.061 79.4,26.193 79.398,26.327L80.034,26.327C80.034,26.25 80.052,26.175 80.09,26.103C80.128,26.031 80.181,25.969 80.249,25.917C80.317,25.865 80.401,25.822 80.5,25.791C80.599,25.759 80.712,25.743 80.837,25.743C80.971,25.743 81.093,25.76 81.201,25.794C81.309,25.828 81.401,25.876 81.476,25.938C81.551,26.001 81.609,26.078 81.65,26.167C81.691,26.255 81.712,26.356 81.712,26.467L81.712,26.758L81.021,26.758C80.764,26.758 80.531,26.783 80.323,26.833C80.114,26.883 79.936,26.958 79.788,27.059C79.639,27.161 79.525,27.289 79.444,27.441C79.363,27.594 79.323,27.772 79.323,27.975C79.323,28.13 79.353,28.274 79.413,28.407C79.474,28.54 79.56,28.655 79.671,28.75C79.781,28.848 79.915,28.926 80.073,28.983C80.231,29.04 80.409,29.068 80.604,29.068C80.725,29.068 80.839,29.056 80.946,29.031C81.053,29.006 81.155,28.972 81.25,28.928C81.344,28.885 81.43,28.835 81.509,28.778C81.587,28.721 81.658,28.66 81.722,28.597C81.729,28.674 81.74,28.749 81.755,28.821C81.769,28.892 81.789,28.952 81.814,29ZM80.697,28.518C80.574,28.518 80.465,28.502 80.372,28.47C80.279,28.438 80.201,28.394 80.14,28.337C80.078,28.282 80.032,28.216 80.001,28.139C79.97,28.061 79.955,27.977 79.955,27.886C79.955,27.79 79.973,27.705 80.008,27.629C80.043,27.554 80.095,27.489 80.164,27.435C80.259,27.357 80.389,27.3 80.552,27.262C80.714,27.224 80.905,27.206 81.124,27.206L81.712,27.206L81.712,27.954C81.675,28.027 81.625,28.097 81.562,28.164C81.498,28.232 81.423,28.291 81.336,28.344C81.247,28.396 81.149,28.438 81.042,28.47C80.935,28.502 80.82,28.518 80.697,28.518Z" style="fill:white;fill-rule:nonzero;"/>
        <path d="M85.082,24.406L84.446,24.406L84.446,25.302L83.476,25.302L83.476,25.791L84.446,25.791L84.446,27.8C84.446,28.028 84.476,28.222 84.537,28.383C84.597,28.544 84.68,28.674 84.785,28.774C84.889,28.877 85.013,28.952 85.156,28.998C85.298,29.045 85.451,29.068 85.615,29.068C85.713,29.068 85.812,29.064 85.911,29.055C86.01,29.046 86.104,29.032 86.193,29.014C86.282,28.998 86.364,28.978 86.439,28.954C86.514,28.93 86.578,28.902 86.63,28.87L86.542,28.422C86.503,28.431 86.453,28.442 86.393,28.455C86.332,28.467 86.268,28.479 86.2,28.491C86.129,28.502 86.057,28.512 85.984,28.52C85.911,28.528 85.841,28.532 85.772,28.532C85.679,28.532 85.591,28.52 85.508,28.498C85.424,28.475 85.351,28.435 85.287,28.378C85.223,28.323 85.173,28.249 85.137,28.156C85.1,28.062 85.082,27.944 85.082,27.8L85.082,25.791L86.49,25.791L86.49,25.302L85.082,25.302L85.082,24.406Z" style="fill:white;fill-rule:nonzero;"/>
        <path d="M89.283,24.406L88.647,24.406L88.647,25.302L87.676,25.302L87.676,25.791L88.647,25.791L88.647,27.8C88.647,28.028 88.677,28.222 88.738,28.383C88.798,28.544 88.881,28.674 88.985,28.774C89.09,28.877 89.214,28.952 89.356,28.998C89.499,29.045 89.652,29.068 89.816,29.068C89.914,29.068 90.012,29.064 90.112,29.055C90.211,29.046 90.305,29.032 90.394,29.014C90.482,28.998 90.564,28.978 90.64,28.954C90.715,28.93 90.779,28.902 90.831,28.87L90.742,28.422C90.703,28.431 90.654,28.442 90.594,28.455C90.533,28.467 90.469,28.479 90.4,28.491C90.33,28.502 90.258,28.512 90.185,28.52C90.112,28.528 90.042,28.532 89.973,28.532C89.88,28.532 89.791,28.52 89.708,28.498C89.625,28.475 89.552,28.435 89.488,28.378C89.424,28.323 89.374,28.249 89.337,28.156C89.301,28.062 89.283,27.944 89.283,27.8L89.283,25.791L90.691,25.791L90.691,25.302L89.283,25.302L89.283,24.406Z" style="fill:white;fill-rule:nonzero;"/>
        <path d="M93.62,29.068C93.98,29.068 94.283,28.996 94.528,28.851C94.773,28.707 94.957,28.541 95.08,28.354L94.693,28.053C94.577,28.204 94.431,28.324 94.256,28.416C94.08,28.507 93.88,28.552 93.654,28.552C93.483,28.552 93.327,28.52 93.186,28.457C93.045,28.393 92.924,28.305 92.824,28.193C92.726,28.089 92.649,27.968 92.593,27.831C92.537,27.694 92.501,27.536 92.485,27.356L92.485,27.332L95.127,27.332L95.127,27.048C95.127,26.791 95.095,26.552 95.03,26.331C94.965,26.11 94.867,25.917 94.734,25.753C94.602,25.591 94.436,25.464 94.237,25.372C94.038,25.28 93.805,25.233 93.538,25.233C93.326,25.233 93.119,25.277 92.918,25.363C92.716,25.45 92.537,25.574 92.379,25.736C92.22,25.9 92.092,26.1 91.997,26.336C91.901,26.572 91.853,26.839 91.853,27.137L91.853,27.281C91.853,27.538 91.896,27.776 91.983,27.995C92.069,28.214 92.19,28.403 92.345,28.563C92.5,28.722 92.686,28.846 92.904,28.935C93.122,29.024 93.36,29.068 93.62,29.068ZM93.538,25.753C93.7,25.753 93.839,25.783 93.957,25.842C94.074,25.901 94.172,25.979 94.249,26.074C94.326,26.17 94.387,26.283 94.43,26.414C94.473,26.545 94.495,26.668 94.495,26.782L94.495,26.813L92.506,26.813C92.531,26.642 92.575,26.491 92.637,26.36C92.7,26.229 92.777,26.118 92.868,26.026C92.959,25.938 93.062,25.87 93.176,25.823C93.29,25.776 93.41,25.753 93.538,25.753Z" style="fill:white;fill-rule:nonzero;"/>
        <path d="M98.61,25.233C98.341,25.233 98.102,25.292 97.891,25.409C97.68,25.527 97.5,25.687 97.349,25.89L97.346,25.797L97.318,25.302L96.717,25.302L96.717,29L97.353,29L97.353,26.628C97.394,26.514 97.445,26.411 97.508,26.319C97.571,26.226 97.644,26.148 97.729,26.084C97.822,26.012 97.931,25.956 98.057,25.919C98.182,25.881 98.322,25.862 98.477,25.862C98.598,25.862 98.713,25.869 98.824,25.881C98.934,25.894 99.051,25.914 99.174,25.941L99.26,25.322C99.196,25.295 99.101,25.273 98.974,25.257C98.848,25.241 98.727,25.233 98.61,25.233Z" style="fill:white;fill-rule:nonzero;"/>
        <path d="M100.388,29L101.02,29L101.02,26.348C101.063,26.268 101.114,26.195 101.172,26.129C101.23,26.063 101.293,26.005 101.362,25.955C101.446,25.898 101.538,25.853 101.639,25.82C101.739,25.787 101.847,25.77 101.963,25.77C102.098,25.77 102.217,25.786 102.321,25.818C102.424,25.85 102.513,25.901 102.585,25.972C102.656,26.042 102.71,26.135 102.746,26.249C102.783,26.362 102.801,26.501 102.801,26.666L102.801,29L103.433,29L103.433,26.652C103.433,26.406 103.403,26.193 103.343,26.014C103.282,25.836 103.196,25.688 103.084,25.572C102.973,25.456 102.838,25.37 102.679,25.315C102.521,25.261 102.345,25.233 102.151,25.233C102.008,25.236 101.872,25.257 101.743,25.297C101.614,25.337 101.495,25.393 101.386,25.466C101.313,25.514 101.244,25.57 101.179,25.635C101.114,25.7 101.054,25.771 101,25.849L100.955,25.302L100.388,25.302L100.388,29Z" style="fill:white;fill-rule:nonzero;"/>
        <path id="Transport-metro3" serif:id="Transport/metro" d="M39.941,37.329L39.941,34.023L39.268,34.023L37.039,37.472L37.039,37.845L39.309,37.845L39.309,39L39.941,39L39.941,37.845L40.635,37.845L40.635,37.329L39.941,37.329ZM37.74,37.329L39.206,35.056L39.309,34.864L39.309,37.329L37.74,37.329Z" style="fill:white;fill-rule:nonzero;"/>
        <path d="M42.679,38.59C42.679,38.722 42.72,38.834 42.803,38.927C42.887,39.019 43.01,39.065 43.174,39.065C43.336,39.065 43.46,39.019 43.547,38.928C43.633,38.837 43.677,38.724 43.677,38.59C43.677,38.453 43.634,38.337 43.549,38.243C43.463,38.148 43.338,38.101 43.174,38.101C43.008,38.101 42.884,38.149 42.802,38.245C42.72,38.34 42.679,38.455 42.679,38.59Z" style="fill:white;fill-rule:nonzero;"/>
        <path d="M52.355,37.711L52.748,39L53.377,39L51.798,34.023L51.268,34.023L49.662,39L50.294,39L50.694,37.711L52.355,37.711ZM50.865,37.161L51.531,35.001L52.188,37.161L50.865,37.161Z" style="fill:white;fill-rule:nonzero;"/>
        <path d="M56.604,35.233C56.335,35.233 56.095,35.292 55.884,35.409C55.673,35.527 55.493,35.687 55.342,35.89L55.339,35.797L55.312,35.302L54.71,35.302L54.71,39L55.346,39L55.346,36.628C55.387,36.514 55.439,36.411 55.501,36.319C55.564,36.226 55.637,36.148 55.722,36.084C55.815,36.012 55.924,35.956 56.05,35.919C56.175,35.881 56.315,35.862 56.47,35.862C56.591,35.862 56.707,35.869 56.817,35.881C56.928,35.894 57.044,35.914 57.167,35.941L57.253,35.322C57.189,35.295 57.094,35.273 56.968,35.257C56.841,35.241 56.72,35.233 56.604,35.233Z" style="fill:white;fill-rule:nonzero;"/>
        <path d="M60.804,35.233C60.535,35.233 60.295,35.292 60.085,35.409C59.874,35.527 59.693,35.687 59.543,35.89L59.54,35.797L59.512,35.302L58.911,35.302L58.911,39L59.546,39L59.546,36.628C59.587,36.514 59.639,36.411 59.702,36.319C59.765,36.226 59.838,36.148 59.922,36.084C60.016,36.012 60.125,35.956 60.25,35.919C60.376,35.881 60.516,35.862 60.671,35.862C60.792,35.862 60.907,35.869 61.018,35.881C61.128,35.894 61.245,35.914 61.368,35.941L61.454,35.322C61.39,35.295 61.295,35.273 61.168,35.257C61.042,35.241 60.92,35.233 60.804,35.233Z" style="fill:white;fill-rule:nonzero;"/>
        <path d="M65.012,39L65.671,39L65.671,38.945C65.63,38.843 65.598,38.723 65.576,38.585C65.553,38.447 65.542,38.316 65.542,38.193L65.542,36.474C65.542,36.267 65.504,36.086 65.429,35.931C65.354,35.776 65.251,35.646 65.121,35.541C64.989,35.438 64.833,35.362 64.653,35.31C64.473,35.259 64.278,35.233 64.068,35.233C63.838,35.233 63.633,35.265 63.451,35.329C63.27,35.393 63.117,35.476 62.992,35.579C62.864,35.683 62.767,35.801 62.699,35.931C62.632,36.061 62.597,36.193 62.595,36.327L63.231,36.327C63.231,36.25 63.25,36.175 63.287,36.103C63.325,36.031 63.378,35.969 63.446,35.917C63.515,35.865 63.598,35.822 63.698,35.791C63.797,35.759 63.909,35.743 64.034,35.743C64.169,35.743 64.29,35.76 64.398,35.794C64.506,35.828 64.598,35.876 64.673,35.938C64.749,36.001 64.807,36.078 64.848,36.167C64.889,36.255 64.909,36.356 64.909,36.467L64.909,36.758L64.219,36.758C63.961,36.758 63.728,36.783 63.52,36.833C63.311,36.883 63.133,36.958 62.985,37.059C62.837,37.161 62.722,37.289 62.641,37.441C62.56,37.594 62.52,37.772 62.52,37.975C62.52,38.13 62.55,38.274 62.611,38.407C62.671,38.54 62.757,38.655 62.869,38.75C62.978,38.848 63.112,38.926 63.27,38.983C63.429,39.04 63.606,39.068 63.802,39.068C63.923,39.068 64.036,39.056 64.144,39.031C64.251,39.006 64.352,38.972 64.448,38.928C64.541,38.885 64.627,38.835 64.706,38.778C64.784,38.721 64.856,38.66 64.919,38.597C64.926,38.674 64.937,38.749 64.952,38.821C64.967,38.892 64.987,38.952 65.012,39ZM63.894,38.518C63.771,38.518 63.663,38.502 63.569,38.47C63.476,38.438 63.398,38.394 63.337,38.337C63.275,38.282 63.229,38.216 63.198,38.139C63.168,38.061 63.152,37.977 63.152,37.886C63.152,37.79 63.17,37.705 63.205,37.629C63.241,37.554 63.292,37.489 63.361,37.435C63.457,37.357 63.586,37.3 63.749,37.262C63.912,37.224 64.103,37.206 64.321,37.206L64.909,37.206L64.909,37.954C64.873,38.027 64.823,38.097 64.759,38.164C64.695,38.232 64.62,38.291 64.533,38.344C64.444,38.396 64.346,38.438 64.239,38.47C64.132,38.502 64.017,38.518 63.894,38.518Z" style="fill:white;fill-rule:nonzero;"/>
        <path d="M66.782,39L67.415,39L67.415,36.348C67.458,36.268 67.509,36.195 67.567,36.129C67.625,36.063 67.688,36.005 67.756,35.955C67.841,35.898 67.933,35.853 68.033,35.82C68.133,35.787 68.242,35.77 68.358,35.77C68.492,35.77 68.611,35.786 68.715,35.818C68.819,35.85 68.907,35.901 68.98,35.972C69.051,36.042 69.104,36.135 69.141,36.249C69.177,36.362 69.195,36.501 69.195,36.666L69.195,39L69.828,39L69.828,36.652C69.828,36.406 69.797,36.193 69.737,36.014C69.677,35.836 69.591,35.688 69.479,35.572C69.367,35.456 69.232,35.37 69.074,35.315C68.916,35.261 68.74,35.233 68.546,35.233C68.402,35.236 68.266,35.257 68.137,35.297C68.009,35.337 67.89,35.393 67.78,35.466C67.707,35.514 67.638,35.57 67.573,35.635C67.509,35.7 67.449,35.771 67.394,35.849L67.35,35.302L66.782,35.302L66.782,39Z" style="fill:white;fill-rule:nonzero;"/>
        <path d="M70.867,37.12L70.867,37.192C70.867,37.456 70.901,37.703 70.969,37.932C71.038,38.161 71.136,38.36 71.263,38.528C71.389,38.697 71.542,38.829 71.725,38.925C71.907,39.021 72.111,39.068 72.336,39.068C72.471,39.068 72.596,39.054 72.712,39.026C72.829,38.997 72.935,38.957 73.03,38.904C73.092,38.87 73.149,38.83 73.203,38.785C73.256,38.739 73.307,38.689 73.355,38.634L73.355,38.952C73.355,39.112 73.332,39.253 73.287,39.376C73.241,39.499 73.176,39.602 73.092,39.684C73.005,39.768 72.902,39.832 72.781,39.875C72.66,39.918 72.524,39.94 72.374,39.94C72.29,39.94 72.205,39.931 72.121,39.914C72.037,39.897 71.952,39.869 71.868,39.831C71.784,39.792 71.701,39.74 71.619,39.675C71.537,39.61 71.457,39.531 71.379,39.438L71.051,39.817C71.136,39.938 71.236,40.039 71.354,40.121C71.471,40.203 71.594,40.268 71.721,40.316C71.847,40.366 71.971,40.402 72.094,40.424C72.217,40.445 72.326,40.456 72.422,40.456C72.654,40.456 72.866,40.422 73.058,40.354C73.249,40.285 73.414,40.185 73.553,40.053C73.69,39.921 73.796,39.76 73.873,39.571C73.949,39.382 73.987,39.165 73.987,38.921L73.987,35.302L73.413,35.302L73.382,35.705C73.339,35.65 73.293,35.6 73.244,35.555C73.195,35.509 73.143,35.469 73.088,35.435C72.988,35.369 72.876,35.319 72.752,35.285C72.628,35.25 72.491,35.233 72.343,35.233C72.113,35.233 71.907,35.28 71.725,35.374C71.542,35.467 71.387,35.597 71.26,35.763C71.132,35.93 71.035,36.128 70.968,36.36C70.9,36.591 70.867,36.844 70.867,37.12ZM71.499,37.192L71.499,37.12C71.499,36.94 71.518,36.769 71.555,36.606C71.593,36.443 71.653,36.299 71.735,36.173C71.815,36.05 71.918,35.952 72.044,35.879C72.171,35.806 72.323,35.77 72.5,35.77C72.605,35.77 72.701,35.783 72.788,35.809C72.874,35.836 72.953,35.871 73.023,35.917C73.094,35.965 73.157,36.021 73.211,36.084C73.266,36.148 73.314,36.219 73.355,36.296L73.355,37.992C73.314,38.071 73.266,38.144 73.211,38.21C73.157,38.277 73.095,38.333 73.027,38.381C72.956,38.429 72.877,38.466 72.789,38.492C72.702,38.519 72.603,38.532 72.494,38.532C72.318,38.532 72.168,38.496 72.042,38.424C71.917,38.352 71.815,38.255 71.735,38.132C71.653,38.009 71.593,37.866 71.555,37.705C71.518,37.543 71.499,37.372 71.499,37.192Z" style="fill:white;fill-rule:nonzero;"/>
        <path d="M76.817,39.068C77.177,39.068 77.48,38.996 77.725,38.851C77.97,38.707 78.154,38.541 78.277,38.354L77.891,38.053C77.774,38.204 77.629,38.324 77.453,38.416C77.278,38.507 77.077,38.552 76.852,38.552C76.681,38.552 76.525,38.52 76.383,38.457C76.242,38.393 76.121,38.305 76.021,38.193C75.923,38.089 75.846,37.968 75.79,37.831C75.734,37.694 75.699,37.536 75.683,37.356L75.683,37.332L78.325,37.332L78.325,37.048C78.325,36.791 78.292,36.552 78.227,36.331C78.162,36.11 78.064,35.917 77.932,35.753C77.799,35.591 77.634,35.464 77.434,35.372C77.235,35.28 77.002,35.233 76.735,35.233C76.523,35.233 76.317,35.277 76.115,35.363C75.913,35.45 75.734,35.574 75.577,35.736C75.417,35.9 75.29,36.1 75.194,36.336C75.098,36.572 75.05,36.839 75.05,37.137L75.05,37.281C75.05,37.538 75.094,37.776 75.18,37.995C75.267,38.214 75.388,38.403 75.542,38.563C75.697,38.722 75.884,38.846 76.101,38.935C76.319,39.024 76.558,39.068 76.817,39.068ZM76.735,35.753C76.897,35.753 77.037,35.783 77.154,35.842C77.271,35.901 77.369,35.979 77.446,36.074C77.524,36.17 77.584,36.283 77.627,36.414C77.671,36.545 77.692,36.668 77.692,36.782L77.692,36.813L75.703,36.813C75.728,36.642 75.772,36.491 75.835,36.36C75.897,36.229 75.974,36.118 76.065,36.026C76.157,35.938 76.259,35.87 76.373,35.823C76.487,35.776 76.608,35.753 76.735,35.753Z" style="fill:white;fill-rule:nonzero;"/>
        <path d="M81.808,35.233C81.539,35.233 81.299,35.292 81.088,35.409C80.877,35.527 80.697,35.687 80.546,35.89L80.543,35.797L80.516,35.302L79.914,35.302L79.914,39L80.55,39L80.55,36.628C80.591,36.514 80.643,36.411 80.705,36.319C80.768,36.226 80.841,36.148 80.926,36.084C81.019,36.012 81.129,35.956 81.254,35.919C81.379,35.881 81.519,35.862 81.674,35.862C81.795,35.862 81.911,35.869 82.021,35.881C82.132,35.894 82.249,35.914 82.372,35.941L82.457,35.322C82.393,35.295 82.298,35.273 82.172,35.257C82.045,35.241 81.924,35.233 81.808,35.233Z" style="fill:white;fill-rule:nonzero;"/>
        <path d="M89.361,38.556C89.163,38.556 88.997,38.516 88.864,38.438C88.731,38.359 88.624,38.256 88.544,38.128C88.462,38.003 88.404,37.861 88.368,37.703C88.333,37.545 88.315,37.384 88.315,37.223L88.315,37.079C88.315,36.92 88.333,36.761 88.368,36.604C88.404,36.447 88.462,36.304 88.544,36.177C88.626,36.051 88.734,35.949 88.867,35.871C89.001,35.792 89.165,35.753 89.361,35.753C89.489,35.753 89.608,35.775 89.719,35.818C89.829,35.861 89.924,35.92 90.004,35.996C90.084,36.071 90.147,36.158 90.194,36.257C90.24,36.356 90.265,36.462 90.267,36.573L90.865,36.573C90.865,36.386 90.828,36.211 90.752,36.047C90.677,35.883 90.574,35.74 90.441,35.62C90.307,35.501 90.148,35.407 89.965,35.338C89.781,35.268 89.58,35.233 89.361,35.233C89.081,35.233 88.836,35.284 88.626,35.384C88.417,35.484 88.243,35.618 88.104,35.787C87.962,35.958 87.856,36.155 87.786,36.378C87.715,36.602 87.68,36.835 87.68,37.079L87.68,37.223C87.68,37.469 87.715,37.703 87.786,37.925C87.856,38.147 87.962,38.343 88.104,38.511C88.243,38.682 88.417,38.818 88.626,38.918C88.836,39.018 89.081,39.068 89.361,39.068C89.557,39.068 89.745,39.035 89.925,38.968C90.105,38.9 90.265,38.81 90.404,38.696C90.543,38.584 90.654,38.454 90.737,38.304C90.82,38.155 90.863,37.999 90.865,37.834L90.267,37.834C90.265,37.937 90.238,38.032 90.187,38.12C90.135,38.208 90.068,38.283 89.983,38.347C89.899,38.413 89.803,38.465 89.695,38.501C89.586,38.537 89.475,38.556 89.361,38.556Z" style="fill:white;fill-rule:nonzero;"/>
        <path d="M92.619,35.852L92.619,33.75L91.986,33.75L91.986,39L92.619,39L92.619,36.313C92.664,36.241 92.716,36.174 92.774,36.114C92.832,36.053 92.896,36 92.964,35.955C93.05,35.895 93.145,35.85 93.248,35.818C93.35,35.786 93.458,35.77 93.572,35.77C93.711,35.768 93.834,35.787 93.941,35.826C94.049,35.866 94.137,35.926 94.208,36.006C94.274,36.079 94.324,36.17 94.358,36.281C94.393,36.392 94.41,36.52 94.41,36.666L94.41,39L95.042,39L95.042,36.672C95.042,36.424 95.012,36.209 94.951,36.028C94.891,35.847 94.805,35.697 94.693,35.579C94.582,35.46 94.447,35.373 94.288,35.317C94.13,35.261 93.954,35.233 93.76,35.233C93.612,35.236 93.473,35.257 93.342,35.298C93.211,35.339 93.09,35.4 92.981,35.479C92.913,35.527 92.848,35.583 92.786,35.645C92.725,35.708 92.669,35.777 92.619,35.852Z" style="fill:white;fill-rule:nonzero;"/>
        <path d="M98.617,39L99.277,39L99.277,38.945C99.236,38.843 99.204,38.723 99.181,38.585C99.158,38.447 99.147,38.316 99.147,38.193L99.147,36.474C99.147,36.267 99.109,36.086 99.034,35.931C98.959,35.776 98.856,35.646 98.727,35.541C98.594,35.438 98.438,35.362 98.258,35.31C98.078,35.259 97.883,35.233 97.674,35.233C97.444,35.233 97.238,35.265 97.057,35.329C96.876,35.393 96.722,35.476 96.597,35.579C96.47,35.683 96.372,35.801 96.305,35.931C96.238,36.061 96.203,36.193 96.201,36.327L96.836,36.327C96.836,36.25 96.855,36.175 96.893,36.103C96.93,36.031 96.983,35.969 97.052,35.917C97.12,35.865 97.204,35.822 97.303,35.791C97.402,35.759 97.514,35.743 97.64,35.743C97.774,35.743 97.895,35.76 98.004,35.794C98.112,35.828 98.204,35.876 98.279,35.938C98.354,36.001 98.412,36.078 98.453,36.167C98.494,36.255 98.515,36.356 98.515,36.467L98.515,36.758L97.824,36.758C97.567,36.758 97.334,36.783 97.125,36.833C96.917,36.883 96.738,36.958 96.59,37.059C96.442,37.161 96.328,37.289 96.247,37.441C96.166,37.594 96.125,37.772 96.125,37.975C96.125,38.13 96.156,38.274 96.216,38.407C96.276,38.54 96.362,38.655 96.474,38.75C96.583,38.848 96.717,38.926 96.876,38.983C97.034,39.04 97.211,39.068 97.407,39.068C97.528,39.068 97.642,39.056 97.749,39.031C97.856,39.006 97.958,38.972 98.053,38.928C98.147,38.885 98.233,38.835 98.311,38.778C98.39,38.721 98.461,38.66 98.525,38.597C98.532,38.674 98.543,38.749 98.557,38.821C98.572,38.892 98.592,38.952 98.617,39ZM97.5,38.518C97.376,38.518 97.268,38.502 97.175,38.47C97.081,38.438 97.004,38.394 96.942,38.337C96.881,38.282 96.835,38.216 96.804,38.139C96.773,38.061 96.758,37.977 96.758,37.886C96.758,37.79 96.775,37.705 96.811,37.629C96.846,37.554 96.898,37.489 96.966,37.435C97.062,37.357 97.191,37.3 97.354,37.262C97.517,37.224 97.708,37.206 97.927,37.206L98.515,37.206L98.515,37.954C98.478,38.027 98.428,38.097 98.364,38.164C98.3,38.232 98.225,38.291 98.139,38.344C98.05,38.396 97.952,38.438 97.845,38.47C97.738,38.502 97.623,38.518 97.5,38.518Z" style="fill:white;fill-rule:nonzero;"/>
        <path d="M102.811,35.233C102.542,35.233 102.302,35.292 102.092,35.409C101.881,35.527 101.7,35.687 101.55,35.89L101.546,35.797L101.519,35.302L100.917,35.302L100.917,39L101.553,39L101.553,36.628C101.594,36.514 101.646,36.411 101.709,36.319C101.771,36.226 101.845,36.148 101.929,36.084C102.023,36.012 102.132,35.956 102.257,35.919C102.383,35.881 102.523,35.862 102.678,35.862C102.799,35.862 102.914,35.869 103.025,35.881C103.135,35.894 103.252,35.914 103.375,35.941L103.46,35.322C103.397,35.295 103.302,35.273 103.175,35.257C103.049,35.241 102.927,35.233 102.811,35.233Z" style="fill:white;fill-rule:nonzero;"/>
        <path d="M106.085,34.406L105.45,34.406L105.45,35.302L104.479,35.302L104.479,35.791L105.45,35.791L105.45,37.8C105.45,38.028 105.48,38.222 105.54,38.383C105.601,38.544 105.683,38.674 105.788,38.774C105.893,38.877 106.017,38.952 106.159,38.998C106.301,39.045 106.455,39.068 106.619,39.068C106.717,39.068 106.815,39.064 106.914,39.055C107.013,39.046 107.107,39.032 107.196,39.014C107.285,38.998 107.367,38.978 107.442,38.954C107.518,38.93 107.581,38.902 107.634,38.87L107.545,38.422C107.506,38.431 107.457,38.442 107.396,38.455C107.336,38.467 107.271,38.479 107.203,38.491C107.132,38.502 107.061,38.512 106.988,38.52C106.915,38.528 106.844,38.532 106.776,38.532C106.682,38.532 106.594,38.52 106.511,38.498C106.428,38.475 106.354,38.435 106.291,38.378C106.227,38.323 106.177,38.249 106.14,38.156C106.104,38.062 106.085,37.944 106.085,37.8L106.085,35.791L107.494,35.791L107.494,35.302L106.085,35.302L106.085,34.406Z" style="fill:white;fill-rule:nonzero;"/>
        <path id="Transport-metro4" serif:id="Transport/metro" d="M37.603,61.505L38.109,61.635C38.166,61.585 38.221,61.54 38.275,61.501C38.328,61.463 38.386,61.43 38.447,61.402C38.509,61.375 38.578,61.354 38.654,61.339C38.73,61.324 38.821,61.317 38.926,61.317C39.085,61.317 39.227,61.345 39.35,61.402C39.473,61.459 39.576,61.537 39.661,61.635C39.745,61.735 39.809,61.852 39.854,61.987C39.898,62.121 39.92,62.266 39.92,62.421C39.92,62.592 39.9,62.747 39.861,62.886C39.821,63.025 39.762,63.143 39.685,63.241C39.605,63.341 39.507,63.418 39.391,63.472C39.274,63.525 39.141,63.552 38.991,63.552C38.724,63.552 38.506,63.479 38.336,63.333C38.166,63.188 38.062,62.973 38.023,62.691L37.422,62.691C37.445,62.921 37.501,63.123 37.591,63.296C37.681,63.469 37.797,63.613 37.938,63.727C38.077,63.84 38.236,63.926 38.417,63.983C38.597,64.04 38.788,64.068 38.991,64.068C39.255,64.068 39.485,64.027 39.681,63.944C39.877,63.86 40.04,63.745 40.17,63.597C40.298,63.451 40.393,63.277 40.457,63.074C40.521,62.871 40.553,62.651 40.553,62.414C40.553,62.163 40.519,61.936 40.45,61.73C40.382,61.525 40.284,61.35 40.156,61.204C40.029,61.061 39.874,60.949 39.691,60.869C39.509,60.789 39.303,60.75 39.073,60.75C38.893,60.75 38.734,60.771 38.598,60.814C38.461,60.858 38.344,60.908 38.246,60.965L38.386,59.639L40.406,59.639L40.406,59.023L37.853,59.023L37.603,61.505Z" style="fill:white;fill-rule:nonzero;"/>
        <path d="M42.679,63.59C42.679,63.722 42.72,63.834 42.803,63.927C42.887,64.019 43.01,64.065 43.174,64.065C43.336,64.065 43.46,64.019 43.547,63.928C43.633,63.837 43.677,63.724 43.677,63.59C43.677,63.453 43.634,63.337 43.549,63.243C43.463,63.148 43.338,63.101 43.174,63.101C43.008,63.101 42.884,63.149 42.802,63.245C42.72,63.34 42.679,63.455 42.679,63.59Z" style="fill:white;fill-rule:nonzero;"/>
        <path d="M53.336,59.563L53.336,59.023L49.645,59.023L49.645,59.563L51.183,59.563L51.183,64L51.798,64L51.798,59.563L53.336,59.563Z" style="fill:white;fill-rule:nonzero;"/>
        <path d="M54.279,60.302L54.279,60.852L55.537,60.852L55.537,63.453L54.279,63.453L54.279,64L57.376,64L57.376,63.453L56.169,63.453L56.169,60.302L54.279,60.302ZM55.455,59.331C55.455,59.434 55.486,59.519 55.549,59.587C55.612,59.656 55.707,59.69 55.834,59.69C55.96,59.69 56.054,59.656 56.118,59.587C56.182,59.519 56.214,59.434 56.214,59.331C56.214,59.274 56.205,59.222 56.187,59.174C56.168,59.126 56.141,59.086 56.104,59.054C56.075,59.025 56.037,59.001 55.992,58.984C55.946,58.967 55.894,58.958 55.834,58.958C55.775,58.958 55.722,58.967 55.676,58.984C55.629,59.001 55.591,59.025 55.561,59.054C55.525,59.088 55.498,59.129 55.481,59.177C55.464,59.225 55.455,59.276 55.455,59.331Z" style="fill:white;fill-rule:nonzero;"/>
        <path d="M58.671,60.302L58.104,60.302L58.104,64L58.706,64L58.706,61.057C58.719,61.021 58.737,60.986 58.759,60.955C58.78,60.923 58.806,60.894 58.835,60.869C58.874,60.837 58.921,60.813 58.977,60.796C59.033,60.779 59.099,60.77 59.174,60.77C59.242,60.77 59.302,60.779 59.353,60.796C59.405,60.813 59.447,60.84 59.481,60.876C59.518,60.915 59.545,60.964 59.562,61.023C59.579,61.082 59.587,61.151 59.587,61.228L59.587,64L60.189,64L60.189,61.163C60.196,61.106 60.209,61.054 60.23,61.008C60.25,60.961 60.279,60.919 60.315,60.883C60.352,60.849 60.397,60.821 60.452,60.801C60.507,60.78 60.572,60.77 60.647,60.77C60.718,60.77 60.78,60.779 60.833,60.797C60.887,60.816 60.932,60.843 60.968,60.879C61.002,60.918 61.029,60.967 61.047,61.026C61.065,61.086 61.074,61.154 61.074,61.231L61.074,64L61.676,64L61.676,61.238C61.676,61.061 61.655,60.906 61.614,60.775C61.573,60.644 61.514,60.538 61.437,60.456C61.366,60.383 61.279,60.327 61.177,60.29C61.074,60.252 60.959,60.233 60.832,60.233C60.738,60.236 60.652,60.248 60.573,60.271C60.495,60.294 60.424,60.325 60.36,60.363C60.31,60.397 60.263,60.437 60.22,60.483C60.176,60.528 60.139,60.577 60.107,60.63C60.082,60.573 60.052,60.522 60.016,60.476C59.981,60.431 59.942,60.392 59.898,60.36C59.839,60.319 59.77,60.288 59.692,60.266C59.613,60.244 59.525,60.233 59.427,60.233C59.254,60.236 59.106,60.273 58.984,60.346C58.862,60.419 58.764,60.521 58.688,60.65L58.671,60.302Z" style="fill:white;fill-rule:nonzero;"/>
        <path d="M64.215,64.068C64.575,64.068 64.878,63.996 65.123,63.851C65.368,63.707 65.552,63.541 65.675,63.354L65.289,63.053C65.172,63.204 65.027,63.324 64.851,63.416C64.676,63.507 64.475,63.552 64.25,63.552C64.079,63.552 63.923,63.52 63.781,63.457C63.64,63.393 63.519,63.305 63.419,63.193C63.321,63.089 63.244,62.968 63.188,62.831C63.132,62.694 63.097,62.536 63.081,62.356L63.081,62.332L65.723,62.332L65.723,62.048C65.723,61.791 65.69,61.552 65.625,61.331C65.56,61.11 65.462,60.917 65.33,60.753C65.197,60.591 65.032,60.464 64.832,60.372C64.633,60.28 64.4,60.233 64.133,60.233C63.921,60.233 63.715,60.277 63.513,60.363C63.311,60.45 63.132,60.574 62.975,60.736C62.815,60.9 62.688,61.1 62.592,61.336C62.496,61.572 62.448,61.839 62.448,62.137L62.448,62.281C62.448,62.538 62.492,62.776 62.578,62.995C62.665,63.214 62.785,63.403 62.94,63.563C63.095,63.722 63.282,63.846 63.499,63.935C63.717,64.024 63.956,64.068 64.215,64.068ZM64.133,60.753C64.295,60.753 64.435,60.783 64.552,60.842C64.669,60.901 64.767,60.979 64.844,61.074C64.922,61.17 64.982,61.283 65.025,61.414C65.069,61.545 65.09,61.668 65.09,61.782L65.09,61.813L63.101,61.813C63.126,61.642 63.17,61.491 63.233,61.36C63.295,61.229 63.372,61.118 63.463,61.026C63.555,60.938 63.657,60.87 63.771,60.823C63.885,60.776 64.006,60.753 64.133,60.753Z" style="fill:white;fill-rule:nonzero;"/>
        <path d="M73.406,60.233C73.137,60.233 72.898,60.292 72.687,60.409C72.476,60.527 72.295,60.687 72.145,60.89L72.142,60.797L72.114,60.302L71.513,60.302L71.513,64L72.148,64L72.148,61.628C72.189,61.514 72.241,61.411 72.304,61.319C72.367,61.226 72.44,61.148 72.524,61.084C72.618,61.012 72.727,60.956 72.853,60.919C72.978,60.881 73.118,60.862 73.273,60.862C73.394,60.862 73.509,60.869 73.62,60.881C73.73,60.894 73.847,60.914 73.97,60.941L74.056,60.322C73.992,60.295 73.897,60.273 73.77,60.257C73.644,60.241 73.522,60.233 73.406,60.233Z" style="fill:white;fill-rule:nonzero;"/>
        <path d="M76.817,64.068C77.177,64.068 77.48,63.996 77.725,63.851C77.97,63.707 78.154,63.541 78.277,63.354L77.891,63.053C77.774,63.204 77.629,63.324 77.453,63.416C77.278,63.507 77.077,63.552 76.852,63.552C76.681,63.552 76.525,63.52 76.383,63.457C76.242,63.393 76.121,63.305 76.021,63.193C75.923,63.089 75.846,62.968 75.79,62.831C75.734,62.694 75.699,62.536 75.683,62.356L75.683,62.332L78.325,62.332L78.325,62.048C78.325,61.791 78.292,61.552 78.227,61.331C78.162,61.11 78.064,60.917 77.932,60.753C77.799,60.591 77.634,60.464 77.434,60.372C77.235,60.28 77.002,60.233 76.735,60.233C76.523,60.233 76.317,60.277 76.115,60.363C75.913,60.45 75.734,60.574 75.577,60.736C75.417,60.9 75.29,61.1 75.194,61.336C75.098,61.572 75.05,61.839 75.05,62.137L75.05,62.281C75.05,62.538 75.094,62.776 75.18,62.995C75.267,63.214 75.388,63.403 75.542,63.563C75.697,63.722 75.884,63.846 76.101,63.935C76.319,64.024 76.558,64.068 76.817,64.068ZM76.735,60.753C76.897,60.753 77.037,60.783 77.154,60.842C77.271,60.901 77.369,60.979 77.446,61.074C77.524,61.17 77.584,61.283 77.627,61.414C77.671,61.545 77.692,61.668 77.692,61.782L77.692,61.813L75.703,61.813C75.728,61.642 75.772,61.491 75.835,61.36C75.897,61.229 75.974,61.118 76.065,61.026C76.157,60.938 76.259,60.87 76.373,60.823C76.487,60.776 76.608,60.753 76.735,60.753Z" style="fill:white;fill-rule:nonzero;"/>
        <path d="M79.675,60.302L79.107,60.302L79.107,64L79.709,64L79.709,61.057C79.723,61.021 79.74,60.986 79.762,60.955C79.784,60.923 79.809,60.894 79.839,60.869C79.878,60.837 79.925,60.813 79.981,60.796C80.037,60.779 80.102,60.77 80.177,60.77C80.246,60.77 80.305,60.779 80.357,60.796C80.408,60.813 80.451,60.84 80.485,60.876C80.521,60.915 80.548,60.964 80.565,61.023C80.582,61.082 80.591,61.151 80.591,61.228L80.591,64L81.192,64L81.192,61.163C81.199,61.106 81.213,61.054 81.233,61.008C81.254,60.961 81.282,60.919 81.319,60.883C81.355,60.849 81.401,60.821 81.456,60.801C81.51,60.78 81.575,60.77 81.65,60.77C81.721,60.77 81.783,60.779 81.837,60.797C81.89,60.816 81.935,60.843 81.972,60.879C82.006,60.918 82.032,60.967 82.05,61.026C82.069,61.086 82.078,61.154 82.078,61.231L82.078,64L82.679,64L82.679,61.238C82.679,61.061 82.659,60.906 82.618,60.775C82.577,60.644 82.517,60.538 82.44,60.456C82.369,60.383 82.283,60.327 82.18,60.29C82.078,60.252 81.963,60.233 81.835,60.233C81.742,60.236 81.656,60.248 81.577,60.271C81.498,60.294 81.427,60.325 81.363,60.363C81.313,60.397 81.266,60.437 81.223,60.483C81.18,60.528 81.142,60.577 81.11,60.63C81.085,60.573 81.055,60.522 81.02,60.476C80.984,60.431 80.945,60.392 80.902,60.36C80.843,60.319 80.774,60.288 80.695,60.266C80.616,60.244 80.528,60.233 80.43,60.233C80.257,60.236 80.109,60.273 79.988,60.346C79.866,60.419 79.767,60.521 79.692,60.65L79.675,60.302Z" style="fill:white;fill-rule:nonzero;"/>
        <path d="M86.015,64L86.675,64L86.675,63.945C86.634,63.843 86.602,63.723 86.579,63.585C86.556,63.447 86.545,63.316 86.545,63.193L86.545,61.474C86.545,61.267 86.507,61.086 86.432,60.931C86.357,60.776 86.254,60.646 86.125,60.541C85.992,60.438 85.836,60.362 85.656,60.31C85.476,60.259 85.281,60.233 85.072,60.233C84.842,60.233 84.636,60.265 84.455,60.329C84.274,60.393 84.12,60.476 83.995,60.579C83.868,60.683 83.77,60.801 83.703,60.931C83.636,61.061 83.601,61.193 83.599,61.327L84.234,61.327C84.234,61.25 84.253,61.175 84.291,61.103C84.328,61.031 84.381,60.969 84.45,60.917C84.518,60.865 84.602,60.822 84.701,60.791C84.8,60.759 84.912,60.743 85.038,60.743C85.172,60.743 85.293,60.76 85.402,60.794C85.51,60.828 85.602,60.876 85.677,60.938C85.752,61.001 85.81,61.078 85.851,61.167C85.892,61.255 85.913,61.356 85.913,61.467L85.913,61.758L85.222,61.758C84.965,61.758 84.732,61.783 84.523,61.833C84.315,61.883 84.136,61.958 83.988,62.059C83.84,62.161 83.726,62.289 83.645,62.441C83.564,62.594 83.523,62.772 83.523,62.975C83.523,63.13 83.554,63.274 83.614,63.407C83.674,63.54 83.76,63.655 83.872,63.75C83.981,63.848 84.115,63.926 84.274,63.983C84.432,64.04 84.609,64.068 84.805,64.068C84.926,64.068 85.04,64.056 85.147,64.031C85.254,64.006 85.355,63.972 85.451,63.928C85.545,63.885 85.631,63.835 85.709,63.778C85.788,63.721 85.859,63.66 85.923,63.597C85.93,63.674 85.941,63.749 85.955,63.821C85.97,63.892 85.99,63.952 86.015,64ZM84.897,63.518C84.774,63.518 84.666,63.502 84.573,63.47C84.479,63.438 84.402,63.394 84.34,63.337C84.279,63.282 84.233,63.216 84.202,63.139C84.171,63.061 84.156,62.977 84.156,62.886C84.156,62.79 84.173,62.705 84.209,62.629C84.244,62.554 84.296,62.489 84.364,62.435C84.46,62.357 84.589,62.3 84.752,62.262C84.915,62.224 85.106,62.206 85.325,62.206L85.913,62.206L85.913,62.954C85.876,63.027 85.826,63.097 85.762,63.164C85.698,63.232 85.623,63.291 85.537,63.344C85.448,63.396 85.35,63.438 85.243,63.47C85.136,63.502 85.021,63.518 84.897,63.518Z" style="fill:white;fill-rule:nonzero;"/>
        <path d="M87.885,60.302L87.885,60.852L89.143,60.852L89.143,63.453L87.885,63.453L87.885,64L90.981,64L90.981,63.453L89.775,63.453L89.775,60.302L87.885,60.302ZM89.061,59.331C89.061,59.434 89.092,59.519 89.155,59.587C89.217,59.656 89.312,59.69 89.44,59.69C89.565,59.69 89.66,59.656 89.724,59.587C89.787,59.519 89.819,59.434 89.819,59.331C89.819,59.274 89.81,59.222 89.792,59.174C89.774,59.126 89.746,59.086 89.71,59.054C89.68,59.025 89.643,59.001 89.597,58.984C89.552,58.967 89.499,58.958 89.44,58.958C89.381,58.958 89.328,58.967 89.281,58.984C89.234,59.001 89.196,59.025 89.167,59.054C89.13,59.088 89.103,59.129 89.086,59.177C89.069,59.225 89.061,59.276 89.061,59.331Z" style="fill:white;fill-rule:nonzero;"/>
        <path d="M91.986,64L92.619,64L92.619,61.348C92.662,61.268 92.713,61.195 92.771,61.129C92.829,61.063 92.892,61.005 92.96,60.955C93.045,60.898 93.137,60.853 93.237,60.82C93.338,60.787 93.446,60.77 93.562,60.77C93.696,60.77 93.816,60.786 93.919,60.818C94.023,60.85 94.111,60.901 94.184,60.972C94.255,61.042 94.308,61.135 94.345,61.249C94.381,61.362 94.399,61.501 94.399,61.666L94.399,64L95.032,64L95.032,61.652C95.032,61.406 95.002,61.193 94.941,61.014C94.881,60.836 94.795,60.688 94.683,60.572C94.571,60.456 94.436,60.37 94.278,60.315C94.12,60.261 93.944,60.233 93.75,60.233C93.606,60.236 93.47,60.257 93.342,60.297C93.213,60.337 93.094,60.393 92.984,60.466C92.911,60.514 92.843,60.57 92.778,60.635C92.713,60.7 92.653,60.771 92.598,60.849L92.554,60.302L91.986,60.302L91.986,64Z" style="fill:white;fill-rule:nonzero;"/>
        <path d="M96.286,60.302L96.286,60.852L97.544,60.852L97.544,63.453L96.286,63.453L96.286,64L99.383,64L99.383,63.453L98.176,63.453L98.176,60.302L96.286,60.302ZM97.462,59.331C97.462,59.434 97.493,59.519 97.556,59.587C97.619,59.656 97.714,59.69 97.841,59.69C97.967,59.69 98.061,59.656 98.125,59.587C98.189,59.519 98.221,59.434 98.221,59.331C98.221,59.274 98.212,59.222 98.193,59.174C98.175,59.126 98.148,59.086 98.111,59.054C98.082,59.025 98.044,59.001 97.999,58.984C97.953,58.967 97.901,58.958 97.841,58.958C97.782,58.958 97.729,58.967 97.682,58.984C97.636,59.001 97.597,59.025 97.568,59.054C97.531,59.088 97.505,59.129 97.488,59.177C97.47,59.225 97.462,59.276 97.462,59.331Z" style="fill:white;fill-rule:nonzero;"/>
        <path d="M100.388,64L101.02,64L101.02,61.348C101.063,61.268 101.114,61.195 101.172,61.129C101.23,61.063 101.293,61.005 101.362,60.955C101.446,60.898 101.538,60.853 101.639,60.82C101.739,60.787 101.847,60.77 101.963,60.77C102.098,60.77 102.217,60.786 102.321,60.818C102.424,60.85 102.513,60.901 102.585,60.972C102.656,61.042 102.71,61.135 102.746,61.249C102.783,61.362 102.801,61.501 102.801,61.666L102.801,64L103.433,64L103.433,61.652C103.433,61.406 103.403,61.193 103.343,61.014C103.282,60.836 103.196,60.688 103.084,60.572C102.973,60.456 102.838,60.37 102.679,60.315C102.521,60.261 102.345,60.233 102.151,60.233C102.008,60.236 101.872,60.257 101.743,60.297C101.614,60.337 101.495,60.393 101.386,60.466C101.313,60.514 101.244,60.57 101.179,60.635C101.114,60.7 101.054,60.771 101,60.849L100.955,60.302L100.388,60.302L100.388,64Z" style="fill:white;fill-rule:nonzero;"/>
        <path d="M104.472,62.12L104.472,62.192C104.472,62.456 104.506,62.703 104.575,62.932C104.643,63.161 104.741,63.36 104.869,63.528C104.994,63.697 105.148,63.829 105.33,63.925C105.512,64.021 105.716,64.068 105.942,64.068C106.076,64.068 106.202,64.054 106.318,64.026C106.434,63.997 106.54,63.957 106.636,63.904C106.697,63.87 106.755,63.83 106.808,63.785C106.862,63.739 106.913,63.689 106.96,63.634L106.96,63.952C106.96,64.112 106.938,64.253 106.892,64.376C106.847,64.499 106.782,64.602 106.697,64.684C106.611,64.768 106.507,64.832 106.386,64.875C106.265,64.918 106.13,64.94 105.979,64.94C105.895,64.94 105.811,64.931 105.727,64.914C105.642,64.897 105.558,64.869 105.474,64.831C105.389,64.792 105.306,64.74 105.224,64.675C105.142,64.61 105.062,64.531 104.985,64.438L104.657,64.817C104.741,64.938 104.842,65.039 104.959,65.121C105.077,65.203 105.199,65.268 105.327,65.316C105.452,65.366 105.576,65.402 105.699,65.424C105.822,65.445 105.932,65.456 106.027,65.456C106.26,65.456 106.472,65.422 106.663,65.354C106.854,65.285 107.02,65.185 107.159,65.053C107.295,64.921 107.402,64.76 107.478,64.571C107.555,64.382 107.593,64.165 107.593,63.921L107.593,60.302L107.019,60.302L106.988,60.705C106.944,60.65 106.898,60.6 106.849,60.555C106.8,60.509 106.749,60.469 106.694,60.435C106.594,60.369 106.481,60.319 106.357,60.285C106.233,60.25 106.097,60.233 105.949,60.233C105.719,60.233 105.512,60.28 105.33,60.374C105.148,60.467 104.993,60.597 104.865,60.763C104.738,60.93 104.64,61.128 104.573,61.36C104.506,61.591 104.472,61.844 104.472,62.12ZM105.104,62.192L105.104,62.12C105.104,61.94 105.123,61.769 105.161,61.606C105.198,61.443 105.258,61.299 105.34,61.173C105.42,61.05 105.523,60.952 105.65,60.879C105.776,60.806 105.928,60.77 106.106,60.77C106.211,60.77 106.306,60.783 106.393,60.809C106.48,60.836 106.558,60.871 106.629,60.917C106.7,60.965 106.762,61.021 106.817,61.084C106.872,61.148 106.919,61.219 106.96,61.296L106.96,62.992C106.919,63.071 106.872,63.144 106.817,63.21C106.762,63.277 106.701,63.333 106.632,63.381C106.562,63.429 106.483,63.466 106.395,63.492C106.307,63.519 106.208,63.532 106.099,63.532C105.924,63.532 105.773,63.496 105.648,63.424C105.523,63.352 105.42,63.255 105.34,63.132C105.258,63.009 105.198,62.866 105.161,62.705C105.123,62.543 105.104,62.372 105.104,62.192Z" style="fill:white;fill-rule:nonzero;"/>
        <path id="Transport-metro5" serif:id="Transport/metro" d="M39.428,9L39.428,4.023L39.377,4.023L37.494,4.748L37.494,5.326L38.796,4.83L38.796,9L39.428,9Z" style="fill:white;fill-rule:nonzero;"/>
        <path d="M42.679,8.59C42.679,8.722 42.72,8.834 42.803,8.927C42.887,9.019 43.01,9.065 43.174,9.065C43.336,9.065 43.46,9.019 43.547,8.928C43.633,8.837 43.677,8.724 43.677,8.59C43.677,8.453 43.634,8.337 43.549,8.243C43.463,8.148 43.338,8.101 43.174,8.101C43.008,8.101 42.884,8.149 42.802,8.245C42.72,8.34 42.679,8.455 42.679,8.59Z" style="fill:white;fill-rule:nonzero;"/>
        <path d="M53.336,4.563L53.336,4.023L49.645,4.023L49.645,4.563L51.183,4.563L51.183,9L51.798,9L51.798,4.563L53.336,4.563Z" style="fill:white;fill-rule:nonzero;"/>
        <path d="M56.604,5.233C56.335,5.233 56.095,5.292 55.884,5.409C55.673,5.527 55.493,5.687 55.342,5.89L55.339,5.797L55.312,5.302L54.71,5.302L54.71,9L55.346,9L55.346,6.628C55.387,6.514 55.439,6.411 55.501,6.319C55.564,6.226 55.637,6.148 55.722,6.084C55.815,6.012 55.924,5.956 56.05,5.919C56.175,5.881 56.315,5.862 56.47,5.862C56.591,5.862 56.707,5.869 56.817,5.881C56.928,5.894 57.044,5.914 57.167,5.941L57.253,5.322C57.189,5.295 57.094,5.273 56.968,5.257C56.841,5.241 56.72,5.233 56.604,5.233Z" style="fill:white;fill-rule:nonzero;"/>
        <path d="M60.811,9L61.471,9L61.471,8.945C61.43,8.843 61.398,8.723 61.375,8.585C61.352,8.447 61.341,8.316 61.341,8.193L61.341,6.474C61.341,6.267 61.303,6.086 61.228,5.931C61.153,5.776 61.05,5.646 60.92,5.541C60.788,5.438 60.632,5.362 60.452,5.31C60.272,5.259 60.077,5.233 59.868,5.233C59.638,5.233 59.432,5.265 59.251,5.329C59.07,5.393 58.916,5.476 58.791,5.579C58.663,5.683 58.566,5.801 58.499,5.931C58.432,6.061 58.397,6.193 58.395,6.327L59.03,6.327C59.03,6.25 59.049,6.175 59.087,6.103C59.124,6.031 59.177,5.969 59.246,5.917C59.314,5.865 59.398,5.822 59.497,5.791C59.596,5.759 59.708,5.743 59.833,5.743C59.968,5.743 60.089,5.76 60.198,5.794C60.306,5.828 60.397,5.876 60.473,5.938C60.548,6.001 60.606,6.078 60.647,6.167C60.688,6.255 60.708,6.356 60.708,6.467L60.708,6.758L60.018,6.758C59.761,6.758 59.528,6.783 59.319,6.833C59.111,6.883 58.932,6.958 58.784,7.059C58.636,7.161 58.522,7.289 58.441,7.441C58.36,7.594 58.319,7.772 58.319,7.975C58.319,8.13 58.35,8.274 58.41,8.407C58.47,8.54 58.556,8.655 58.668,8.75C58.777,8.848 58.911,8.926 59.07,8.983C59.228,9.04 59.405,9.068 59.601,9.068C59.722,9.068 59.836,9.056 59.943,9.031C60.05,9.006 60.151,8.972 60.247,8.928C60.34,8.885 60.427,8.835 60.505,8.778C60.584,8.721 60.655,8.66 60.719,8.597C60.726,8.674 60.736,8.749 60.751,8.821C60.766,8.892 60.786,8.952 60.811,9ZM59.693,8.518C59.57,8.518 59.462,8.502 59.369,8.47C59.275,8.438 59.198,8.394 59.136,8.337C59.075,8.282 59.029,8.216 58.998,8.139C58.967,8.061 58.952,7.977 58.952,7.886C58.952,7.79 58.969,7.705 59.005,7.629C59.04,7.554 59.092,7.489 59.16,7.435C59.256,7.357 59.385,7.3 59.548,7.262C59.711,7.224 59.902,7.206 60.121,7.206L60.708,7.206L60.708,7.954C60.672,8.027 60.622,8.097 60.558,8.164C60.494,8.232 60.419,8.291 60.333,8.344C60.244,8.396 60.146,8.438 60.039,8.47C59.931,8.502 59.816,8.518 59.693,8.518Z" style="fill:white;fill-rule:nonzero;"/>
        <path d="M62.582,9L63.214,9L63.214,6.348C63.257,6.268 63.308,6.195 63.366,6.129C63.424,6.063 63.487,6.005 63.556,5.955C63.64,5.898 63.732,5.853 63.833,5.82C63.933,5.787 64.041,5.77 64.157,5.77C64.292,5.77 64.411,5.786 64.514,5.818C64.618,5.85 64.706,5.901 64.779,5.972C64.85,6.042 64.903,6.135 64.94,6.249C64.976,6.362 64.995,6.501 64.995,6.666L64.995,9L65.627,9L65.627,6.652C65.627,6.406 65.597,6.193 65.536,6.014C65.476,5.836 65.39,5.688 65.278,5.572C65.167,5.456 65.032,5.37 64.873,5.315C64.715,5.261 64.539,5.233 64.345,5.233C64.202,5.236 64.066,5.257 63.937,5.297C63.808,5.337 63.689,5.393 63.58,5.466C63.507,5.514 63.438,5.57 63.373,5.635C63.308,5.7 63.248,5.771 63.193,5.849L63.149,5.302L62.582,5.302L62.582,9Z" style="fill:white;fill-rule:nonzero;"/>
        <path d="M69.24,8.019C69.24,8.078 69.228,8.134 69.206,8.187C69.183,8.239 69.15,8.287 69.106,8.33C69.036,8.401 68.938,8.456 68.813,8.496C68.687,8.536 68.54,8.556 68.372,8.556C68.264,8.556 68.156,8.544 68.047,8.521C67.938,8.499 67.838,8.46 67.75,8.405C67.658,8.351 67.583,8.279 67.522,8.19C67.462,8.101 67.427,7.992 67.418,7.862L66.786,7.862C66.786,8.019 66.822,8.171 66.893,8.316C66.965,8.462 67.069,8.59 67.206,8.699C67.34,8.811 67.506,8.9 67.702,8.968C67.898,9.035 68.121,9.068 68.372,9.068C68.59,9.068 68.792,9.042 68.977,8.99C69.161,8.937 69.319,8.863 69.452,8.768C69.584,8.672 69.687,8.557 69.761,8.422C69.835,8.288 69.872,8.139 69.872,7.975C69.872,7.822 69.84,7.688 69.775,7.571C69.71,7.455 69.616,7.353 69.493,7.264C69.37,7.177 69.218,7.102 69.038,7.04C68.858,6.977 68.654,6.922 68.426,6.874C68.253,6.84 68.11,6.805 67.997,6.768C67.885,6.732 67.795,6.691 67.729,6.645C67.661,6.599 67.613,6.548 67.585,6.491C67.558,6.434 67.544,6.369 67.544,6.296C67.544,6.226 67.562,6.157 67.596,6.091C67.63,6.025 67.681,5.967 67.75,5.917C67.816,5.867 67.899,5.827 68.001,5.797C68.102,5.768 68.22,5.753 68.354,5.753C68.484,5.753 68.601,5.771 68.705,5.808C68.809,5.844 68.897,5.892 68.97,5.951C69.043,6.01 69.1,6.078 69.141,6.155C69.182,6.231 69.202,6.309 69.202,6.389L69.834,6.389C69.834,6.227 69.8,6.076 69.73,5.936C69.661,5.796 69.562,5.673 69.435,5.568C69.307,5.464 69.152,5.382 68.97,5.322C68.787,5.263 68.582,5.233 68.354,5.233C68.143,5.233 67.948,5.262 67.772,5.319C67.595,5.376 67.443,5.453 67.315,5.551C67.188,5.649 67.089,5.764 67.018,5.895C66.947,6.026 66.912,6.167 66.912,6.317C66.912,6.47 66.946,6.603 67.015,6.719C67.083,6.834 67.18,6.933 67.305,7.018C67.428,7.104 67.577,7.178 67.751,7.24C67.926,7.301 68.119,7.354 68.331,7.397C68.504,7.431 68.648,7.469 68.765,7.511C68.881,7.554 68.974,7.6 69.045,7.65C69.116,7.7 69.166,7.755 69.195,7.816C69.225,7.876 69.24,7.944 69.24,8.019Z" style="fill:white;fill-rule:nonzero;"/>
        <path d="M70.979,10.422L71.612,10.422L71.612,8.645C71.657,8.695 71.706,8.741 71.759,8.783C71.811,8.825 71.867,8.863 71.926,8.897C72.024,8.952 72.134,8.994 72.256,9.024C72.378,9.054 72.51,9.068 72.651,9.068C72.883,9.068 73.09,9.021 73.271,8.925C73.452,8.829 73.604,8.697 73.728,8.528C73.851,8.36 73.944,8.161 74.008,7.932C74.072,7.703 74.104,7.456 74.104,7.192L74.104,7.12C74.104,6.844 74.072,6.591 74.008,6.36C73.944,6.128 73.851,5.93 73.728,5.763C73.604,5.597 73.452,5.467 73.27,5.374C73.087,5.28 72.878,5.233 72.641,5.233C72.506,5.233 72.38,5.248 72.263,5.276C72.146,5.305 72.039,5.346 71.943,5.401C71.875,5.437 71.811,5.481 71.752,5.532C71.693,5.584 71.638,5.641 71.588,5.705L71.557,5.302L70.979,5.302L70.979,10.422ZM73.471,7.12L73.471,7.192C73.471,7.372 73.451,7.544 73.411,7.708C73.372,7.872 73.311,8.017 73.229,8.142C73.146,8.267 73.042,8.367 72.914,8.441C72.786,8.515 72.635,8.552 72.459,8.552C72.35,8.552 72.25,8.539 72.16,8.511C72.07,8.484 71.989,8.446 71.916,8.398C71.852,8.357 71.795,8.307 71.745,8.248C71.695,8.189 71.651,8.125 71.612,8.057L71.612,6.276C71.655,6.198 71.705,6.128 71.762,6.064C71.819,6 71.884,5.947 71.957,5.903C72.023,5.86 72.098,5.827 72.181,5.804C72.264,5.781 72.355,5.77 72.453,5.77C72.63,5.77 72.783,5.806 72.911,5.879C73.038,5.952 73.144,6.05 73.229,6.173C73.311,6.299 73.372,6.443 73.411,6.606C73.451,6.769 73.471,6.94 73.471,7.12Z" style="fill:white;fill-rule:nonzero;"/>
        <path d="M75.006,7.117L75.006,7.192C75.006,7.458 75.045,7.706 75.122,7.934C75.2,8.161 75.311,8.36 75.457,8.528C75.601,8.697 75.777,8.829 75.985,8.925C76.194,9.021 76.429,9.068 76.691,9.068C76.951,9.068 77.184,9.021 77.392,8.925C77.599,8.829 77.776,8.697 77.921,8.528C78.065,8.36 78.175,8.161 78.253,7.934C78.33,7.706 78.369,7.458 78.369,7.192L78.369,7.117C78.369,6.85 78.33,6.602 78.253,6.373C78.175,6.144 78.065,5.945 77.921,5.777C77.776,5.608 77.598,5.476 77.39,5.379C77.181,5.282 76.946,5.233 76.684,5.233C76.424,5.233 76.191,5.282 75.983,5.379C75.776,5.476 75.601,5.608 75.457,5.777C75.311,5.945 75.2,6.144 75.122,6.373C75.045,6.602 75.006,6.85 75.006,7.117ZM75.638,7.192L75.638,7.117C75.638,6.937 75.66,6.764 75.703,6.599C75.746,6.434 75.813,6.288 75.901,6.163C75.988,6.038 76.096,5.938 76.226,5.864C76.356,5.79 76.509,5.753 76.684,5.753C76.86,5.753 77.013,5.79 77.144,5.864C77.275,5.938 77.385,6.038 77.474,6.163C77.56,6.288 77.626,6.434 77.67,6.599C77.715,6.764 77.737,6.937 77.737,7.117L77.737,7.192C77.737,7.374 77.715,7.548 77.672,7.713C77.629,7.878 77.564,8.024 77.477,8.149C77.388,8.274 77.278,8.373 77.147,8.446C77.016,8.519 76.864,8.556 76.691,8.556C76.515,8.556 76.362,8.519 76.229,8.446C76.097,8.373 75.988,8.274 75.901,8.149C75.813,8.024 75.746,7.878 75.703,7.713C75.66,7.548 75.638,7.374 75.638,7.192Z" style="fill:white;fill-rule:nonzero;"/>
        <path d="M81.808,5.233C81.539,5.233 81.299,5.292 81.088,5.409C80.877,5.527 80.697,5.687 80.546,5.89L80.543,5.797L80.516,5.302L79.914,5.302L79.914,9L80.55,9L80.55,6.628C80.591,6.514 80.643,6.411 80.705,6.319C80.768,6.226 80.841,6.148 80.926,6.084C81.019,6.012 81.129,5.956 81.254,5.919C81.379,5.881 81.519,5.862 81.674,5.862C81.795,5.862 81.911,5.869 82.021,5.881C82.132,5.894 82.249,5.914 82.372,5.941L82.457,5.322C82.393,5.295 82.298,5.273 82.172,5.257C82.045,5.241 81.924,5.233 81.808,5.233Z" style="fill:white;fill-rule:nonzero;"/>
        <path d="M85.082,4.406L84.446,4.406L84.446,5.302L83.476,5.302L83.476,5.791L84.446,5.791L84.446,7.8C84.446,8.028 84.476,8.222 84.537,8.383C84.597,8.544 84.68,8.674 84.785,8.774C84.889,8.877 85.013,8.952 85.156,8.998C85.298,9.045 85.451,9.068 85.615,9.068C85.713,9.068 85.812,9.064 85.911,9.055C86.01,9.046 86.104,9.032 86.193,9.014C86.282,8.998 86.364,8.978 86.439,8.954C86.514,8.93 86.578,8.902 86.63,8.87L86.542,8.422C86.503,8.431 86.453,8.442 86.393,8.455C86.332,8.467 86.268,8.479 86.2,8.491C86.129,8.502 86.057,8.512 85.984,8.52C85.911,8.528 85.841,8.532 85.772,8.532C85.679,8.532 85.591,8.52 85.508,8.498C85.424,8.475 85.351,8.435 85.287,8.378C85.223,8.323 85.173,8.249 85.137,8.156C85.1,8.062 85.082,7.944 85.082,7.8L85.082,5.791L86.49,5.791L86.49,5.302L85.082,5.302L85.082,4.406Z" style="fill:white;fill-rule:nonzero;"/>
    </g>
</svg>
