<?xml version="1.0" encoding="UTF-8" standalone="no"?>
<!DOCTYPE svg PUBLIC "-//W3C//DTD SVG 1.1//EN" "http://www.w3.org/Graphics/SVG/1.1/DTD/svg11.dtd">
<svg width="100%" height="100%" viewBox="0 0 414 216" version="1.1" xmlns="http://www.w3.org/2000/svg" xmlns:xlink="http://www.w3.org/1999/xlink" xml:space="preserve" xmlns:serif="http://www.serif.com/" style="fill-rule:evenodd;clip-rule:evenodd;stroke-linecap:round;stroke-linejoin:round;stroke-miterlimit:1.5;">
    <rect id="background--Rectangle-" serif:id="background (Rectangle)" x="-0" y="-0" width="414" height="216" style="fill:rgb(90,92,92);"/>
    <g id="Piano-grid" serif:id="Piano/grid">
        <g id="grid">
            <rect x="21" y="36" width="48" height="165" style="fill:rgb(236,236,236);stroke:rgb(133,132,132);stroke-width:0.5px;"/>
            <rect x="69" y="36" width="48" height="165" style="fill:rgb(236,236,236);stroke:rgb(133,132,132);stroke-width:0.5px;"/>
            <rect x="117" y="36" width="48" height="165" style="fill:rgb(236,236,236);stroke:rgb(133,132,132);stroke-width:0.5px;"/>
            <rect x="165" y="36" width="48" height="165" style="fill:rgb(236,236,236);stroke:rgb(133,132,132);stroke-width:0.5px;"/>
            <rect x="213" y="36" width="48" height="165" style="fill:rgb(236,236,236);stroke:rgb(133,132,132);stroke-width:0.5px;"/>
            <rect x="261" y="36" width="48" height="165" style="fill:rgb(236,236,236);stroke:rgb(133,132,132);stroke-width:0.5px;"/>
            <rect x="309" y="36" width="48" height="165" style="fill:rgb(236,236,236);stroke:rgb(133,132,132);stroke-width:0.5px;"/>
            <rect x="357" y="36" width="48" height="165" style="fill:rgb(236,236,236);stroke:rgb(133,132,132);stroke-width:0.5px;"/>
            <path d="M33,36L33,201" style="fill:none;stroke:rgb(133,132,132);stroke-opacity:0.14;stroke-width:0.5px;"/>
            <path d="M81,36L81,201" style="fill:none;stroke:rgb(133,132,132);stroke-opacity:0.14;stroke-width:0.5px;"/>
            <path d="M129,36L129,201" style="fill:none;stroke:rgb(133,132,132);stroke-opacity:0.14;stroke-width:0.5px;"/>
            <path d="M177,36L177,201" style="fill:none;stroke:rgb(133,132,132);stroke-opacity:0.14;stroke-width:0.5px;"/>
            <path d="M225,36L225,201" style="fill:none;stroke:rgb(133,132,132);stroke-opacity:0.14;stroke-width:0.5px;"/>
            <path d="M273,36L273,201" style="fill:none;stroke:rgb(133,132,132);stroke-opacity:0.14;stroke-width:0.5px;"/>
            <path d="M321,36L321,201" style="fill:none;stroke:rgb(133,132,132);stroke-opacity:0.14;stroke-width:0.5px;"/>
            <path d="M369,36L369,201" style="fill:none;stroke:rgb(133,132,132);stroke-opacity:0.14;stroke-width:0.5px;"/>
            <path d="M45,36L45,201" style="fill:none;stroke:rgb(133,132,132);stroke-opacity:0.14;stroke-width:0.5px;"/>
            <path d="M93,36L93,201" style="fill:none;stroke:rgb(133,132,132);stroke-opacity:0.14;stroke-width:0.5px;"/>
            <path d="M141,36L141,201" style="fill:none;stroke:rgb(133,132,132);stroke-opacity:0.14;stroke-width:0.5px;"/>
            <path d="M189,36L189,201" style="fill:none;stroke:rgb(133,132,132);stroke-opacity:0.14;stroke-width:0.5px;"/>
            <path d="M237,36L237,201" style="fill:none;stroke:rgb(133,132,132);stroke-opacity:0.14;stroke-width:0.5px;"/>
            <path d="M285,36L285,201" style="fill:none;stroke:rgb(133,132,132);stroke-opacity:0.14;stroke-width:0.5px;"/>
            <path d="M333,36L333,201" style="fill:none;stroke:rgb(133,132,132);stroke-opacity:0.14;stroke-width:0.5px;"/>
            <path d="M381,36L381,201" style="fill:none;stroke:rgb(133,132,132);stroke-opacity:0.14;stroke-width:0.5px;"/>
            <path d="M57,36L57,201" style="fill:none;stroke:rgb(133,132,132);stroke-opacity:0.14;stroke-width:0.5px;"/>
            <path d="M105,36L105,201" style="fill:none;stroke:rgb(133,132,132);stroke-opacity:0.14;stroke-width:0.5px;"/>
            <path d="M153,36L153,201" style="fill:none;stroke:rgb(133,132,132);stroke-opacity:0.14;stroke-width:0.5px;"/>
            <path d="M201,36L201,201" style="fill:none;stroke:rgb(133,132,132);stroke-opacity:0.14;stroke-width:0.5px;"/>
            <path d="M249,36L249,201" style="fill:none;stroke:rgb(133,132,132);stroke-opacity:0.14;stroke-width:0.5px;"/>
            <path d="M297,36L297,201" style="fill:none;stroke:rgb(133,132,132);stroke-opacity:0.14;stroke-width:0.5px;"/>
            <path d="M345,36L345,201" style="fill:none;stroke:rgb(133,132,132);stroke-opacity:0.14;stroke-width:0.5px;"/>
            <path d="M393,36L393,201" style="fill:none;stroke:rgb(133,132,132);stroke-opacity:0.14;stroke-width:0.5px;"/>
        </g>
        <g id="piano-roll" serif:id="piano roll">
            <rect x="9" y="105" width="12" height="3" style="fill:rgb(236,236,236);stroke:rgb(133,132,132);stroke-width:0.5px;"/>
            <rect x="9" y="102" width="12" height="3" style="fill:rgb(36,36,36);stroke:rgb(133,132,132);stroke-width:0.5px;"/>
            <rect x="9" y="99" width="12" height="3" style="fill:rgb(236,236,236);stroke:rgb(133,132,132);stroke-width:0.5px;"/>
            <rect x="9" y="93" width="12" height="3" style="fill:rgb(236,236,236);stroke:rgb(133,132,132);stroke-width:0.5px;"/>
            <rect x="9" y="96" width="12" height="3" style="fill:rgb(36,36,36);stroke:rgb(133,132,132);stroke-width:0.5px;"/>
            <rect x="9" y="90" width="12" height="3" style="fill:rgb(236,236,236);stroke:rgb(133,132,132);stroke-width:0.5px;"/>
            <rect x="9" y="87" width="12" height="3" style="fill:rgb(36,36,36);stroke:rgb(133,132,132);stroke-width:0.5px;"/>
            <rect x="9" y="84" width="12" height="3" style="fill:rgb(236,236,236);stroke:rgb(133,132,132);stroke-width:0.5px;"/>
            <rect x="9" y="81" width="12" height="3" style="fill:rgb(36,36,36);stroke:rgb(133,132,132);stroke-width:0.5px;"/>
            <rect x="9" y="78" width="12" height="3" style="fill:rgb(236,236,236);stroke:rgb(133,132,132);stroke-width:0.5px;"/>
            <rect x="9" y="93" width="12" height="3" style="fill:rgb(236,236,236);stroke:rgb(133,132,132);stroke-width:0.5px;"/>
            <rect x="9" y="78" width="12" height="3" style="fill:rgb(236,236,236);stroke:rgb(133,132,132);stroke-width:0.5px;"/>
            <rect x="9" y="72" width="12" height="3" style="fill:rgb(236,236,236);stroke:rgb(133,132,132);stroke-width:0.5px;"/>
            <rect x="9" y="75" width="12" height="3" style="fill:rgb(36,36,36);stroke:rgb(133,132,132);stroke-width:0.5px;"/>
            <rect x="9" y="69" width="12" height="3" style="fill:rgb(236,236,236);stroke:rgb(133,132,132);stroke-width:0.5px;"/>
            <rect x="9" y="66" width="12" height="3" style="fill:rgb(36,36,36);stroke:rgb(133,132,132);stroke-width:0.5px;"/>
            <rect x="9" y="63" width="12" height="3" style="fill:rgb(236,236,236);stroke:rgb(133,132,132);stroke-width:0.5px;"/>
            <rect x="9" y="57" width="12" height="3" style="fill:rgb(236,236,236);stroke:rgb(133,132,132);stroke-width:0.5px;"/>
            <rect x="9" y="60" width="12" height="3" style="fill:rgb(36,36,36);stroke:rgb(133,132,132);stroke-width:0.5px;"/>
            <rect x="9" y="54" width="12" height="3" style="fill:rgb(236,236,236);stroke:rgb(133,132,132);stroke-width:0.5px;"/>
            <rect x="9" y="51" width="12" height="3" style="fill:rgb(36,36,36);stroke:rgb(133,132,132);stroke-width:0.5px;"/>
            <rect x="9" y="48" width="12" height="3" style="fill:rgb(236,236,236);stroke:rgb(133,132,132);stroke-width:0.5px;"/>
            <rect x="9" y="45" width="12" height="3" style="fill:rgb(36,36,36);stroke:rgb(133,132,132);stroke-width:0.5px;"/>
            <rect x="9" y="42" width="12" height="3" style="fill:rgb(236,236,236);stroke:rgb(133,132,132);stroke-width:0.5px;"/>
            <rect x="9" y="57" width="12" height="3" style="fill:rgb(236,236,236);stroke:rgb(133,132,132);stroke-width:0.5px;"/>
            <rect x="9" y="42" width="12" height="3" style="fill:rgb(236,236,236);stroke:rgb(133,132,132);stroke-width:0.5px;"/>
            <rect x="9" y="36" width="12" height="3" style="fill:rgb(236,236,236);stroke:rgb(133,132,132);stroke-width:0.5px;"/>
            <rect x="9" y="39" width="12" height="3" style="fill:rgb(36,36,36);stroke:rgb(133,132,132);stroke-width:0.5px;"/>
            <rect x="9" y="177" width="12" height="3" style="fill:rgb(236,236,236);stroke:rgb(133,132,132);stroke-width:0.5px;"/>
            <rect x="9" y="174" width="12" height="3" style="fill:rgb(36,36,36);stroke:rgb(133,132,132);stroke-width:0.5px;"/>
            <rect x="9" y="171" width="12" height="3" style="fill:rgb(236,236,236);stroke:rgb(133,132,132);stroke-width:0.5px;"/>
            <rect x="9" y="165" width="12" height="3" style="fill:rgb(236,236,236);stroke:rgb(133,132,132);stroke-width:0.5px;"/>
            <rect x="9" y="168" width="12" height="3" style="fill:rgb(36,36,36);stroke:rgb(133,132,132);stroke-width:0.5px;"/>
            <rect x="9" y="162" width="12" height="3" style="fill:rgb(236,236,236);stroke:rgb(133,132,132);stroke-width:0.5px;"/>
            <rect x="9" y="159" width="12" height="3" style="fill:rgb(36,36,36);stroke:rgb(133,132,132);stroke-width:0.5px;"/>
            <rect x="9" y="156" width="12" height="3" style="fill:rgb(236,236,236);stroke:rgb(133,132,132);stroke-width:0.5px;"/>
            <rect x="9" y="153" width="12" height="3" style="fill:rgb(36,36,36);stroke:rgb(133,132,132);stroke-width:0.5px;"/>
            <rect x="9" y="150" width="12" height="3" style="fill:rgb(236,236,236);stroke:rgb(133,132,132);stroke-width:0.5px;"/>
            <rect x="9" y="165" width="12" height="3" style="fill:rgb(236,236,236);stroke:rgb(133,132,132);stroke-width:0.5px;"/>
            <rect x="9" y="150" width="12" height="3" style="fill:rgb(236,236,236);stroke:rgb(133,132,132);stroke-width:0.5px;"/>
            <rect x="9" y="144" width="12" height="3" style="fill:rgb(236,236,236);stroke:rgb(133,132,132);stroke-width:0.5px;"/>
            <rect x="9" y="147" width="12" height="3" style="fill:rgb(36,36,36);stroke:rgb(133,132,132);stroke-width:0.5px;"/>
            <rect x="9" y="141" width="12" height="3" style="fill:rgb(236,236,236);stroke:rgb(133,132,132);stroke-width:0.5px;"/>
            <rect x="9" y="138" width="12" height="3" style="fill:rgb(36,36,36);stroke:rgb(133,132,132);stroke-width:0.5px;"/>
            <rect x="9" y="135" width="12" height="3" style="fill:rgb(236,236,236);stroke:rgb(133,132,132);stroke-width:0.5px;"/>
            <rect x="9" y="129" width="12" height="3" style="fill:rgb(236,236,236);stroke:rgb(133,132,132);stroke-width:0.5px;"/>
            <rect x="9" y="132" width="12" height="3" style="fill:rgb(36,36,36);stroke:rgb(133,132,132);stroke-width:0.5px;"/>
            <rect x="9" y="126" width="12" height="3" style="fill:rgb(236,236,236);stroke:rgb(133,132,132);stroke-width:0.5px;"/>
            <rect x="9" y="123" width="12" height="3" style="fill:rgb(36,36,36);stroke:rgb(133,132,132);stroke-width:0.5px;"/>
            <rect x="9" y="120" width="12" height="3" style="fill:rgb(236,236,236);stroke:rgb(133,132,132);stroke-width:0.5px;"/>
            <rect x="9" y="117" width="12" height="3" style="fill:rgb(36,36,36);stroke:rgb(133,132,132);stroke-width:0.5px;"/>
            <rect x="9" y="114" width="12" height="3" style="fill:rgb(236,236,236);stroke:rgb(133,132,132);stroke-width:0.5px;"/>
            <rect x="9" y="129" width="12" height="3" style="fill:rgb(236,236,236);stroke:rgb(133,132,132);stroke-width:0.5px;"/>
            <rect x="9" y="114" width="12" height="3" style="fill:rgb(236,236,236);stroke:rgb(133,132,132);stroke-width:0.5px;"/>
            <rect x="9" y="108" width="12" height="3" style="fill:rgb(236,236,236);stroke:rgb(133,132,132);stroke-width:0.5px;"/>
            <rect x="9" y="111" width="12" height="3" style="fill:rgb(36,36,36);stroke:rgb(133,132,132);stroke-width:0.5px;"/>
            <rect x="9" y="198" width="12" height="3" style="fill:rgb(236,236,236);stroke:rgb(133,132,132);stroke-width:0.5px;"/>
            <rect x="9" y="195" width="12" height="3" style="fill:rgb(36,36,36);stroke:rgb(133,132,132);stroke-width:0.5px;"/>
            <rect x="9" y="192" width="12" height="3" style="fill:rgb(236,236,236);stroke:rgb(133,132,132);stroke-width:0.5px;"/>
            <rect x="9" y="189" width="12" height="3" style="fill:rgb(36,36,36);stroke:rgb(133,132,132);stroke-width:0.5px;"/>
            <rect x="9" y="186" width="12" height="3" style="fill:rgb(236,236,236);stroke:rgb(133,132,132);stroke-width:0.5px;"/>
            <rect x="9" y="186" width="12" height="3" style="fill:rgb(236,236,236);stroke:rgb(133,132,132);stroke-width:0.5px;"/>
            <rect x="9" y="180" width="12" height="3" style="fill:rgb(236,236,236);stroke:rgb(133,132,132);stroke-width:0.5px;"/>
            <rect x="9" y="183" width="12" height="3" style="fill:rgb(36,36,36);stroke:rgb(133,132,132);stroke-width:0.5px;"/>
        </g>
    </g>
    <g id="F-blank-blank" serif:id="F blank/blank">
        <rect x="21" y="192" width="48" height="3" style="fill:rgb(255,0,0);stroke:rgb(133,132,132);stroke-width:0.5px;"/>
        <rect x="165" y="171" width="48" height="3" style="fill:rgb(255,0,0);stroke:rgb(133,132,132);stroke-width:0.5px;"/>
        <rect x="357" y="177" width="48" height="3" style="fill:rgb(255,0,0);stroke:rgb(133,132,132);stroke-width:0.5px;"/>
        <rect x="213" y="168" width="48" height="3" style="fill:rgb(255,0,0);stroke:rgb(133,132,132);stroke-width:0.5px;"/>
        <rect x="21" y="183" width="48" height="3" style="fill:rgb(255,0,0);stroke:rgb(133,132,132);stroke-width:0.5px;"/>
        <rect x="165" y="162" width="48" height="3" style="fill:rgb(255,0,0);stroke:rgb(133,132,132);stroke-width:0.5px;"/>
        <rect x="357" y="168" width="48" height="3" style="fill:rgb(255,0,0);stroke:rgb(133,132,132);stroke-width:0.5px;"/>
        <rect x="213" y="156" width="48" height="3" style="fill:rgb(255,0,0);stroke:rgb(133,132,132);stroke-width:0.5px;"/>
        <rect x="21" y="171" width="48" height="3" style="fill:rgb(255,0,0);stroke:rgb(133,132,132);stroke-width:0.5px;"/>
        <rect x="69" y="156" width="12" height="3" style="fill:rgb(255,0,0);stroke:rgb(133,132,132);stroke-width:0.5px;"/>
        <rect x="261" y="132" width="12" height="3" style="fill:rgb(255,0,0);stroke:rgb(133,132,132);stroke-width:0.5px;"/>
        <rect x="81" y="147" width="12" height="3" style="fill:rgb(255,0,0);stroke:rgb(133,132,132);stroke-width:0.5px;"/>
        <rect x="273" y="120" width="12" height="3" style="fill:rgb(255,0,0);stroke:rgb(133,132,132);stroke-width:0.5px;"/>
        <rect x="93" y="135" width="12" height="3" style="fill:rgb(255,0,0);stroke:rgb(133,132,132);stroke-width:0.5px;"/>
        <rect x="285" y="111" width="12" height="3" style="fill:rgb(255,0,0);stroke:rgb(133,132,132);stroke-width:0.5px;"/>
        <rect x="105" y="120" width="12" height="3" style="fill:rgb(255,0,0);stroke:rgb(133,132,132);stroke-width:0.5px;"/>
        <rect x="297" y="96" width="12" height="3" style="fill:rgb(255,0,0);stroke:rgb(133,132,132);stroke-width:0.5px;"/>
        <rect x="117" y="156" width="12" height="3" style="fill:rgb(255,0,0);stroke:rgb(133,132,132);stroke-width:0.5px;"/>
        <rect x="165" y="90" width="12" height="3" style="fill:rgb(255,0,0);stroke:rgb(133,132,132);stroke-width:0.5px;"/>
        <rect x="129" y="147" width="12" height="3" style="fill:rgb(255,0,0);stroke:rgb(133,132,132);stroke-width:0.5px;"/>
        <rect x="177" y="78" width="12" height="3" style="fill:rgb(255,0,0);stroke:rgb(133,132,132);stroke-width:0.5px;"/>
        <rect x="141" y="135" width="12" height="3" style="fill:rgb(255,0,0);stroke:rgb(133,132,132);stroke-width:0.5px;"/>
        <rect x="189" y="63" width="12" height="3" style="fill:rgb(255,0,0);stroke:rgb(133,132,132);stroke-width:0.5px;"/>
        <rect x="153" y="120" width="12" height="3" style="fill:rgb(255,0,0);stroke:rgb(133,132,132);stroke-width:0.5px;"/>
        <rect x="201" y="54" width="12" height="3" style="fill:rgb(255,0,0);stroke:rgb(133,132,132);stroke-width:0.5px;"/>
        <rect x="309" y="132" width="12" height="3" style="fill:rgb(255,0,0);stroke:rgb(133,132,132);stroke-width:0.5px;"/>
        <rect x="357" y="96" width="12" height="3" style="fill:rgb(255,0,0);stroke:rgb(133,132,132);stroke-width:0.5px;"/>
        <rect x="321" y="120" width="12" height="3" style="fill:rgb(255,0,0);stroke:rgb(133,132,132);stroke-width:0.5px;"/>
        <rect x="369" y="84" width="12" height="3" style="fill:rgb(255,0,0);stroke:rgb(133,132,132);stroke-width:0.5px;"/>
        <rect x="333" y="111" width="12" height="3" style="fill:rgb(255,0,0);stroke:rgb(133,132,132);stroke-width:0.5px;"/>
        <rect x="381" y="69" width="12" height="3" style="fill:rgb(255,0,0);stroke:rgb(133,132,132);stroke-width:0.5px;"/>
        <rect x="345" y="96" width="12" height="3" style="fill:rgb(255,0,0);stroke:rgb(133,132,132);stroke-width:0.5px;"/>
        <rect x="393" y="60" width="12" height="3" style="fill:rgb(255,0,0);stroke:rgb(133,132,132);stroke-width:0.5px;"/>
        <rect x="165" y="150" width="48" height="3" style="fill:rgb(255,0,0);stroke:rgb(133,132,132);stroke-width:0.5px;"/>
        <rect x="357" y="156" width="48" height="3" style="fill:rgb(255,0,0);stroke:rgb(133,132,132);stroke-width:0.5px;"/>
        <rect x="213" y="147" width="48" height="3" style="fill:rgb(255,0,0);stroke:rgb(133,132,132);stroke-width:0.5px;"/>
        <g transform="matrix(1,0,0,1,30.6351,-177.873)">
            <g transform="matrix(10,0,0,10,-18.6351,193.473)">
                <path d="M0.476,-0.329L0.476,-0.405L0.179,-0.405L0.179,-0.634L0.521,-0.634L0.521,-0.711L0.089,-0.711L0.089,-0L0.525,-0L0.525,-0.077L0.179,-0.077L0.179,-0.329L0.476,-0.329Z" style="fill:white;fill-rule:nonzero;"/>
            </g>
            <g transform="matrix(10,0,0,10,-12.6341,193.473)">
                <path d="M0.305,-0.432L0.154,-0.711L0.048,-0.711L0.254,-0.358L0.042,-0L0.149,-0L0.307,-0.284L0.464,-0L0.57,-0L0.358,-0.358L0.565,-0.711L0.458,-0.711L0.305,-0.432Z" style="fill:white;fill-rule:nonzero;"/>
            </g>
            <g transform="matrix(10,0,0,10,-6.63315,193.473)">
                <path d="M0.424,-0.184L0.48,-0L0.57,-0L0.345,-0.711L0.269,-0.711L0.04,-0L0.13,-0L0.187,-0.184L0.424,-0.184ZM0.211,-0.263L0.307,-0.571L0.4,-0.263L0.211,-0.263Z" style="fill:white;fill-rule:nonzero;"/>
            </g>
            <g transform="matrix(10,0,0,10,-0.632173,193.473)">
                <path d="M0.184,-0.711L0.072,-0.711L0.072,-0L0.16,-0L0.16,-0.284L0.153,-0.57L0.273,-0.198L0.325,-0.198L0.457,-0.581L0.449,-0.284L0.449,-0L0.537,-0L0.537,-0.711L0.425,-0.711L0.3,-0.355L0.184,-0.711Z" style="fill:white;fill-rule:nonzero;"/>
            </g>
            <g transform="matrix(10,0,0,10,5.3688,193.473)">
                <path d="M0.184,-0.285L0.324,-0.285C0.356,-0.285 0.386,-0.29 0.414,-0.3C0.443,-0.309 0.468,-0.323 0.489,-0.341C0.511,-0.359 0.528,-0.381 0.54,-0.407C0.553,-0.433 0.559,-0.463 0.559,-0.498C0.559,-0.532 0.553,-0.562 0.54,-0.588C0.528,-0.615 0.511,-0.637 0.489,-0.655C0.468,-0.673 0.443,-0.686 0.414,-0.696C0.386,-0.705 0.356,-0.71 0.324,-0.711L0.093,-0.711L0.093,-0L0.184,-0L0.184,-0.285ZM0.184,-0.359L0.184,-0.637L0.324,-0.637C0.345,-0.636 0.364,-0.633 0.382,-0.626C0.399,-0.62 0.415,-0.611 0.428,-0.599C0.44,-0.587 0.45,-0.572 0.458,-0.555C0.465,-0.537 0.469,-0.518 0.469,-0.497C0.469,-0.475 0.465,-0.456 0.458,-0.439C0.45,-0.422 0.44,-0.408 0.427,-0.396C0.414,-0.385 0.399,-0.376 0.381,-0.369C0.364,-0.363 0.345,-0.36 0.324,-0.359L0.184,-0.359Z" style="fill:white;fill-rule:nonzero;"/>
            </g>
            <g transform="matrix(10,0,0,10,11.3698,193.473)">
                <path d="M0.187,-0.077L0.187,-0.711L0.097,-0.711L0.097,-0L0.535,-0L0.535,-0.077L0.187,-0.077Z" style="fill:white;fill-rule:nonzero;"/>
            </g>
            <g transform="matrix(10,0,0,10,17.3708,193.473)">
                <path d="M0.476,-0.329L0.476,-0.405L0.179,-0.405L0.179,-0.634L0.521,-0.634L0.521,-0.711L0.089,-0.711L0.089,-0L0.525,-0L0.525,-0.077L0.179,-0.077L0.179,-0.329L0.476,-0.329Z" style="fill:white;fill-rule:nonzero;"/>
            </g>
            <g transform="matrix(10,0,0,10,29.3727,193.473)">
                <path d="M0.48,-0.314L0.48,-0.391L0.185,-0.391L0.185,-0.634L0.53,-0.634L0.53,-0.711L0.093,-0.711L0.093,-0L0.185,-0L0.185,-0.314L0.48,-0.314Z" style="fill:white;fill-rule:nonzero;"/>
            </g>
            <g transform="matrix(10,0,0,10,53.3766,193.473)">
                <path d="M0.436,-0.14C0.436,-0.132 0.434,-0.124 0.431,-0.116C0.428,-0.109 0.423,-0.102 0.417,-0.096C0.407,-0.086 0.393,-0.078 0.375,-0.072C0.357,-0.066 0.336,-0.063 0.312,-0.063C0.297,-0.063 0.281,-0.065 0.266,-0.068C0.25,-0.072 0.236,-0.077 0.223,-0.085C0.21,-0.093 0.199,-0.103 0.191,-0.116C0.182,-0.128 0.177,-0.144 0.176,-0.163L0.085,-0.163C0.085,-0.14 0.091,-0.118 0.101,-0.098C0.111,-0.077 0.126,-0.059 0.146,-0.043C0.165,-0.027 0.188,-0.014 0.216,-0.005C0.244,0.005 0.276,0.01 0.312,0.01C0.343,0.01 0.372,0.006 0.398,-0.001C0.425,-0.009 0.447,-0.02 0.466,-0.033C0.485,-0.047 0.5,-0.063 0.51,-0.083C0.521,-0.102 0.526,-0.123 0.526,-0.146C0.526,-0.168 0.522,-0.188 0.512,-0.204C0.503,-0.221 0.49,-0.235 0.472,-0.248C0.455,-0.26 0.433,-0.271 0.407,-0.28C0.382,-0.289 0.352,-0.297 0.32,-0.304C0.295,-0.309 0.275,-0.314 0.259,-0.319C0.242,-0.324 0.23,-0.33 0.22,-0.336C0.21,-0.343 0.204,-0.35 0.2,-0.358C0.196,-0.367 0.194,-0.376 0.194,-0.386C0.194,-0.396 0.196,-0.406 0.201,-0.416C0.206,-0.425 0.213,-0.433 0.223,-0.44C0.233,-0.448 0.245,-0.453 0.259,-0.458C0.274,-0.462 0.29,-0.464 0.31,-0.464C0.328,-0.464 0.345,-0.461 0.36,-0.456C0.374,-0.451 0.387,-0.444 0.397,-0.436C0.408,-0.427 0.416,-0.417 0.422,-0.406C0.428,-0.396 0.431,-0.384 0.431,-0.373L0.521,-0.373C0.521,-0.396 0.516,-0.418 0.506,-0.438C0.496,-0.458 0.482,-0.475 0.464,-0.49C0.446,-0.505 0.424,-0.517 0.397,-0.525C0.371,-0.534 0.342,-0.538 0.31,-0.538C0.279,-0.538 0.252,-0.534 0.226,-0.526C0.201,-0.518 0.179,-0.507 0.161,-0.493C0.143,-0.479 0.129,-0.462 0.119,-0.444C0.109,-0.425 0.104,-0.405 0.104,-0.383C0.104,-0.361 0.108,-0.342 0.118,-0.326C0.128,-0.309 0.142,-0.295 0.16,-0.283C0.177,-0.271 0.198,-0.26 0.223,-0.251C0.248,-0.243 0.276,-0.235 0.306,-0.229C0.331,-0.224 0.352,-0.219 0.368,-0.213C0.385,-0.207 0.398,-0.2 0.408,-0.193C0.418,-0.186 0.425,-0.178 0.43,-0.169C0.434,-0.161 0.436,-0.151 0.436,-0.14Z" style="fill:white;fill-rule:nonzero;"/>
            </g>
            <g transform="matrix(10,0,0,10,59.3776,193.473)">
                <path d="M0.299,-0.656L0.208,-0.656L0.208,-0.528L0.069,-0.528L0.069,-0.458L0.208,-0.458L0.208,-0.171C0.208,-0.139 0.212,-0.111 0.221,-0.088C0.23,-0.065 0.241,-0.047 0.256,-0.032C0.271,-0.018 0.289,-0.007 0.309,-0C0.33,0.006 0.352,0.01 0.375,0.01C0.389,0.01 0.403,0.009 0.417,0.008C0.431,0.007 0.445,0.005 0.458,0.002C0.47,-0 0.482,-0.003 0.493,-0.007C0.503,-0.01 0.513,-0.014 0.52,-0.019L0.507,-0.083C0.502,-0.081 0.495,-0.08 0.486,-0.078C0.477,-0.076 0.468,-0.074 0.458,-0.073C0.448,-0.071 0.438,-0.07 0.428,-0.069C0.417,-0.067 0.407,-0.067 0.397,-0.067C0.384,-0.067 0.372,-0.069 0.36,-0.072C0.348,-0.075 0.337,-0.081 0.328,-0.089C0.319,-0.097 0.312,-0.107 0.307,-0.121C0.301,-0.134 0.299,-0.151 0.299,-0.171L0.299,-0.458L0.5,-0.458L0.5,-0.528L0.299,-0.528L0.299,-0.656Z" style="fill:white;fill-rule:nonzero;"/>
            </g>
            <g transform="matrix(10,0,0,10,65.3786,193.473)">
                <path d="M0.432,-0L0.526,-0L0.526,-0.008C0.521,-0.022 0.516,-0.04 0.513,-0.059C0.509,-0.079 0.508,-0.098 0.508,-0.115L0.508,-0.361C0.508,-0.39 0.502,-0.416 0.492,-0.438C0.481,-0.461 0.466,-0.479 0.448,-0.494C0.429,-0.509 0.407,-0.52 0.381,-0.527C0.355,-0.534 0.327,-0.538 0.297,-0.538C0.264,-0.538 0.235,-0.534 0.209,-0.524C0.183,-0.515 0.161,-0.503 0.144,-0.489C0.125,-0.474 0.111,-0.457 0.102,-0.438C0.092,-0.42 0.087,-0.401 0.087,-0.382L0.178,-0.382C0.178,-0.393 0.18,-0.404 0.186,-0.414C0.191,-0.424 0.199,-0.433 0.208,-0.44C0.218,-0.448 0.23,-0.454 0.244,-0.458C0.259,-0.463 0.275,-0.465 0.292,-0.465C0.312,-0.465 0.329,-0.463 0.344,-0.458C0.36,-0.453 0.373,-0.446 0.384,-0.438C0.395,-0.428 0.403,-0.417 0.409,-0.405C0.415,-0.392 0.417,-0.378 0.417,-0.362L0.417,-0.32L0.319,-0.32C0.282,-0.32 0.249,-0.317 0.219,-0.31C0.189,-0.302 0.164,-0.292 0.143,-0.277C0.121,-0.263 0.105,-0.244 0.094,-0.223C0.082,-0.201 0.076,-0.175 0.076,-0.146C0.076,-0.124 0.08,-0.104 0.089,-0.085C0.098,-0.066 0.11,-0.049 0.126,-0.036C0.142,-0.022 0.161,-0.011 0.183,-0.002C0.206,0.006 0.231,0.01 0.259,0.01C0.277,0.01 0.293,0.008 0.308,0.004C0.323,0.001 0.338,-0.004 0.352,-0.01C0.365,-0.016 0.377,-0.024 0.388,-0.032C0.4,-0.04 0.41,-0.049 0.419,-0.058C0.42,-0.047 0.421,-0.036 0.424,-0.026C0.426,-0.015 0.429,-0.007 0.432,-0ZM0.272,-0.069C0.255,-0.069 0.239,-0.071 0.226,-0.076C0.213,-0.08 0.202,-0.087 0.193,-0.095C0.184,-0.103 0.177,-0.112 0.173,-0.123C0.169,-0.134 0.167,-0.146 0.167,-0.159C0.167,-0.173 0.169,-0.185 0.174,-0.196C0.179,-0.207 0.187,-0.216 0.196,-0.224C0.21,-0.235 0.228,-0.243 0.252,-0.248C0.275,-0.254 0.302,-0.256 0.333,-0.256L0.417,-0.256L0.417,-0.149C0.412,-0.139 0.405,-0.129 0.396,-0.119C0.387,-0.11 0.376,-0.101 0.364,-0.094C0.351,-0.086 0.337,-0.08 0.322,-0.076C0.306,-0.071 0.29,-0.069 0.272,-0.069Z" style="fill:white;fill-rule:nonzero;"/>
            </g>
            <g transform="matrix(10,0,0,10,71.3795,193.473)">
                <path d="M0.431,-0.538C0.393,-0.538 0.358,-0.53 0.328,-0.513C0.298,-0.496 0.272,-0.473 0.251,-0.444L0.25,-0.458L0.247,-0.528L0.161,-0.528L0.161,-0L0.251,-0L0.251,-0.339C0.257,-0.355 0.265,-0.37 0.274,-0.383C0.283,-0.396 0.293,-0.407 0.305,-0.417C0.319,-0.427 0.334,-0.435 0.352,-0.44C0.37,-0.446 0.39,-0.448 0.412,-0.448C0.429,-0.448 0.446,-0.447 0.462,-0.446C0.477,-0.444 0.494,-0.441 0.512,-0.437L0.524,-0.525C0.515,-0.529 0.501,-0.532 0.483,-0.535C0.465,-0.537 0.448,-0.538 0.431,-0.538Z" style="fill:white;fill-rule:nonzero;"/>
            </g>
            <g transform="matrix(10,0,0,10,77.3805,193.473)">
                <path d="M0.299,-0.656L0.208,-0.656L0.208,-0.528L0.069,-0.528L0.069,-0.458L0.208,-0.458L0.208,-0.171C0.208,-0.139 0.212,-0.111 0.221,-0.088C0.23,-0.065 0.241,-0.047 0.256,-0.032C0.271,-0.018 0.289,-0.007 0.309,-0C0.33,0.006 0.352,0.01 0.375,0.01C0.389,0.01 0.403,0.009 0.417,0.008C0.431,0.007 0.445,0.005 0.458,0.002C0.47,-0 0.482,-0.003 0.493,-0.007C0.503,-0.01 0.513,-0.014 0.52,-0.019L0.507,-0.083C0.502,-0.081 0.495,-0.08 0.486,-0.078C0.477,-0.076 0.468,-0.074 0.458,-0.073C0.448,-0.071 0.438,-0.07 0.428,-0.069C0.417,-0.067 0.407,-0.067 0.397,-0.067C0.384,-0.067 0.372,-0.069 0.36,-0.072C0.348,-0.075 0.337,-0.081 0.328,-0.089C0.319,-0.097 0.312,-0.107 0.307,-0.121C0.301,-0.134 0.299,-0.151 0.299,-0.171L0.299,-0.458L0.5,-0.458L0.5,-0.528L0.299,-0.528L0.299,-0.656Z" style="fill:white;fill-rule:nonzero;"/>
            </g>
            <g transform="matrix(10,0,0,10,83.3815,193.473)">
                <path d="M0.267,-0.059C0.267,-0.04 0.273,-0.024 0.284,-0.01C0.296,0.003 0.314,0.009 0.337,0.009C0.361,0.009 0.378,0.003 0.391,-0.01C0.403,-0.023 0.409,-0.039 0.409,-0.059C0.409,-0.078 0.403,-0.095 0.391,-0.108C0.379,-0.122 0.361,-0.128 0.337,-0.128C0.314,-0.128 0.296,-0.122 0.284,-0.108C0.272,-0.094 0.267,-0.078 0.267,-0.059ZM0.267,-0.486C0.267,-0.467 0.273,-0.451 0.284,-0.438C0.296,-0.425 0.314,-0.418 0.337,-0.418C0.361,-0.418 0.378,-0.425 0.391,-0.438C0.403,-0.451 0.409,-0.467 0.409,-0.486C0.409,-0.506 0.403,-0.522 0.391,-0.536C0.379,-0.549 0.361,-0.556 0.337,-0.556C0.314,-0.556 0.296,-0.549 0.284,-0.536C0.272,-0.522 0.267,-0.506 0.267,-0.486Z" style="fill:white;fill-rule:nonzero;"/>
            </g>
            <g transform="matrix(10,0,0,10,95.3835,193.473)">
                <path d="M0.533,-0.258L0.533,-0.269C0.533,-0.296 0.53,-0.323 0.526,-0.347C0.521,-0.372 0.515,-0.395 0.506,-0.416C0.497,-0.434 0.488,-0.45 0.477,-0.465C0.465,-0.48 0.453,-0.493 0.439,-0.503C0.423,-0.514 0.406,-0.523 0.387,-0.529C0.368,-0.535 0.347,-0.538 0.324,-0.538C0.306,-0.538 0.289,-0.536 0.273,-0.533C0.257,-0.529 0.243,-0.524 0.23,-0.517C0.22,-0.512 0.21,-0.505 0.201,-0.497C0.192,-0.49 0.183,-0.481 0.176,-0.472L0.176,-0.75L0.085,-0.75L0.085,-0L0.168,-0L0.173,-0.06C0.179,-0.053 0.185,-0.046 0.191,-0.04C0.198,-0.033 0.205,-0.028 0.212,-0.022C0.227,-0.012 0.244,-0.004 0.262,0.001C0.281,0.007 0.302,0.01 0.325,0.01C0.345,0.01 0.363,0.007 0.38,0.002C0.397,-0.002 0.413,-0.009 0.427,-0.018C0.447,-0.031 0.464,-0.047 0.478,-0.066C0.492,-0.086 0.504,-0.107 0.513,-0.132C0.519,-0.15 0.524,-0.17 0.528,-0.192C0.531,-0.213 0.533,-0.235 0.533,-0.258ZM0.442,-0.269L0.442,-0.258C0.442,-0.243 0.441,-0.227 0.439,-0.212C0.438,-0.197 0.434,-0.183 0.43,-0.17C0.425,-0.153 0.418,-0.138 0.409,-0.124C0.4,-0.11 0.389,-0.098 0.376,-0.089C0.367,-0.082 0.356,-0.076 0.343,-0.073C0.331,-0.069 0.317,-0.067 0.302,-0.067C0.287,-0.067 0.272,-0.069 0.259,-0.073C0.246,-0.077 0.235,-0.083 0.224,-0.09C0.214,-0.098 0.205,-0.107 0.197,-0.116C0.189,-0.126 0.182,-0.137 0.176,-0.149L0.176,-0.38C0.181,-0.392 0.188,-0.402 0.196,-0.412C0.204,-0.422 0.213,-0.431 0.224,-0.438C0.234,-0.446 0.245,-0.451 0.258,-0.455C0.271,-0.459 0.286,-0.461 0.301,-0.461C0.316,-0.461 0.329,-0.46 0.34,-0.457C0.352,-0.453 0.363,-0.449 0.372,-0.443C0.386,-0.435 0.397,-0.424 0.407,-0.409C0.416,-0.395 0.424,-0.379 0.43,-0.362C0.434,-0.348 0.437,-0.333 0.439,-0.317C0.441,-0.301 0.442,-0.285 0.442,-0.269Z" style="fill:white;fill-rule:nonzero;"/>
            </g>
            <g transform="matrix(10,0,0,10,101.384,193.473)">
                <path d="M0.099,-0.75L0.099,-0.671L0.279,-0.671L0.279,-0.078L0.099,-0.078L0.099,-0L0.542,-0L0.542,-0.078L0.369,-0.078L0.369,-0.75L0.099,-0.75Z" style="fill:white;fill-rule:nonzero;"/>
            </g>
            <g transform="matrix(10,0,0,10,107.385,193.473)">
                <path d="M0.432,-0L0.526,-0L0.526,-0.008C0.521,-0.022 0.516,-0.04 0.513,-0.059C0.509,-0.079 0.508,-0.098 0.508,-0.115L0.508,-0.361C0.508,-0.39 0.502,-0.416 0.492,-0.438C0.481,-0.461 0.466,-0.479 0.448,-0.494C0.429,-0.509 0.407,-0.52 0.381,-0.527C0.355,-0.534 0.327,-0.538 0.297,-0.538C0.264,-0.538 0.235,-0.534 0.209,-0.524C0.183,-0.515 0.161,-0.503 0.144,-0.489C0.125,-0.474 0.111,-0.457 0.102,-0.438C0.092,-0.42 0.087,-0.401 0.087,-0.382L0.178,-0.382C0.178,-0.393 0.18,-0.404 0.186,-0.414C0.191,-0.424 0.199,-0.433 0.208,-0.44C0.218,-0.448 0.23,-0.454 0.244,-0.458C0.259,-0.463 0.275,-0.465 0.292,-0.465C0.312,-0.465 0.329,-0.463 0.344,-0.458C0.36,-0.453 0.373,-0.446 0.384,-0.438C0.395,-0.428 0.403,-0.417 0.409,-0.405C0.415,-0.392 0.417,-0.378 0.417,-0.362L0.417,-0.32L0.319,-0.32C0.282,-0.32 0.249,-0.317 0.219,-0.31C0.189,-0.302 0.164,-0.292 0.143,-0.277C0.121,-0.263 0.105,-0.244 0.094,-0.223C0.082,-0.201 0.076,-0.175 0.076,-0.146C0.076,-0.124 0.08,-0.104 0.089,-0.085C0.098,-0.066 0.11,-0.049 0.126,-0.036C0.142,-0.022 0.161,-0.011 0.183,-0.002C0.206,0.006 0.231,0.01 0.259,0.01C0.277,0.01 0.293,0.008 0.308,0.004C0.323,0.001 0.338,-0.004 0.352,-0.01C0.365,-0.016 0.377,-0.024 0.388,-0.032C0.4,-0.04 0.41,-0.049 0.419,-0.058C0.42,-0.047 0.421,-0.036 0.424,-0.026C0.426,-0.015 0.429,-0.007 0.432,-0ZM0.272,-0.069C0.255,-0.069 0.239,-0.071 0.226,-0.076C0.213,-0.08 0.202,-0.087 0.193,-0.095C0.184,-0.103 0.177,-0.112 0.173,-0.123C0.169,-0.134 0.167,-0.146 0.167,-0.159C0.167,-0.173 0.169,-0.185 0.174,-0.196C0.179,-0.207 0.187,-0.216 0.196,-0.224C0.21,-0.235 0.228,-0.243 0.252,-0.248C0.275,-0.254 0.302,-0.256 0.333,-0.256L0.417,-0.256L0.417,-0.149C0.412,-0.139 0.405,-0.129 0.396,-0.119C0.387,-0.11 0.376,-0.101 0.364,-0.094C0.351,-0.086 0.337,-0.08 0.322,-0.076C0.306,-0.071 0.29,-0.069 0.272,-0.069Z" style="fill:white;fill-rule:nonzero;"/>
            </g>
            <g transform="matrix(10,0,0,10,113.386,193.473)">
                <path d="M0.085,-0L0.175,-0L0.175,-0.379C0.181,-0.39 0.189,-0.401 0.197,-0.41C0.205,-0.42 0.214,-0.428 0.224,-0.435C0.236,-0.443 0.249,-0.45 0.264,-0.454C0.278,-0.459 0.293,-0.461 0.31,-0.461C0.329,-0.461 0.346,-0.459 0.361,-0.455C0.376,-0.45 0.389,-0.443 0.399,-0.433C0.409,-0.423 0.417,-0.409 0.422,-0.393C0.427,-0.377 0.43,-0.357 0.43,-0.333L0.43,-0L0.52,-0L0.52,-0.335C0.52,-0.371 0.516,-0.401 0.507,-0.427C0.498,-0.452 0.486,-0.473 0.47,-0.49C0.454,-0.506 0.435,-0.519 0.412,-0.526C0.39,-0.534 0.365,-0.538 0.337,-0.538C0.316,-0.538 0.297,-0.535 0.279,-0.529C0.26,-0.523 0.243,-0.515 0.228,-0.505C0.217,-0.498 0.207,-0.49 0.198,-0.481C0.189,-0.471 0.18,-0.461 0.172,-0.45L0.166,-0.528L0.085,-0.528L0.085,-0Z" style="fill:white;fill-rule:nonzero;"/>
            </g>
            <g transform="matrix(10,0,0,10,119.387,193.473)">
                <path d="M0.243,-0.247L0.437,-0L0.552,-0L0.305,-0.308L0.519,-0.528L0.409,-0.528L0.236,-0.354L0.177,-0.291L0.177,-0.75L0.086,-0.75L0.086,-0L0.177,-0L0.177,-0.183L0.243,-0.247Z" style="fill:white;fill-rule:nonzero;"/>
            </g>
            <g transform="matrix(10,0,0,10,131.389,193.473)">
                <path d="M0.436,-0.14C0.436,-0.132 0.434,-0.124 0.431,-0.116C0.428,-0.109 0.423,-0.102 0.417,-0.096C0.407,-0.086 0.393,-0.078 0.375,-0.072C0.357,-0.066 0.336,-0.063 0.312,-0.063C0.297,-0.063 0.281,-0.065 0.266,-0.068C0.25,-0.072 0.236,-0.077 0.223,-0.085C0.21,-0.093 0.199,-0.103 0.191,-0.116C0.182,-0.128 0.177,-0.144 0.176,-0.163L0.085,-0.163C0.085,-0.14 0.091,-0.118 0.101,-0.098C0.111,-0.077 0.126,-0.059 0.146,-0.043C0.165,-0.027 0.188,-0.014 0.216,-0.005C0.244,0.005 0.276,0.01 0.312,0.01C0.343,0.01 0.372,0.006 0.398,-0.001C0.425,-0.009 0.447,-0.02 0.466,-0.033C0.485,-0.047 0.5,-0.063 0.51,-0.083C0.521,-0.102 0.526,-0.123 0.526,-0.146C0.526,-0.168 0.522,-0.188 0.512,-0.204C0.503,-0.221 0.49,-0.235 0.472,-0.248C0.455,-0.26 0.433,-0.271 0.407,-0.28C0.382,-0.289 0.352,-0.297 0.32,-0.304C0.295,-0.309 0.275,-0.314 0.259,-0.319C0.242,-0.324 0.23,-0.33 0.22,-0.336C0.21,-0.343 0.204,-0.35 0.2,-0.358C0.196,-0.367 0.194,-0.376 0.194,-0.386C0.194,-0.396 0.196,-0.406 0.201,-0.416C0.206,-0.425 0.213,-0.433 0.223,-0.44C0.233,-0.448 0.245,-0.453 0.259,-0.458C0.274,-0.462 0.29,-0.464 0.31,-0.464C0.328,-0.464 0.345,-0.461 0.36,-0.456C0.374,-0.451 0.387,-0.444 0.397,-0.436C0.408,-0.427 0.416,-0.417 0.422,-0.406C0.428,-0.396 0.431,-0.384 0.431,-0.373L0.521,-0.373C0.521,-0.396 0.516,-0.418 0.506,-0.438C0.496,-0.458 0.482,-0.475 0.464,-0.49C0.446,-0.505 0.424,-0.517 0.397,-0.525C0.371,-0.534 0.342,-0.538 0.31,-0.538C0.279,-0.538 0.252,-0.534 0.226,-0.526C0.201,-0.518 0.179,-0.507 0.161,-0.493C0.143,-0.479 0.129,-0.462 0.119,-0.444C0.109,-0.425 0.104,-0.405 0.104,-0.383C0.104,-0.361 0.108,-0.342 0.118,-0.326C0.128,-0.309 0.142,-0.295 0.16,-0.283C0.177,-0.271 0.198,-0.26 0.223,-0.251C0.248,-0.243 0.276,-0.235 0.306,-0.229C0.331,-0.224 0.352,-0.219 0.368,-0.213C0.385,-0.207 0.398,-0.2 0.408,-0.193C0.418,-0.186 0.425,-0.178 0.43,-0.169C0.434,-0.161 0.436,-0.151 0.436,-0.14Z" style="fill:white;fill-rule:nonzero;"/>
            </g>
            <g transform="matrix(10,0,0,10,137.39,193.473)">
                <path d="M0.299,-0.656L0.208,-0.656L0.208,-0.528L0.069,-0.528L0.069,-0.458L0.208,-0.458L0.208,-0.171C0.208,-0.139 0.212,-0.111 0.221,-0.088C0.23,-0.065 0.241,-0.047 0.256,-0.032C0.271,-0.018 0.289,-0.007 0.309,-0C0.33,0.006 0.352,0.01 0.375,0.01C0.389,0.01 0.403,0.009 0.417,0.008C0.431,0.007 0.445,0.005 0.458,0.002C0.47,-0 0.482,-0.003 0.493,-0.007C0.503,-0.01 0.513,-0.014 0.52,-0.019L0.507,-0.083C0.502,-0.081 0.495,-0.08 0.486,-0.078C0.477,-0.076 0.468,-0.074 0.458,-0.073C0.448,-0.071 0.438,-0.07 0.428,-0.069C0.417,-0.067 0.407,-0.067 0.397,-0.067C0.384,-0.067 0.372,-0.069 0.36,-0.072C0.348,-0.075 0.337,-0.081 0.328,-0.089C0.319,-0.097 0.312,-0.107 0.307,-0.121C0.301,-0.134 0.299,-0.151 0.299,-0.171L0.299,-0.458L0.5,-0.458L0.5,-0.528L0.299,-0.528L0.299,-0.656Z" style="fill:white;fill-rule:nonzero;"/>
            </g>
            <g transform="matrix(10,0,0,10,143.391,193.473)">
                <path d="M0.318,0.01C0.37,0.01 0.413,-0.001 0.448,-0.021C0.483,-0.042 0.509,-0.066 0.527,-0.092L0.472,-0.135C0.455,-0.114 0.434,-0.097 0.409,-0.083C0.384,-0.07 0.355,-0.064 0.323,-0.064C0.299,-0.064 0.277,-0.069 0.256,-0.078C0.236,-0.087 0.219,-0.099 0.205,-0.115C0.191,-0.13 0.18,-0.147 0.172,-0.167C0.164,-0.187 0.159,-0.209 0.156,-0.235L0.156,-0.238L0.534,-0.238L0.534,-0.279C0.534,-0.316 0.529,-0.35 0.52,-0.381C0.51,-0.413 0.496,-0.44 0.478,-0.464C0.459,-0.487 0.435,-0.505 0.406,-0.518C0.378,-0.531 0.345,-0.538 0.307,-0.538C0.276,-0.538 0.247,-0.532 0.218,-0.52C0.189,-0.507 0.164,-0.489 0.141,-0.466C0.118,-0.443 0.1,-0.414 0.086,-0.381C0.073,-0.347 0.066,-0.309 0.066,-0.266L0.066,-0.246C0.066,-0.209 0.072,-0.175 0.084,-0.144C0.097,-0.112 0.114,-0.085 0.136,-0.063C0.158,-0.04 0.185,-0.022 0.216,-0.009C0.247,0.003 0.281,0.01 0.318,0.01ZM0.307,-0.464C0.33,-0.464 0.35,-0.46 0.366,-0.451C0.383,-0.443 0.397,-0.432 0.408,-0.418C0.419,-0.404 0.428,-0.388 0.434,-0.369C0.44,-0.351 0.443,-0.333 0.443,-0.317L0.443,-0.313L0.159,-0.313C0.163,-0.337 0.169,-0.358 0.178,-0.377C0.187,-0.396 0.198,-0.412 0.211,-0.425C0.224,-0.438 0.239,-0.447 0.255,-0.454C0.271,-0.461 0.288,-0.464 0.307,-0.464Z" style="fill:white;fill-rule:nonzero;"/>
            </g>
            <g transform="matrix(10,0,0,10,149.392,193.473)">
                <path d="M0.084,0.203L0.175,0.203L0.175,-0.051C0.181,-0.044 0.188,-0.037 0.196,-0.031C0.203,-0.025 0.211,-0.02 0.22,-0.015C0.234,-0.007 0.249,-0.001 0.267,0.003C0.284,0.008 0.303,0.01 0.323,0.01C0.356,0.01 0.386,0.003 0.412,-0.011C0.438,-0.024 0.459,-0.043 0.477,-0.067C0.495,-0.091 0.508,-0.12 0.517,-0.153C0.526,-0.185 0.531,-0.221 0.531,-0.258L0.531,-0.269C0.531,-0.308 0.526,-0.344 0.517,-0.377C0.508,-0.41 0.495,-0.439 0.477,-0.462C0.459,-0.486 0.438,-0.505 0.412,-0.518C0.386,-0.531 0.356,-0.538 0.322,-0.538C0.303,-0.538 0.285,-0.536 0.268,-0.532C0.251,-0.528 0.236,-0.522 0.222,-0.514C0.212,-0.509 0.203,-0.503 0.195,-0.495C0.186,-0.488 0.179,-0.48 0.171,-0.471L0.167,-0.528L0.084,-0.528L0.084,0.203ZM0.44,-0.269L0.44,-0.258C0.44,-0.233 0.438,-0.208 0.432,-0.185C0.426,-0.161 0.417,-0.14 0.406,-0.123C0.394,-0.105 0.379,-0.09 0.361,-0.08C0.343,-0.069 0.321,-0.064 0.296,-0.064C0.28,-0.064 0.266,-0.066 0.253,-0.07C0.24,-0.074 0.229,-0.079 0.218,-0.086C0.209,-0.092 0.201,-0.099 0.194,-0.107C0.187,-0.116 0.18,-0.125 0.175,-0.135L0.175,-0.389C0.181,-0.4 0.188,-0.41 0.196,-0.419C0.204,-0.429 0.214,-0.436 0.224,-0.442C0.234,-0.449 0.244,-0.453 0.256,-0.457C0.268,-0.46 0.281,-0.461 0.295,-0.461C0.32,-0.461 0.342,-0.456 0.36,-0.446C0.379,-0.435 0.394,-0.421 0.406,-0.404C0.417,-0.386 0.426,-0.365 0.432,-0.342C0.438,-0.319 0.44,-0.294 0.44,-0.269Z" style="fill:white;fill-rule:nonzero;"/>
            </g>
            <g transform="matrix(10,0,0,10,155.393,193.473)">
                <path d="M0.436,-0.14C0.436,-0.132 0.434,-0.124 0.431,-0.116C0.428,-0.109 0.423,-0.102 0.417,-0.096C0.407,-0.086 0.393,-0.078 0.375,-0.072C0.357,-0.066 0.336,-0.063 0.312,-0.063C0.297,-0.063 0.281,-0.065 0.266,-0.068C0.25,-0.072 0.236,-0.077 0.223,-0.085C0.21,-0.093 0.199,-0.103 0.191,-0.116C0.182,-0.128 0.177,-0.144 0.176,-0.163L0.085,-0.163C0.085,-0.14 0.091,-0.118 0.101,-0.098C0.111,-0.077 0.126,-0.059 0.146,-0.043C0.165,-0.027 0.188,-0.014 0.216,-0.005C0.244,0.005 0.276,0.01 0.312,0.01C0.343,0.01 0.372,0.006 0.398,-0.001C0.425,-0.009 0.447,-0.02 0.466,-0.033C0.485,-0.047 0.5,-0.063 0.51,-0.083C0.521,-0.102 0.526,-0.123 0.526,-0.146C0.526,-0.168 0.522,-0.188 0.512,-0.204C0.503,-0.221 0.49,-0.235 0.472,-0.248C0.455,-0.26 0.433,-0.271 0.407,-0.28C0.382,-0.289 0.352,-0.297 0.32,-0.304C0.295,-0.309 0.275,-0.314 0.259,-0.319C0.242,-0.324 0.23,-0.33 0.22,-0.336C0.21,-0.343 0.204,-0.35 0.2,-0.358C0.196,-0.367 0.194,-0.376 0.194,-0.386C0.194,-0.396 0.196,-0.406 0.201,-0.416C0.206,-0.425 0.213,-0.433 0.223,-0.44C0.233,-0.448 0.245,-0.453 0.259,-0.458C0.274,-0.462 0.29,-0.464 0.31,-0.464C0.328,-0.464 0.345,-0.461 0.36,-0.456C0.374,-0.451 0.387,-0.444 0.397,-0.436C0.408,-0.427 0.416,-0.417 0.422,-0.406C0.428,-0.396 0.431,-0.384 0.431,-0.373L0.521,-0.373C0.521,-0.396 0.516,-0.418 0.506,-0.438C0.496,-0.458 0.482,-0.475 0.464,-0.49C0.446,-0.505 0.424,-0.517 0.397,-0.525C0.371,-0.534 0.342,-0.538 0.31,-0.538C0.279,-0.538 0.252,-0.534 0.226,-0.526C0.201,-0.518 0.179,-0.507 0.161,-0.493C0.143,-0.479 0.129,-0.462 0.119,-0.444C0.109,-0.425 0.104,-0.405 0.104,-0.383C0.104,-0.361 0.108,-0.342 0.118,-0.326C0.128,-0.309 0.142,-0.295 0.16,-0.283C0.177,-0.271 0.198,-0.26 0.223,-0.251C0.248,-0.243 0.276,-0.235 0.306,-0.229C0.331,-0.224 0.352,-0.219 0.368,-0.213C0.385,-0.207 0.398,-0.2 0.408,-0.193C0.418,-0.186 0.425,-0.178 0.43,-0.169C0.434,-0.161 0.436,-0.151 0.436,-0.14Z" style="fill:white;fill-rule:nonzero;"/>
            </g>
            <rect x="-18.635" y="194.205" width="54.009" height="0.488" style="fill:white;"/>
            <g transform="matrix(10,0,0,10,53.3766,203.473)">
                <path d="M0.431,-0.538C0.393,-0.538 0.358,-0.53 0.328,-0.513C0.298,-0.496 0.272,-0.473 0.251,-0.444L0.25,-0.458L0.247,-0.528L0.161,-0.528L0.161,-0L0.251,-0L0.251,-0.339C0.257,-0.355 0.265,-0.37 0.274,-0.383C0.283,-0.396 0.293,-0.407 0.305,-0.417C0.319,-0.427 0.334,-0.435 0.352,-0.44C0.37,-0.446 0.39,-0.448 0.412,-0.448C0.429,-0.448 0.446,-0.447 0.462,-0.446C0.477,-0.444 0.494,-0.441 0.512,-0.437L0.524,-0.525C0.515,-0.529 0.501,-0.532 0.483,-0.535C0.465,-0.537 0.448,-0.538 0.431,-0.538Z" style="fill:white;fill-rule:nonzero;"/>
            </g>
            <g transform="matrix(10,0,0,10,59.3776,203.473)">
                <path d="M0.318,0.01C0.37,0.01 0.413,-0.001 0.448,-0.021C0.483,-0.042 0.509,-0.066 0.527,-0.092L0.472,-0.135C0.455,-0.114 0.434,-0.097 0.409,-0.083C0.384,-0.07 0.355,-0.064 0.323,-0.064C0.299,-0.064 0.277,-0.069 0.256,-0.078C0.236,-0.087 0.219,-0.099 0.205,-0.115C0.191,-0.13 0.18,-0.147 0.172,-0.167C0.164,-0.187 0.159,-0.209 0.156,-0.235L0.156,-0.238L0.534,-0.238L0.534,-0.279C0.534,-0.316 0.529,-0.35 0.52,-0.381C0.51,-0.413 0.496,-0.44 0.478,-0.464C0.459,-0.487 0.435,-0.505 0.406,-0.518C0.378,-0.531 0.345,-0.538 0.307,-0.538C0.276,-0.538 0.247,-0.532 0.218,-0.52C0.189,-0.507 0.164,-0.489 0.141,-0.466C0.118,-0.443 0.1,-0.414 0.086,-0.381C0.073,-0.347 0.066,-0.309 0.066,-0.266L0.066,-0.246C0.066,-0.209 0.072,-0.175 0.084,-0.144C0.097,-0.112 0.114,-0.085 0.136,-0.063C0.158,-0.04 0.185,-0.022 0.216,-0.009C0.247,0.003 0.281,0.01 0.318,0.01ZM0.307,-0.464C0.33,-0.464 0.35,-0.46 0.366,-0.451C0.383,-0.443 0.397,-0.432 0.408,-0.418C0.419,-0.404 0.428,-0.388 0.434,-0.369C0.44,-0.351 0.443,-0.333 0.443,-0.317L0.443,-0.313L0.159,-0.313C0.163,-0.337 0.169,-0.358 0.178,-0.377C0.187,-0.396 0.198,-0.412 0.211,-0.425C0.224,-0.438 0.239,-0.447 0.255,-0.454C0.271,-0.461 0.288,-0.464 0.307,-0.464Z" style="fill:white;fill-rule:nonzero;"/>
            </g>
            <g transform="matrix(10,0,0,10,65.3786,203.473)">
                <path d="M0.436,-0.14C0.436,-0.132 0.434,-0.124 0.431,-0.116C0.428,-0.109 0.423,-0.102 0.417,-0.096C0.407,-0.086 0.393,-0.078 0.375,-0.072C0.357,-0.066 0.336,-0.063 0.312,-0.063C0.297,-0.063 0.281,-0.065 0.266,-0.068C0.25,-0.072 0.236,-0.077 0.223,-0.085C0.21,-0.093 0.199,-0.103 0.191,-0.116C0.182,-0.128 0.177,-0.144 0.176,-0.163L0.085,-0.163C0.085,-0.14 0.091,-0.118 0.101,-0.098C0.111,-0.077 0.126,-0.059 0.146,-0.043C0.165,-0.027 0.188,-0.014 0.216,-0.005C0.244,0.005 0.276,0.01 0.312,0.01C0.343,0.01 0.372,0.006 0.398,-0.001C0.425,-0.009 0.447,-0.02 0.466,-0.033C0.485,-0.047 0.5,-0.063 0.51,-0.083C0.521,-0.102 0.526,-0.123 0.526,-0.146C0.526,-0.168 0.522,-0.188 0.512,-0.204C0.503,-0.221 0.49,-0.235 0.472,-0.248C0.455,-0.26 0.433,-0.271 0.407,-0.28C0.382,-0.289 0.352,-0.297 0.32,-0.304C0.295,-0.309 0.275,-0.314 0.259,-0.319C0.242,-0.324 0.23,-0.33 0.22,-0.336C0.21,-0.343 0.204,-0.35 0.2,-0.358C0.196,-0.367 0.194,-0.376 0.194,-0.386C0.194,-0.396 0.196,-0.406 0.201,-0.416C0.206,-0.425 0.213,-0.433 0.223,-0.44C0.233,-0.448 0.245,-0.453 0.259,-0.458C0.274,-0.462 0.29,-0.464 0.31,-0.464C0.328,-0.464 0.345,-0.461 0.36,-0.456C0.374,-0.451 0.387,-0.444 0.397,-0.436C0.408,-0.427 0.416,-0.417 0.422,-0.406C0.428,-0.396 0.431,-0.384 0.431,-0.373L0.521,-0.373C0.521,-0.396 0.516,-0.418 0.506,-0.438C0.496,-0.458 0.482,-0.475 0.464,-0.49C0.446,-0.505 0.424,-0.517 0.397,-0.525C0.371,-0.534 0.342,-0.538 0.31,-0.538C0.279,-0.538 0.252,-0.534 0.226,-0.526C0.201,-0.518 0.179,-0.507 0.161,-0.493C0.143,-0.479 0.129,-0.462 0.119,-0.444C0.109,-0.425 0.104,-0.405 0.104,-0.383C0.104,-0.361 0.108,-0.342 0.118,-0.326C0.128,-0.309 0.142,-0.295 0.16,-0.283C0.177,-0.271 0.198,-0.26 0.223,-0.251C0.248,-0.243 0.276,-0.235 0.306,-0.229C0.331,-0.224 0.352,-0.219 0.368,-0.213C0.385,-0.207 0.398,-0.2 0.408,-0.193C0.418,-0.186 0.425,-0.178 0.43,-0.169C0.434,-0.161 0.436,-0.151 0.436,-0.14Z" style="fill:white;fill-rule:nonzero;"/>
            </g>
            <g transform="matrix(10,0,0,10,71.3795,203.473)">
                <path d="M0.318,0.01C0.37,0.01 0.413,-0.001 0.448,-0.021C0.483,-0.042 0.509,-0.066 0.527,-0.092L0.472,-0.135C0.455,-0.114 0.434,-0.097 0.409,-0.083C0.384,-0.07 0.355,-0.064 0.323,-0.064C0.299,-0.064 0.277,-0.069 0.256,-0.078C0.236,-0.087 0.219,-0.099 0.205,-0.115C0.191,-0.13 0.18,-0.147 0.172,-0.167C0.164,-0.187 0.159,-0.209 0.156,-0.235L0.156,-0.238L0.534,-0.238L0.534,-0.279C0.534,-0.316 0.529,-0.35 0.52,-0.381C0.51,-0.413 0.496,-0.44 0.478,-0.464C0.459,-0.487 0.435,-0.505 0.406,-0.518C0.378,-0.531 0.345,-0.538 0.307,-0.538C0.276,-0.538 0.247,-0.532 0.218,-0.52C0.189,-0.507 0.164,-0.489 0.141,-0.466C0.118,-0.443 0.1,-0.414 0.086,-0.381C0.073,-0.347 0.066,-0.309 0.066,-0.266L0.066,-0.246C0.066,-0.209 0.072,-0.175 0.084,-0.144C0.097,-0.112 0.114,-0.085 0.136,-0.063C0.158,-0.04 0.185,-0.022 0.216,-0.009C0.247,0.003 0.281,0.01 0.318,0.01ZM0.307,-0.464C0.33,-0.464 0.35,-0.46 0.366,-0.451C0.383,-0.443 0.397,-0.432 0.408,-0.418C0.419,-0.404 0.428,-0.388 0.434,-0.369C0.44,-0.351 0.443,-0.333 0.443,-0.317L0.443,-0.313L0.159,-0.313C0.163,-0.337 0.169,-0.358 0.178,-0.377C0.187,-0.396 0.198,-0.412 0.211,-0.425C0.224,-0.438 0.239,-0.447 0.255,-0.454C0.271,-0.461 0.288,-0.464 0.307,-0.464Z" style="fill:white;fill-rule:nonzero;"/>
            </g>
            <g transform="matrix(10,0,0,10,77.3805,203.473)">
                <path d="M0.299,-0.656L0.208,-0.656L0.208,-0.528L0.069,-0.528L0.069,-0.458L0.208,-0.458L0.208,-0.171C0.208,-0.139 0.212,-0.111 0.221,-0.088C0.23,-0.065 0.241,-0.047 0.256,-0.032C0.271,-0.018 0.289,-0.007 0.309,-0C0.33,0.006 0.352,0.01 0.375,0.01C0.389,0.01 0.403,0.009 0.417,0.008C0.431,0.007 0.445,0.005 0.458,0.002C0.47,-0 0.482,-0.003 0.493,-0.007C0.503,-0.01 0.513,-0.014 0.52,-0.019L0.507,-0.083C0.502,-0.081 0.495,-0.08 0.486,-0.078C0.477,-0.076 0.468,-0.074 0.458,-0.073C0.448,-0.071 0.438,-0.07 0.428,-0.069C0.417,-0.067 0.407,-0.067 0.397,-0.067C0.384,-0.067 0.372,-0.069 0.36,-0.072C0.348,-0.075 0.337,-0.081 0.328,-0.089C0.319,-0.097 0.312,-0.107 0.307,-0.121C0.301,-0.134 0.299,-0.151 0.299,-0.171L0.299,-0.458L0.5,-0.458L0.5,-0.528L0.299,-0.528L0.299,-0.656Z" style="fill:white;fill-rule:nonzero;"/>
            </g>
            <g transform="matrix(10,0,0,10,83.3815,203.473)">
                <path d="M0.267,-0.059C0.267,-0.04 0.273,-0.024 0.284,-0.01C0.296,0.003 0.314,0.009 0.337,0.009C0.361,0.009 0.378,0.003 0.391,-0.01C0.403,-0.023 0.409,-0.039 0.409,-0.059C0.409,-0.078 0.403,-0.095 0.391,-0.108C0.379,-0.122 0.361,-0.128 0.337,-0.128C0.314,-0.128 0.296,-0.122 0.284,-0.108C0.272,-0.094 0.267,-0.078 0.267,-0.059ZM0.267,-0.486C0.267,-0.467 0.273,-0.451 0.284,-0.438C0.296,-0.425 0.314,-0.418 0.337,-0.418C0.361,-0.418 0.378,-0.425 0.391,-0.438C0.403,-0.451 0.409,-0.467 0.409,-0.486C0.409,-0.506 0.403,-0.522 0.391,-0.536C0.379,-0.549 0.361,-0.556 0.337,-0.556C0.314,-0.556 0.296,-0.549 0.284,-0.536C0.272,-0.522 0.267,-0.506 0.267,-0.486Z" style="fill:white;fill-rule:nonzero;"/>
            </g>
            <g transform="matrix(10,0,0,10,95.3835,203.473)">
                <path d="M0.533,-0.258L0.533,-0.269C0.533,-0.296 0.53,-0.323 0.526,-0.347C0.521,-0.372 0.515,-0.395 0.506,-0.416C0.497,-0.434 0.488,-0.45 0.477,-0.465C0.465,-0.48 0.453,-0.493 0.439,-0.503C0.423,-0.514 0.406,-0.523 0.387,-0.529C0.368,-0.535 0.347,-0.538 0.324,-0.538C0.306,-0.538 0.289,-0.536 0.273,-0.533C0.257,-0.529 0.243,-0.524 0.23,-0.517C0.22,-0.512 0.21,-0.505 0.201,-0.497C0.192,-0.49 0.183,-0.481 0.176,-0.472L0.176,-0.75L0.085,-0.75L0.085,-0L0.168,-0L0.173,-0.06C0.179,-0.053 0.185,-0.046 0.191,-0.04C0.198,-0.033 0.205,-0.028 0.212,-0.022C0.227,-0.012 0.244,-0.004 0.262,0.001C0.281,0.007 0.302,0.01 0.325,0.01C0.345,0.01 0.363,0.007 0.38,0.002C0.397,-0.002 0.413,-0.009 0.427,-0.018C0.447,-0.031 0.464,-0.047 0.478,-0.066C0.492,-0.086 0.504,-0.107 0.513,-0.132C0.519,-0.15 0.524,-0.17 0.528,-0.192C0.531,-0.213 0.533,-0.235 0.533,-0.258ZM0.442,-0.269L0.442,-0.258C0.442,-0.243 0.441,-0.227 0.439,-0.212C0.438,-0.197 0.434,-0.183 0.43,-0.17C0.425,-0.153 0.418,-0.138 0.409,-0.124C0.4,-0.11 0.389,-0.098 0.376,-0.089C0.367,-0.082 0.356,-0.076 0.343,-0.073C0.331,-0.069 0.317,-0.067 0.302,-0.067C0.287,-0.067 0.272,-0.069 0.259,-0.073C0.246,-0.077 0.235,-0.083 0.224,-0.09C0.214,-0.098 0.205,-0.107 0.197,-0.116C0.189,-0.126 0.182,-0.137 0.176,-0.149L0.176,-0.38C0.181,-0.392 0.188,-0.402 0.196,-0.412C0.204,-0.422 0.213,-0.431 0.224,-0.438C0.234,-0.446 0.245,-0.451 0.258,-0.455C0.271,-0.459 0.286,-0.461 0.301,-0.461C0.316,-0.461 0.329,-0.46 0.34,-0.457C0.352,-0.453 0.363,-0.449 0.372,-0.443C0.386,-0.435 0.397,-0.424 0.407,-0.409C0.416,-0.395 0.424,-0.379 0.43,-0.362C0.434,-0.348 0.437,-0.333 0.439,-0.317C0.441,-0.301 0.442,-0.285 0.442,-0.269Z" style="fill:white;fill-rule:nonzero;"/>
            </g>
            <g transform="matrix(10,0,0,10,101.384,203.473)">
                <path d="M0.099,-0.75L0.099,-0.671L0.279,-0.671L0.279,-0.078L0.099,-0.078L0.099,-0L0.542,-0L0.542,-0.078L0.369,-0.078L0.369,-0.75L0.099,-0.75Z" style="fill:white;fill-rule:nonzero;"/>
            </g>
            <g transform="matrix(10,0,0,10,107.385,203.473)">
                <path d="M0.432,-0L0.526,-0L0.526,-0.008C0.521,-0.022 0.516,-0.04 0.513,-0.059C0.509,-0.079 0.508,-0.098 0.508,-0.115L0.508,-0.361C0.508,-0.39 0.502,-0.416 0.492,-0.438C0.481,-0.461 0.466,-0.479 0.448,-0.494C0.429,-0.509 0.407,-0.52 0.381,-0.527C0.355,-0.534 0.327,-0.538 0.297,-0.538C0.264,-0.538 0.235,-0.534 0.209,-0.524C0.183,-0.515 0.161,-0.503 0.144,-0.489C0.125,-0.474 0.111,-0.457 0.102,-0.438C0.092,-0.42 0.087,-0.401 0.087,-0.382L0.178,-0.382C0.178,-0.393 0.18,-0.404 0.186,-0.414C0.191,-0.424 0.199,-0.433 0.208,-0.44C0.218,-0.448 0.23,-0.454 0.244,-0.458C0.259,-0.463 0.275,-0.465 0.292,-0.465C0.312,-0.465 0.329,-0.463 0.344,-0.458C0.36,-0.453 0.373,-0.446 0.384,-0.438C0.395,-0.428 0.403,-0.417 0.409,-0.405C0.415,-0.392 0.417,-0.378 0.417,-0.362L0.417,-0.32L0.319,-0.32C0.282,-0.32 0.249,-0.317 0.219,-0.31C0.189,-0.302 0.164,-0.292 0.143,-0.277C0.121,-0.263 0.105,-0.244 0.094,-0.223C0.082,-0.201 0.076,-0.175 0.076,-0.146C0.076,-0.124 0.08,-0.104 0.089,-0.085C0.098,-0.066 0.11,-0.049 0.126,-0.036C0.142,-0.022 0.161,-0.011 0.183,-0.002C0.206,0.006 0.231,0.01 0.259,0.01C0.277,0.01 0.293,0.008 0.308,0.004C0.323,0.001 0.338,-0.004 0.352,-0.01C0.365,-0.016 0.377,-0.024 0.388,-0.032C0.4,-0.04 0.41,-0.049 0.419,-0.058C0.42,-0.047 0.421,-0.036 0.424,-0.026C0.426,-0.015 0.429,-0.007 0.432,-0ZM0.272,-0.069C0.255,-0.069 0.239,-0.071 0.226,-0.076C0.213,-0.08 0.202,-0.087 0.193,-0.095C0.184,-0.103 0.177,-0.112 0.173,-0.123C0.169,-0.134 0.167,-0.146 0.167,-0.159C0.167,-0.173 0.169,-0.185 0.174,-0.196C0.179,-0.207 0.187,-0.216 0.196,-0.224C0.21,-0.235 0.228,-0.243 0.252,-0.248C0.275,-0.254 0.302,-0.256 0.333,-0.256L0.417,-0.256L0.417,-0.149C0.412,-0.139 0.405,-0.129 0.396,-0.119C0.387,-0.11 0.376,-0.101 0.364,-0.094C0.351,-0.086 0.337,-0.08 0.322,-0.076C0.306,-0.071 0.29,-0.069 0.272,-0.069Z" style="fill:white;fill-rule:nonzero;"/>
            </g>
            <g transform="matrix(10,0,0,10,113.386,203.473)">
                <path d="M0.085,-0L0.175,-0L0.175,-0.379C0.181,-0.39 0.189,-0.401 0.197,-0.41C0.205,-0.42 0.214,-0.428 0.224,-0.435C0.236,-0.443 0.249,-0.45 0.264,-0.454C0.278,-0.459 0.293,-0.461 0.31,-0.461C0.329,-0.461 0.346,-0.459 0.361,-0.455C0.376,-0.45 0.389,-0.443 0.399,-0.433C0.409,-0.423 0.417,-0.409 0.422,-0.393C0.427,-0.377 0.43,-0.357 0.43,-0.333L0.43,-0L0.52,-0L0.52,-0.335C0.52,-0.371 0.516,-0.401 0.507,-0.427C0.498,-0.452 0.486,-0.473 0.47,-0.49C0.454,-0.506 0.435,-0.519 0.412,-0.526C0.39,-0.534 0.365,-0.538 0.337,-0.538C0.316,-0.538 0.297,-0.535 0.279,-0.529C0.26,-0.523 0.243,-0.515 0.228,-0.505C0.217,-0.498 0.207,-0.49 0.198,-0.481C0.189,-0.471 0.18,-0.461 0.172,-0.45L0.166,-0.528L0.085,-0.528L0.085,-0Z" style="fill:white;fill-rule:nonzero;"/>
            </g>
            <g transform="matrix(10,0,0,10,119.387,203.473)">
                <path d="M0.243,-0.247L0.437,-0L0.552,-0L0.305,-0.308L0.519,-0.528L0.409,-0.528L0.236,-0.354L0.177,-0.291L0.177,-0.75L0.086,-0.75L0.086,-0L0.177,-0L0.177,-0.183L0.243,-0.247Z" style="fill:white;fill-rule:nonzero;"/>
            </g>
            <g transform="matrix(10,0,0,10,131.389,203.473)">
                <path d="M0.436,-0.14C0.436,-0.132 0.434,-0.124 0.431,-0.116C0.428,-0.109 0.423,-0.102 0.417,-0.096C0.407,-0.086 0.393,-0.078 0.375,-0.072C0.357,-0.066 0.336,-0.063 0.312,-0.063C0.297,-0.063 0.281,-0.065 0.266,-0.068C0.25,-0.072 0.236,-0.077 0.223,-0.085C0.21,-0.093 0.199,-0.103 0.191,-0.116C0.182,-0.128 0.177,-0.144 0.176,-0.163L0.085,-0.163C0.085,-0.14 0.091,-0.118 0.101,-0.098C0.111,-0.077 0.126,-0.059 0.146,-0.043C0.165,-0.027 0.188,-0.014 0.216,-0.005C0.244,0.005 0.276,0.01 0.312,0.01C0.343,0.01 0.372,0.006 0.398,-0.001C0.425,-0.009 0.447,-0.02 0.466,-0.033C0.485,-0.047 0.5,-0.063 0.51,-0.083C0.521,-0.102 0.526,-0.123 0.526,-0.146C0.526,-0.168 0.522,-0.188 0.512,-0.204C0.503,-0.221 0.49,-0.235 0.472,-0.248C0.455,-0.26 0.433,-0.271 0.407,-0.28C0.382,-0.289 0.352,-0.297 0.32,-0.304C0.295,-0.309 0.275,-0.314 0.259,-0.319C0.242,-0.324 0.23,-0.33 0.22,-0.336C0.21,-0.343 0.204,-0.35 0.2,-0.358C0.196,-0.367 0.194,-0.376 0.194,-0.386C0.194,-0.396 0.196,-0.406 0.201,-0.416C0.206,-0.425 0.213,-0.433 0.223,-0.44C0.233,-0.448 0.245,-0.453 0.259,-0.458C0.274,-0.462 0.29,-0.464 0.31,-0.464C0.328,-0.464 0.345,-0.461 0.36,-0.456C0.374,-0.451 0.387,-0.444 0.397,-0.436C0.408,-0.427 0.416,-0.417 0.422,-0.406C0.428,-0.396 0.431,-0.384 0.431,-0.373L0.521,-0.373C0.521,-0.396 0.516,-0.418 0.506,-0.438C0.496,-0.458 0.482,-0.475 0.464,-0.49C0.446,-0.505 0.424,-0.517 0.397,-0.525C0.371,-0.534 0.342,-0.538 0.31,-0.538C0.279,-0.538 0.252,-0.534 0.226,-0.526C0.201,-0.518 0.179,-0.507 0.161,-0.493C0.143,-0.479 0.129,-0.462 0.119,-0.444C0.109,-0.425 0.104,-0.405 0.104,-0.383C0.104,-0.361 0.108,-0.342 0.118,-0.326C0.128,-0.309 0.142,-0.295 0.16,-0.283C0.177,-0.271 0.198,-0.26 0.223,-0.251C0.248,-0.243 0.276,-0.235 0.306,-0.229C0.331,-0.224 0.352,-0.219 0.368,-0.213C0.385,-0.207 0.398,-0.2 0.408,-0.193C0.418,-0.186 0.425,-0.178 0.43,-0.169C0.434,-0.161 0.436,-0.151 0.436,-0.14Z" style="fill:white;fill-rule:nonzero;"/>
            </g>
            <g transform="matrix(10,0,0,10,137.39,203.473)">
                <path d="M0.299,-0.656L0.208,-0.656L0.208,-0.528L0.069,-0.528L0.069,-0.458L0.208,-0.458L0.208,-0.171C0.208,-0.139 0.212,-0.111 0.221,-0.088C0.23,-0.065 0.241,-0.047 0.256,-0.032C0.271,-0.018 0.289,-0.007 0.309,-0C0.33,0.006 0.352,0.01 0.375,0.01C0.389,0.01 0.403,0.009 0.417,0.008C0.431,0.007 0.445,0.005 0.458,0.002C0.47,-0 0.482,-0.003 0.493,-0.007C0.503,-0.01 0.513,-0.014 0.52,-0.019L0.507,-0.083C0.502,-0.081 0.495,-0.08 0.486,-0.078C0.477,-0.076 0.468,-0.074 0.458,-0.073C0.448,-0.071 0.438,-0.07 0.428,-0.069C0.417,-0.067 0.407,-0.067 0.397,-0.067C0.384,-0.067 0.372,-0.069 0.36,-0.072C0.348,-0.075 0.337,-0.081 0.328,-0.089C0.319,-0.097 0.312,-0.107 0.307,-0.121C0.301,-0.134 0.299,-0.151 0.299,-0.171L0.299,-0.458L0.5,-0.458L0.5,-0.528L0.299,-0.528L0.299,-0.656Z" style="fill:white;fill-rule:nonzero;"/>
            </g>
            <g transform="matrix(10,0,0,10,143.391,203.473)">
                <path d="M0.318,0.01C0.37,0.01 0.413,-0.001 0.448,-0.021C0.483,-0.042 0.509,-0.066 0.527,-0.092L0.472,-0.135C0.455,-0.114 0.434,-0.097 0.409,-0.083C0.384,-0.07 0.355,-0.064 0.323,-0.064C0.299,-0.064 0.277,-0.069 0.256,-0.078C0.236,-0.087 0.219,-0.099 0.205,-0.115C0.191,-0.13 0.18,-0.147 0.172,-0.167C0.164,-0.187 0.159,-0.209 0.156,-0.235L0.156,-0.238L0.534,-0.238L0.534,-0.279C0.534,-0.316 0.529,-0.35 0.52,-0.381C0.51,-0.413 0.496,-0.44 0.478,-0.464C0.459,-0.487 0.435,-0.505 0.406,-0.518C0.378,-0.531 0.345,-0.538 0.307,-0.538C0.276,-0.538 0.247,-0.532 0.218,-0.52C0.189,-0.507 0.164,-0.489 0.141,-0.466C0.118,-0.443 0.1,-0.414 0.086,-0.381C0.073,-0.347 0.066,-0.309 0.066,-0.266L0.066,-0.246C0.066,-0.209 0.072,-0.175 0.084,-0.144C0.097,-0.112 0.114,-0.085 0.136,-0.063C0.158,-0.04 0.185,-0.022 0.216,-0.009C0.247,0.003 0.281,0.01 0.318,0.01ZM0.307,-0.464C0.33,-0.464 0.35,-0.46 0.366,-0.451C0.383,-0.443 0.397,-0.432 0.408,-0.418C0.419,-0.404 0.428,-0.388 0.434,-0.369C0.44,-0.351 0.443,-0.333 0.443,-0.317L0.443,-0.313L0.159,-0.313C0.163,-0.337 0.169,-0.358 0.178,-0.377C0.187,-0.396 0.198,-0.412 0.211,-0.425C0.224,-0.438 0.239,-0.447 0.255,-0.454C0.271,-0.461 0.288,-0.464 0.307,-0.464Z" style="fill:white;fill-rule:nonzero;"/>
            </g>
            <g transform="matrix(10,0,0,10,149.392,203.473)">
                <path d="M0.084,0.203L0.175,0.203L0.175,-0.051C0.181,-0.044 0.188,-0.037 0.196,-0.031C0.203,-0.025 0.211,-0.02 0.22,-0.015C0.234,-0.007 0.249,-0.001 0.267,0.003C0.284,0.008 0.303,0.01 0.323,0.01C0.356,0.01 0.386,0.003 0.412,-0.011C0.438,-0.024 0.459,-0.043 0.477,-0.067C0.495,-0.091 0.508,-0.12 0.517,-0.153C0.526,-0.185 0.531,-0.221 0.531,-0.258L0.531,-0.269C0.531,-0.308 0.526,-0.344 0.517,-0.377C0.508,-0.41 0.495,-0.439 0.477,-0.462C0.459,-0.486 0.438,-0.505 0.412,-0.518C0.386,-0.531 0.356,-0.538 0.322,-0.538C0.303,-0.538 0.285,-0.536 0.268,-0.532C0.251,-0.528 0.236,-0.522 0.222,-0.514C0.212,-0.509 0.203,-0.503 0.195,-0.495C0.186,-0.488 0.179,-0.48 0.171,-0.471L0.167,-0.528L0.084,-0.528L0.084,0.203ZM0.44,-0.269L0.44,-0.258C0.44,-0.233 0.438,-0.208 0.432,-0.185C0.426,-0.161 0.417,-0.14 0.406,-0.123C0.394,-0.105 0.379,-0.09 0.361,-0.08C0.343,-0.069 0.321,-0.064 0.296,-0.064C0.28,-0.064 0.266,-0.066 0.253,-0.07C0.24,-0.074 0.229,-0.079 0.218,-0.086C0.209,-0.092 0.201,-0.099 0.194,-0.107C0.187,-0.116 0.18,-0.125 0.175,-0.135L0.175,-0.389C0.181,-0.4 0.188,-0.41 0.196,-0.419C0.204,-0.429 0.214,-0.436 0.224,-0.442C0.234,-0.449 0.244,-0.453 0.256,-0.457C0.268,-0.46 0.281,-0.461 0.295,-0.461C0.32,-0.461 0.342,-0.456 0.36,-0.446C0.379,-0.435 0.394,-0.421 0.406,-0.404C0.417,-0.386 0.426,-0.365 0.432,-0.342C0.438,-0.319 0.44,-0.294 0.44,-0.269Z" style="fill:white;fill-rule:nonzero;"/>
            </g>
            <g transform="matrix(10,0,0,10,155.393,203.473)">
                <path d="M0.436,-0.14C0.436,-0.132 0.434,-0.124 0.431,-0.116C0.428,-0.109 0.423,-0.102 0.417,-0.096C0.407,-0.086 0.393,-0.078 0.375,-0.072C0.357,-0.066 0.336,-0.063 0.312,-0.063C0.297,-0.063 0.281,-0.065 0.266,-0.068C0.25,-0.072 0.236,-0.077 0.223,-0.085C0.21,-0.093 0.199,-0.103 0.191,-0.116C0.182,-0.128 0.177,-0.144 0.176,-0.163L0.085,-0.163C0.085,-0.14 0.091,-0.118 0.101,-0.098C0.111,-0.077 0.126,-0.059 0.146,-0.043C0.165,-0.027 0.188,-0.014 0.216,-0.005C0.244,0.005 0.276,0.01 0.312,0.01C0.343,0.01 0.372,0.006 0.398,-0.001C0.425,-0.009 0.447,-0.02 0.466,-0.033C0.485,-0.047 0.5,-0.063 0.51,-0.083C0.521,-0.102 0.526,-0.123 0.526,-0.146C0.526,-0.168 0.522,-0.188 0.512,-0.204C0.503,-0.221 0.49,-0.235 0.472,-0.248C0.455,-0.26 0.433,-0.271 0.407,-0.28C0.382,-0.289 0.352,-0.297 0.32,-0.304C0.295,-0.309 0.275,-0.314 0.259,-0.319C0.242,-0.324 0.23,-0.33 0.22,-0.336C0.21,-0.343 0.204,-0.35 0.2,-0.358C0.196,-0.367 0.194,-0.376 0.194,-0.386C0.194,-0.396 0.196,-0.406 0.201,-0.416C0.206,-0.425 0.213,-0.433 0.223,-0.44C0.233,-0.448 0.245,-0.453 0.259,-0.458C0.274,-0.462 0.29,-0.464 0.31,-0.464C0.328,-0.464 0.345,-0.461 0.36,-0.456C0.374,-0.451 0.387,-0.444 0.397,-0.436C0.408,-0.427 0.416,-0.417 0.422,-0.406C0.428,-0.396 0.431,-0.384 0.431,-0.373L0.521,-0.373C0.521,-0.396 0.516,-0.418 0.506,-0.438C0.496,-0.458 0.482,-0.475 0.464,-0.49C0.446,-0.505 0.424,-0.517 0.397,-0.525C0.371,-0.534 0.342,-0.538 0.31,-0.538C0.279,-0.538 0.252,-0.534 0.226,-0.526C0.201,-0.518 0.179,-0.507 0.161,-0.493C0.143,-0.479 0.129,-0.462 0.119,-0.444C0.109,-0.425 0.104,-0.405 0.104,-0.383C0.104,-0.361 0.108,-0.342 0.118,-0.326C0.128,-0.309 0.142,-0.295 0.16,-0.283C0.177,-0.271 0.198,-0.26 0.223,-0.251C0.248,-0.243 0.276,-0.235 0.306,-0.229C0.331,-0.224 0.352,-0.219 0.368,-0.213C0.385,-0.207 0.398,-0.2 0.408,-0.193C0.418,-0.186 0.425,-0.178 0.43,-0.169C0.434,-0.161 0.436,-0.151 0.436,-0.14Z" style="fill:white;fill-rule:nonzero;"/>
            </g>
        </g>
    </g>
</svg>
